<svg id="Layer_1" data-name="Layer 1" xmlns="http://www.w3.org/2000/svg" viewBox="0 0 815.38 422.9"><defs><style>.cls-1{fill:#4579f7;}.cls-2,.cls-6{fill:#fff;}.cls-3{fill:#3f3d56;}.cls-4{fill:#f2f2f2;}.cls-5{fill:#6c63ff;}.cls-5,.cls-6,.cls-7{opacity:0.1;}.cls-5,.cls-6,.cls-7,.cls-9{isolation:isolate;}.cls-8{fill:#3763ce;}.cls-9{fill:#1d1d1b;}.cls-25,.cls-9{opacity:0.2;}.cls-10{fill:#3c3c3b;}.cls-11{fill:#575756;}.cls-12{fill:#878787;}.cls-13{fill:#634e42;}.cls-14{fill:#f2be8a;}.cls-15{fill:#ffcf9f;}.cls-16{fill:#ffc994;}.cls-17{fill:#ededed;}.cls-18{fill:#ca9e67;}.cls-19{fill:#f5c08c;}.cls-20{fill:#dadada;}.cls-21{fill:#deab7d;}.cls-22{fill:#f6f6f6;}.cls-23{fill:#f2bb88;}.cls-24{fill:#dba97b;}.cls-26{opacity:0.3;}.cls-27{fill:#936037;}.cls-28{fill:#c4986e;}.cls-29{fill:#968282;}.cls-30{fill:#c4a9a9;}.cls-31{fill:#2e2e27;}</style></defs><path id="Path_111082" data-name="Path 111082" class="cls-1" d="M425.4,117.18A17.23,17.23,0,0,1,405.22,105,17.22,17.22,0,0,1,425.4,117.18Z" transform="translate(-7.62 -81.04)"/><path id="Path_111081" data-name="Path 111081" class="cls-2" d="M406,470.26c.39-.63,20.76,24.68,18.72,16.53C424.29,487.41,403.92,462.11,406,470.26Z" transform="translate(-7.62 -81.04)"/><path id="Path_111083" data-name="Path 111083" class="cls-3" d="M421.64,117.87a17.75,17.75,0,0,1-16.88-13.28,17.63,17.63,0,0,1,21.1,12.72A16.31,16.31,0,0,1,421.64,117.87ZM405.69,105.2c2.33,8,11.09,13.4,19.24,11.55A16.8,16.8,0,0,0,405.69,105.2Z" transform="translate(-7.62 -81.04)"/><g id="Group_16720" data-name="Group 16720"><path id="Path_109875" data-name="Path 109875" class="cls-4" d="M30.14,271.34c52.84-178.62,247-17.9,208.17,68.28-23.21,11.46-22.08,35.5-80.81,30.8S76.41,361.7,47.08,358.88-1.42,371.12,12,339.62C31.91,293.89,104.38,296.21,30.14,271.34Z" transform="translate(-7.62 -81.04)"/><path id="Path_109621" data-name="Path 109621" class="cls-5" d="M633.35,406.27c59.84-19,121-36.72,183.16-47.7A74.62,74.62,0,0,0,791.88,329c8-57.76-58.51-103-108.86-73-66.85-48.79-198-36.14-246,27.57,51.92,8.78,169.36,28.61,220.13,37.17-95.4,2.85-191.1,5.68-286.22-1a75.4,75.4,0,0,0-10.86,95.16h0c0,1.49.06,3,.17,4.44C396.06,428,432.4,433.58,468.84,439c-25.15,15.51-55.78,17.7-84.79,24.27C410,499.78,711.32,475.3,751.22,482c33.9,0,61.37-23.6,61.37-52.71h0a74.84,74.84,0,0,0,10-27.39C759.85,407.93,696.35,402.67,633.35,406.27Z" transform="translate(-7.62 -81.04)"/><path id="Path_109622" data-name="Path 109622" class="cls-4" d="M823,389.47a74.81,74.81,0,0,0-31.59-61.27c8-57.77-58.52-102.94-108.86-73-71.87-53.25-217.93-32.67-257.19,43.41-59.58-4.73-99.19,66.78-65.75,115.49h0c0,37.07,35,67.13,78.14,67.13h313c33.89,0,61.36-23.6,61.36-52.71h0A75.07,75.07,0,0,0,823,389.47Z" transform="translate(-7.62 -81.04)"/><g id="Group_14525" data-name="Group 14525"><path id="Path_109652" data-name="Path 109652" class="cls-1" d="M594.39,345.33c-1.3,24.28-18.63,46.39-42,53.23l-1.63-5.1c19.51-5.66,34.24-22.86,37.65-42.77H568.65v-5.36Z" transform="translate(-7.62 -81.04)"/><path id="Path_109653" data-name="Path 109653" class="cls-6" d="M554.48,397.06c21.34-7.94,36.51-29.07,37.78-51.73h2.2c-1.3,24.28-18.63,46.38-42,53.23l-.21-.67C553,397.62,553.75,397.34,554.48,397.06Z" transform="translate(-7.62 -81.04)"/><path id="Path_109654" data-name="Path 109654" class="cls-1" d="M519.73,393.45l-1.63,5.1c-23.36-6.84-40.7-28.95-42-53.23h25.73v5.36H482.07C485.5,370.59,500.21,387.8,519.73,393.45Z" transform="translate(-7.62 -81.04)"/><path id="Path_109655" data-name="Path 109655" class="cls-6" d="M516,397.06c-21.33-7.94-36.51-29.07-37.77-51.73H476c1.3,24.28,18.64,46.38,42,53.23l.22-.67C517.48,397.62,516.73,397.34,516,397.06Z" transform="translate(-7.62 -81.04)"/><path id="Path_109656" data-name="Path 109656" class="cls-1" d="M565,442.78v28.88H505.53V442.78l1.89-2.52c20.83-8.24,23.32-24.89,24.14-34.65h7.35c.82,9.75,3.33,26.43,24.14,34.65Z" transform="translate(-7.62 -81.04)"/><rect id="Rectangle_19854" data-name="Rectangle 19854" class="cls-7" x="497.9" y="361.74" width="59.44" height="3.62"/><path id="Path_109657" data-name="Path 109657" class="cls-6" d="M510.57,440.26c20.83-8.24,23.32-24.89,24.14-34.65h-3.15c-.83,9.75-3.33,26.43-24.15,34.65l-1.89,2.52v28.88h3.15V442.78Z" transform="translate(-7.62 -81.04)"/><path id="Path_109658" data-name="Path 109658" class="cls-7" d="M496.5,345.33h5.34v5.36H497C496.78,348.93,496.62,347.14,496.5,345.33Z" transform="translate(-7.62 -81.04)"/><path id="Path_109659" data-name="Path 109659" class="cls-7" d="M519.73,393.45l-1.63,5.11c-5.41-.84-7.53-6-10.1-10.24A58.86,58.86,0,0,0,519.73,393.45Z" transform="translate(-7.62 -81.04)"/><path id="Path_109660" data-name="Path 109660" class="cls-7" d="M550.76,393.45a59.37,59.37,0,0,0,11.73-5.13c-2.58,4.23-4.69,9.41-10.1,10.24Z" transform="translate(-7.62 -81.04)"/><path id="Path_109662" data-name="Path 109662" class="cls-7" d="M539.12,408.55a20.21,20.21,0,0,1-7.75,0,26.06,26.06,0,0,0,.2-2.93h7.35A28.64,28.64,0,0,0,539.12,408.55Z" transform="translate(-7.62 -81.04)"/><path id="Path_109663" data-name="Path 109663" class="cls-1" d="M497.13,336.46c1.26,94.57,75,94.52,76.23,0Z" transform="translate(-7.62 -81.04)"/><path id="Path_109664" data-name="Path 109664" class="cls-6" d="M503.9,336.46h-6.77c.64,41.1,17.22,74.45,41.49,71.55C519.25,404.77,504,374,503.9,336.46Z" transform="translate(-7.62 -81.04)"/><rect id="Rectangle_19855" data-name="Rectangle 19855" class="cls-8" x="507.41" y="372.8" width="40.43" height="10.4"/><path id="Path_109665" data-name="Path 109665" class="cls-6" d="M516.92,455.26h38.54v-1.42H515v10.4h1.89Z" transform="translate(-7.62 -81.04)"/></g><path id="Path_109711" data-name="Path 109711" class="cls-5" d="M716.3,210.82s-35-2.11-30.88,22.41a6,6,0,0,0,3.11,6.3c.75-2.81,9.91.61,12-2.93h0s9.83-4.06,13.67-20.14c0,0,2.83-3.51,2.71-4.41l-5.9,2.52a10.53,10.53,0,0,1,.41,7.8c-.59-2.58,1.14-10.23-4.4-6,0,0,3.47,7.42.86,12.81,0,0,1-9.15-1.94-12.28l-4.16,2.43s4.06,7.67,1.31,13.92c0,0,.7-9.6-2.18-13.33l-3.77,2.94s3.81,7.55,1.49,12.74c0,0-.31-11.17-2.3-12a22.67,22.67,0,0,0-3.8,4.09s2.61,5.49,1,8.39c0,0-1-7.45-1.81-7.49a24.93,24.93,0,0,0-3.63,8.32,18,18,0,0,1,2.83-8.78,9.93,9.93,0,0,0-5,2.6s.51-3.48,5.83-3.78a22.81,22.81,0,0,1,3.44-4,21.7,21.7,0,0,0-8.51,1s2.82-3.29,9.48-1.79l3.72-3a31,31,0,0,0-9.94.1s3.41-2.91,10.94-.79l4.05-2.42a37.4,37.4,0,0,0-9.49-.83,14.56,14.56,0,0,1,10.67.17l2.92-1.3c-.1-.2-6.34-.81-7-1.48a15.15,15.15,0,0,1,8.18.92A36,36,0,0,0,716.3,210.82Z" transform="translate(-7.62 -81.04)"/><path id="Path_109712" data-name="Path 109712" class="cls-5" d="M673.14,217.06c-1.14-1.09-20.25,2.08-12.54,13,.32-1.29,4.47.27,5.44-1.33h0a12.51,12.51,0,0,0,6.17-9.1s1.28-1.59,1.23-2l-2.67,1.14a4.74,4.74,0,0,1,.2,3.53c-.24-1.11.44-4.69-2-2.71a7.84,7.84,0,0,1,.38,5.79s.45-4.13-.87-5.55l-1.88,1.1a8.29,8.29,0,0,1,.59,6.29,11.9,11.9,0,0,0-1-6l-1.7,1.34a8.16,8.16,0,0,1,.67,5.76s-.13-5.05-1-5.42a10.72,10.72,0,0,0-1.72,1.84s1.18,2.49.45,3.78c0,0-.45-3.38-.83-3.38a11.43,11.43,0,0,0-1.64,3.75,8.21,8.21,0,0,1,1.28-4,4.51,4.51,0,0,0-2.27,1.17s.23-1.57,2.64-1.71a11,11,0,0,1,1.55-1.79,9.79,9.79,0,0,0-3.84.44,4.35,4.35,0,0,1,4.3-.83l1.66-1.37a14.39,14.39,0,0,0-4.49,0,5.46,5.46,0,0,1,4.94-.35l1.85-1.1a16.8,16.8,0,0,0-4.3-.37,6.53,6.53,0,0,1,4.82.08l1.31-.59c0-.09-2.92-.38-3.16-.67a6.81,6.81,0,0,1,3.68.42A16.62,16.62,0,0,0,673.14,217.06Z" transform="translate(-7.62 -81.04)"/><path id="Path_109300" data-name="Path 109300" class="cls-4" d="M428,165.38a13,13,0,0,1-13,13.33H268.7a13,13,0,0,1-13-13.33Z" transform="translate(-7.62 -81.04)"/><path id="Path_109302" data-name="Path 109302" class="cls-4" d="M259,498.19c-16.55-8.63,7.25-28.43,12.74-10.61-.45-16.54-12.29-50-2.28-64.71,12.06-14.93,35.06-4.59,39,12.18,4.88,22.93-6.62,54.63-26.37,67.16C274.3,504.92,259,498.19,259,498.19Z" transform="translate(-7.62 -81.04)"/><path id="Path_109303" data-name="Path 109303" class="cls-2" d="M284.42,416.14c10.61,29.26,3.05,61.56-9.06,87.8,18.26-22.82,20-60.28,11.3-88.42C286.22,414.08,284,414.69,284.42,416.14Z" transform="translate(-7.62 -81.04)"/><path id="Path_109321" data-name="Path 109321" class="cls-3" d="M388.22,157.7c-11.69.8-12.18-28.69,0-28.23,4.34.74,22-1.9,25.16,2.09,3.86,4.05,2.5,12.29,2.66,17.89C416.41,162,395.31,156.61,388.22,157.7Zm-7.42-20c.16,6.8-2.05,19.28,7.41,19.18,6.48-1.22,27.36,4.31,27-7.43-.16-6.79,2.05-19.27-7.4-19.17-6.48,1.22-27.35-4.31-27,7.42Z" transform="translate(-7.62 -81.04)"/><path id="Path_109324" data-name="Path 109324" class="cls-1" d="M394.91,139.25h-8.23c-2.67.05-2.68-4.16,0-4.11h8.23C397.58,135.09,397.58,139.3,394.91,139.25Z" transform="translate(-7.62 -81.04)"/><path id="Path_109325" data-name="Path 109325" class="cls-1" d="M394.91,145.83h-8.23c-2.66,0-2.66-4.14,0-4.11h8.23C397.58,141.68,397.58,145.88,394.91,145.83Z" transform="translate(-7.62 -81.04)"/><path id="Path_109326" data-name="Path 109326" class="cls-1" d="M394.91,152.42h-8.23c-2.67,0-2.68-4.16,0-4.12h8.23C397.58,148.26,397.58,152.46,394.91,152.42Z" transform="translate(-7.62 -81.04)"/><path id="Path_109327" data-name="Path 109327" class="cls-1" d="M409.31,139.25h-8.23c-2.67.05-2.67-4.16,0-4.11h8.23C412,135.1,412,139.29,409.31,139.25Z" transform="translate(-7.62 -81.04)"/><path id="Path_109328" data-name="Path 109328" class="cls-1" d="M409.31,145.83h-8.23c-2.67,0-2.67-4.15,0-4.11h8.23C412,141.69,412,145.87,409.31,145.83Z" transform="translate(-7.62 -81.04)"/><path id="Path_109329" data-name="Path 109329" class="cls-1" d="M409.31,152.42h-8.23c-2.67,0-2.67-4.16,0-4.12h8.23C412,148.27,412,152.45,409.31,152.42Z" transform="translate(-7.62 -81.04)"/><rect id="Rectangle_19841" data-name="Rectangle 19841" class="cls-3" x="248.12" y="28.98" width="172.29" height="0.82"/><path id="Path_109330" data-name="Path 109330" class="cls-3" d="M414.45,179H268.82a13.59,13.59,0,0,1-13.57-13.57V94.62A13.59,13.59,0,0,1,268.82,81H414.45A13.59,13.59,0,0,1,428,94.62v70.75A13.59,13.59,0,0,1,414.45,179ZM268.82,81.86a12.77,12.77,0,0,0-12.75,12.76v70.75a12.77,12.77,0,0,0,12.75,12.76H414.45a12.77,12.77,0,0,0,12.75-12.76V94.62a12.77,12.77,0,0,0-12.75-12.76Z" transform="translate(-7.62 -81.04)"/><g id="Group_14402" data-name="Group 14402"><g id="Group_14381" data-name="Group 14381"><path id="Path_109428" data-name="Path 109428" class="cls-9" d="M745.65,469.32c2.71,16.22-132.07,16.22-129.35,0C613.59,453.09,748.37,453.09,745.65,469.32Z" transform="translate(-7.62 -81.04)"/><g id="Group_14364" data-name="Group 14364"><path id="Path_109429" data-name="Path 109429" class="cls-10" d="M682,350.23c-28.81,5-35.88-23.32-33.92-46.25a108.6,108.6,0,0,0,67.82,0C717.85,326.9,710.78,355.19,682,350.23Z" transform="translate(-7.62 -81.04)"/><g id="Group_14363" data-name="Group 14363"><path id="Path_109430" data-name="Path 109430" class="cls-11" d="M682,309.81A141.49,141.49,0,0,1,648.08,304q0,3.27.06,6.49a108.65,108.65,0,0,0,67.7,0q.09-3.22.06-6.49A141.49,141.49,0,0,1,682,309.81Z" transform="translate(-7.62 -81.04)"/><rect id="Rectangle_19846" data-name="Rectangle 19846" class="cls-12" x="669.81" y="228.51" width="9.08" height="6.73"/><path id="Path_109431" data-name="Path 109431" class="cls-10" d="M656.06,312.92h-1.91v-7.3l1.91.47Z" transform="translate(-7.62 -81.04)"/><path id="Path_109432" data-name="Path 109432" class="cls-10" d="M707.88,312.92h1.92v-7.3l-1.92.47Z" transform="translate(-7.62 -81.04)"/><path id="Path_109433" data-name="Path 109433" class="cls-10" d="M667.13,315.35h-1.91V308l1.91.28Z" transform="translate(-7.62 -81.04)"/><path id="Path_109434" data-name="Path 109434" class="cls-10" d="M696.82,315.35h1.92V308l-1.92.28Z" transform="translate(-7.62 -81.04)"/></g></g><g id="Group_14369" data-name="Group 14369"><g id="Group_14366" data-name="Group 14366"><path id="Path_109435" data-name="Path 109435" class="cls-10" d="M664.24,472.85a17.22,17.22,0,0,0,8.62-.89v-2l-9.09-1.13Z" transform="translate(-7.62 -81.04)"/><g id="Group_14365" data-name="Group 14365"><path id="Path_109436" data-name="Path 109436" class="cls-10" d="M672.86,470c-16.15,4.29-28.16,4.81-34.85,2.33l-.22-2.53,34.81-2.91Z" transform="translate(-7.62 -81.04)"/><path id="Path_109437" data-name="Path 109437" class="cls-13" d="M672.68,467.82c-5.11,3.13-32,5-34.88,2-.75-2.41,8.26-6.08,12.13-7.27l1.17-.4C662.84,456.77,673.11,459.75,672.68,467.82Z" transform="translate(-7.62 -81.04)"/><path id="Path_109438" data-name="Path 109438" class="cls-10" d="M656,464.63c-.66,1.22-4.24-2.37-4.9-2.51.55-.18,1.11-.37,1.7-.55C653.23,462.12,656.86,463.59,656,464.63Z" transform="translate(-7.62 -81.04)"/><path id="Path_109439" data-name="Path 109439" class="cls-10" d="M653.08,465.71c-1.58.69-3.26-2-4.79-2.62l1.63-.57C650.8,463.5,653.59,464.16,653.08,465.71Z" transform="translate(-7.62 -81.04)"/><path id="Path_109440" data-name="Path 109440" class="cls-10" d="M650.18,466.71c-.7,1.19-4-2.41-4.65-2.58l1.57-.61C647.49,464.09,651.06,465.7,650.18,466.71Z" transform="translate(-7.62 -81.04)"/></g></g><g id="Group_14368" data-name="Group 14368"><path id="Path_109441" data-name="Path 109441" class="cls-10" d="M700.56,472.85a17.22,17.22,0,0,1-8.62-.89v-2l9.1-1.13Z" transform="translate(-7.62 -81.04)"/><g id="Group_14367" data-name="Group 14367"><path id="Path_109442" data-name="Path 109442" class="cls-10" d="M692,470c16.16,4.29,28.17,4.81,34.86,2.33l.21-2.53-34.81-2.91Z" transform="translate(-7.62 -81.04)"/><path id="Path_109443" data-name="Path 109443" class="cls-13" d="M692.14,467.82c5.11,3.13,32,5,34.88,2,.74-2.42-8.24-6.07-12.12-7.27l-1.17-.4C702,456.77,691.7,459.75,692.14,467.82Z" transform="translate(-7.62 -81.04)"/><path id="Path_109444" data-name="Path 109444" class="cls-10" d="M708.81,464.63c.65,1.23,4.24-2.37,4.9-2.51l-1.71-.55C711.6,462.12,708,463.59,708.81,464.63Z" transform="translate(-7.62 -81.04)"/><path id="Path_109445" data-name="Path 109445" class="cls-10" d="M711.74,465.71c1.58.69,3.26-2,4.79-2.62l-1.63-.57h0C714,463.5,711.23,464.16,711.74,465.71Z" transform="translate(-7.62 -81.04)"/><path id="Path_109446" data-name="Path 109446" class="cls-10" d="M714.63,466.71c.7,1.19,4-2.41,4.65-2.58l-1.58-.61C717.32,464.09,713.74,465.7,714.63,466.71Z" transform="translate(-7.62 -81.04)"/></g></g><path id="Path_109447" data-name="Path 109447" class="cls-10" d="M675.52,463.86C671.43,452.91,689.16,289,662.11,328.1c-2.11,43.77-6.26,87.42-10.7,131A38.75,38.75,0,0,0,675.52,463.86Z" transform="translate(-7.62 -81.04)"/><path id="Path_109448" data-name="Path 109448" class="cls-10" d="M688.46,461.73c4.08-10.94-13.64-174.9,13.41-135.76,2.11,43.77,6.27,87.42,10.7,131A31.85,31.85,0,0,1,688.46,461.73Z" transform="translate(-7.62 -81.04)"/></g><g id="Group_14370" data-name="Group 14370"><path id="Path_109449" data-name="Path 109449" class="cls-14" d="M595.09,262.72l-1.93,13.13-9.69-1.42c-3,5-13.7,1.35-18.55,1a57.23,57.23,0,0,1,.34-21.59c4.52,1.11,20.3-.63,20.47,7.56Z" transform="translate(-7.62 -81.04)"/><path id="Path_109450" data-name="Path 109450" class="cls-15" d="M568.81,259.57c3.5.62,4.45-5.24.93-5.77l-5.36-.88c-1.87-.33-3,1.38-3,3.07C560.65,259.51,566.87,258.94,568.81,259.57Z" transform="translate(-7.62 -81.04)"/><path id="Path_109451" data-name="Path 109451" class="cls-15" d="M568.58,265.47c3.51.69,4.55-5.17,1-5.75l-6.75-1.23c-1.88-.36-3.05,1.35-3.09,3.06C559,265.27,566.65,264.67,568.58,265.47Z" transform="translate(-7.62 -81.04)"/><path id="Path_109452" data-name="Path 109452" class="cls-15" d="M568.26,271.16c3.5.61,4.46-5.24.94-5.77l-5.36-.88c-1.88-.33-3,1.38-3.05,3.07C560.1,271.1,566.32,270.53,568.26,271.16Z" transform="translate(-7.62 -81.04)"/><path id="Path_109453" data-name="Path 109453" class="cls-15" d="M568.75,276c2.75.39,3.51-4.26.79-4.77l-4.12-.68c-1.53-.22-2.33,1.21-2.37,2.56C562.41,275.9,567.21,275.51,568.75,276Z" transform="translate(-7.62 -81.04)"/><path id="Path_109454" data-name="Path 109454" class="cls-16" d="M592.68,262.37c-1.67-.27-5.3-.82-6.95-1-1.31-7.58-9.37-5.44-5.84-15.94,1.75-3.28-5.25-5.09-5.75,1.51l-.67,7.49c-.68,17.2,10.1,14,20,16.2Z" transform="translate(-7.62 -81.04)"/></g><path id="Path_109455" data-name="Path 109455" class="cls-17" d="M681.71,236.14c-11.41,1.41-22.93.15-34.21-1.74-1.4-8.66-7-16-9.21-24.46-4.29-16.69,4.56-29.21,3.58-46.43-.35-6.12,4.22-11,3.23-22.51-3.19-27.53,16.9-32.82,36.67-34.06,19.75,1.27,39.72,6.55,36.54,34-1,11.52,3.58,16.4,3.23,22.52-1,17.21,7.87,29.73,3.57,46.43-2.17,8.45-7.79,15.8-9.2,24.46C704.63,236.29,693.12,237.49,681.71,236.14Z" transform="translate(-7.62 -81.04)"/><g id="Group_14371" data-name="Group 14371"><path id="Path_109456" data-name="Path 109456" class="cls-18" d="M799.3,263.53c.05,2.76-4.3,2.77-4.26,0S799.34,260.76,799.3,263.53Z" transform="translate(-7.62 -81.04)"/><path id="Path_109457" data-name="Path 109457" class="cls-18" d="M799.22,259.34c0,2.76-4.29,2.77-4.26,0S799.26,256.57,799.22,259.34Z" transform="translate(-7.62 -81.04)"/><path id="Path_109458" data-name="Path 109458" class="cls-18" d="M798.91,255.26c.05,2.76-4.3,2.77-4.26,0S799,252.5,798.91,255.26Z" transform="translate(-7.62 -81.04)"/><path id="Path_109459" data-name="Path 109459" class="cls-18" d="M798.53,251.06c0,2.76-4.3,2.76-4.26,0S798.58,248.29,798.53,251.06Z" transform="translate(-7.62 -81.04)"/><path id="Path_109460" data-name="Path 109460" class="cls-18" d="M798.27,247.1c0,2.77-4.3,2.77-4.26,0S798.31,244.34,798.27,247.1Z" transform="translate(-7.62 -81.04)"/></g><g id="Group_14372" data-name="Group 14372"><path id="Path_109461" data-name="Path 109461" class="cls-15" d="M789.06,255.11a2.3,2.3,0,0,1,1.49-2.89c2.18.27,19.71-8.55,20.48-4a2.3,2.3,0,0,1-1.49,2.89C807.36,250.83,789.84,259.64,789.06,255.11Z" transform="translate(-7.62 -81.04)"/><path id="Path_109462" data-name="Path 109462" class="cls-15" d="M786.56,252.08a2.27,2.27,0,0,1,1.19-3c2.19,0,18.75-10.47,20-6a2.28,2.28,0,0,1-1.18,3C804.34,246,787.78,256.52,786.56,252.08Z" transform="translate(-7.62 -81.04)"/><path id="Path_109463" data-name="Path 109463" class="cls-15" d="M790.36,259.32c-1.79-4.25,16-5.89,17.73-7.25a2.27,2.27,0,0,1,2.79,1.59c1.79,4.25-16,5.89-17.74,7.26A2.28,2.28,0,0,1,790.36,259.32Z" transform="translate(-7.62 -81.04)"/><path id="Path_109464" data-name="Path 109464" class="cls-15" d="M791.59,263.15a2,2,0,0,1,1.62-2.39c1.92.37,13.93-4.44,14.27-.55a2,2,0,0,1-1.62,2.39C803.94,262.23,791.93,267,791.59,263.15Z" transform="translate(-7.62 -81.04)"/><path id="Path_109465" data-name="Path 109465" class="cls-19" d="M754.2,261.54l22.54-7.29c-.62-5.27,4.45-6.37,8.33-7.44l1.2,1.81,6.83-1.84a43.47,43.47,0,0,1,2.26,17.71c-3.8.39-11.4,3.9-14.8,1l-22.62,8.06Z" transform="translate(-7.62 -81.04)"/><path id="Path_109466" data-name="Path 109466" class="cls-15" d="M783.1,244.66a17.47,17.47,0,0,0,6.09-5.4c7.42-3.43,2.29,7.69-2.56,9.27a7.81,7.81,0,0,1-1.5,9.43l-7.77-8.46C777.7,247.85,780.32,245.89,783.1,244.66Z" transform="translate(-7.62 -81.04)"/><path id="Path_109467" data-name="Path 109467" class="cls-15" d="M776.41,254.41a9.26,9.26,0,0,1,1.89-6.54l4.93,0,3,2.46c.86,3.8.4,8.23-3.86,9.27l-26.19,8.29-2-6.33Z" transform="translate(-7.62 -81.04)"/></g><path id="Path_109468" data-name="Path 109468" class="cls-20" d="M713.85,161.68c1.74-31-40.18-38.7-58.31-18.57-11.82,11.71-4,30-3,43.29-2,8.35-2.65,16.73,3,23.23a17,17,0,0,1,.52-17.88,17.35,17.35,0,0,0,2.45,2.89c-3.73,6.34,2.69,11.47,2.11,17.52,2.7-4.35.38-9.49,1.23-14.2,5.09,4.59,1.9,12.4,5,17.73,7.18,8.13,20.31,6.36,29.93,4.46-.57-5.64-1-11.75,1.42-16.75,2,3.62,6.58,6.19,6.09,10.88,2.62-5.27-1.37-10-3.47-14.65,1-1,2-2,3-3,2.34,5.29,5.24,10.75,3.68,16.69,3.63-6.82,2.62-14.63.15-21.63,4.85-7.11,3-16.09,7.6-23.2C716.22,165.31,714.75,164.88,713.85,161.68Z" transform="translate(-7.62 -81.04)"/><rect id="Rectangle_19847" data-name="Rectangle 19847" class="cls-21" x="663.47" y="116.79" width="21.59" height="33.03"/><g id="Group_14373" data-name="Group 14373"><path id="Path_109469-2" data-name="Path 109469-2" class="cls-2" d="M733.91,445.68c-5.7,3.93-9.76-.32-14.67,4.22h0c-11.16,3-23.48-.89-35,3.38-8.12.9-12.59-4.31-20-2.07-9,4.7-15.8-2.34-23.91-4.12-3.51,0-6.62,1.21-10.4-1.4a1368.31,1368.31,0,0,0,9.43-159.84c2.08-33.9-13.51-65.14,31.78-73.37a27.28,27.28,0,0,0,21.61,0c32.09,6.94,34.43,20.61,32,50.52C724.27,324.24,729.87,380.52,733.91,445.68Z" transform="translate(-7.62 -81.04)"/><path id="Path_109470" data-name="Path 109470" class="cls-22" d="M692.69,208a37.31,37.31,0,0,1-21.6,0v4.44c4.79,3.32,15.52,3.49,21.6,0Z" transform="translate(-7.62 -81.04)"/><rect id="Rectangle_19848" data-name="Rectangle 19848" class="cls-22" x="671.53" y="131.43" width="5.48" height="32.6"/><path id="Path_109471" data-name="Path 109471" class="cls-17" d="M649.51,449.88a5.26,5.26,0,0,1-.33,1.09c-2.78-1.75-5.38-4.06-8.9-3.88,1.75-33.26,7.86-66.35,6.6-99.62C652.58,381.65,644.82,416,649.51,449.88Z" transform="translate(-7.62 -81.04)"/><path id="Path_109472" data-name="Path 109472" class="cls-17" d="M671.09,447.3a21.91,21.91,0,0,1-.19,3.62,16.86,16.86,0,0,0-6.71.3c-4.46-23.83-3.93-48.42-4.48-72.73C659.19,402.11,666.55,424.5,671.09,447.3Z" transform="translate(-7.62 -81.04)"/><path id="Path_109473" data-name="Path 109473" class="cls-17" d="M695.64,451.14c-2.63.46-5.22,1.08-7.8,1.57,5.23-17.64,0-35.34-2.26-52.88-.18-19.22,4-38.2,5.83-57.3C687.5,378.63,701.75,416.25,695.64,451.14Z" transform="translate(-7.62 -81.04)"/><path id="Path_109474" data-name="Path 109474" class="cls-17" d="M679,406c-1.18-9.46.93-27.38,1.26-37.05-10.18,25.22-3,48.88,5.68,72.85C688.27,429.74,680.66,418.16,679,406Z" transform="translate(-7.62 -81.04)"/><path id="Path_109475" data-name="Path 109475" class="cls-17" d="M709.45,431.59a151.07,151.07,0,0,0-2,19.09c-1.14-.14-2.23-.23-3.29-.27-1.88-15,2.63-29.7,3.38-44.55A72,72,0,0,1,709.45,431.59Z" transform="translate(-7.62 -81.04)"/><path id="Path_109476" data-name="Path 109476" class="cls-17" d="M724.31,447.49a14.86,14.86,0,0,0-5.08,2.41c3.74-26.9-10.18-53.27-6.68-79.52C714.26,396.37,727.19,421,724.31,447.49Z" transform="translate(-7.62 -81.04)"/></g><path id="Path_109477" data-name="Path 109477" class="cls-17" d="M724.8,285.12c-4.83-8.11-9.43-32.05-14.58-43.9,3.84.3,2.89,3.19,5.17,6.27a97.24,97.24,0,0,1,9.34,15.5Q724.64,274.08,724.8,285.12Z" transform="translate(-7.62 -81.04)"/><path id="Path_109478" data-name="Path 109478" class="cls-17" d="M654.48,242.47c-5.08,11.7-10,34.71-15.17,43.38C637.65,270.42,640.89,251.15,654.48,242.47Z" transform="translate(-7.62 -81.04)"/><path id="Path_109479" data-name="Path 109479" class="cls-2" d="M657.28,222.28a10.27,10.27,0,0,0-14,3.74L617,271.43a10.27,10.27,0,1,0,17.77,10.29L661,236.31A10.26,10.26,0,0,0,657.28,222.28Z" transform="translate(-7.62 -81.04)"/><path id="Path_109480" data-name="Path 109480" class="cls-2" d="M586.77,280.54c9.55-.64,47,15,48.94-2.28a10.26,10.26,0,0,0-8.44-11.82l-39.48-6.55Z" transform="translate(-7.62 -81.04)"/><path id="Path_109481" data-name="Path 109481" class="cls-2" d="M707.24,222.28a10.26,10.26,0,0,1,14,3.74l26.29,45.41a10.26,10.26,0,1,1-17.76,10.29l-26.3-45.41A10.27,10.27,0,0,1,707.24,222.28Z" transform="translate(-7.62 -81.04)"/><path id="Path_109482" data-name="Path 109482" class="cls-2" d="M775.92,253.28l-40.41,13.55c-12.71,4-6.12,23.87,6.46,19.49l36.24-12.19Z" transform="translate(-7.62 -81.04)"/><g id="Group_14374" data-name="Group 14374"><path id="Path_109483" data-name="Path 109483" class="cls-18" d="M799.3,267.79c0,2.76-4.3,2.76-4.26,0S799.34,265,799.3,267.79Z" transform="translate(-7.62 -81.04)"/><path id="Path_109484" data-name="Path 109484" class="cls-18" d="M795.29,244.41c0,2.77-4.3,2.77-4.27,0S795.32,241.65,795.29,244.41Z" transform="translate(-7.62 -81.04)"/><path id="Path_109485" data-name="Path 109485" class="cls-18" d="M793.42,248.2c0,2.76-4.3,2.76-4.26,0S793.46,245.44,793.42,248.2Z" transform="translate(-7.62 -81.04)"/><path id="Path_109486" data-name="Path 109486" class="cls-18" d="M793.05,252.46c.05,2.76-4.29,2.77-4.26,0S793.09,249.69,793.05,252.46Z" transform="translate(-7.62 -81.04)"/><path id="Path_109487" data-name="Path 109487" class="cls-18" d="M793.05,256.72c0,2.76-4.3,2.76-4.26,0S793.1,254,793.05,256.72Z" transform="translate(-7.62 -81.04)"/><path id="Ellipse_721" data-name="Ellipse 721" class="cls-18" d="M790.92,258.85c2.77,0,2.77,4.3,0,4.26S788.16,258.81,790.92,258.85Z" transform="translate(-7.62 -81.04)"/><path id="Path_109488" data-name="Path 109488" class="cls-18" d="M793.05,265.24c.05,2.76-4.29,2.77-4.26,0S793.09,262.47,793.05,265.24Z" transform="translate(-7.62 -81.04)"/><path id="Path_109489" data-name="Path 109489" class="cls-18" d="M793.05,269.5c0,2.76-4.3,2.76-4.26,0S793.1,266.73,793.05,269.5Z" transform="translate(-7.62 -81.04)"/><path id="Path_109490" data-name="Path 109490" class="cls-18" d="M794.21,273.47c0,2.77-4.3,2.77-4.26,0S794.25,270.71,794.21,273.47Z" transform="translate(-7.62 -81.04)"/><path id="Path_109491" data-name="Path 109491" class="cls-18" d="M798.05,271.85c0,2.76-4.3,2.77-4.26,0S798.09,269.09,798.05,271.85Z" transform="translate(-7.62 -81.04)"/></g><path id="Path_109492" data-name="Path 109492" class="cls-16" d="M654.48,155.8c-13.31-10.51-14.25,20.08-1.1,16.44Z" transform="translate(-7.62 -81.04)"/><path id="Path_109493" data-name="Path 109493" class="cls-16" d="M715.07,153.8a6.41,6.41,0,0,0-5.76,2l1.08,16.44C719.54,175.47,724.22,155.59,715.07,153.8Z" transform="translate(-7.62 -81.04)"/><g id="Group_14375" data-name="Group 14375"><path id="Path_109494" data-name="Path 109494" class="cls-23" d="M643.94,162.2a11.66,11.66,0,0,1-.26-1.55c-.92,5.89,4.35,13.64,9.7,11.59l.15-2.17A9.43,9.43,0,0,1,643.94,162.2Z" transform="translate(-7.62 -81.04)"/><path id="Path_109495" data-name="Path 109495" class="cls-23" d="M720.1,160.61a10.82,10.82,0,0,1-9.86,9.52l.14,2.1C715.76,174.29,721,166.5,720.1,160.61Z" transform="translate(-7.62 -81.04)"/></g><path id="Path_109496" data-name="Path 109496" class="cls-16" d="M714.08,146.17c-1.11,10-3.57,25.44-4.9,35.39s-12.14,18.51-21,21.25c-12.29.47-15.86.71-25.48-7.77-12-8.2-9.39-33.34-12.84-46.69C644.2,123,716,122.9,714.08,146.17Z" transform="translate(-7.62 -81.04)"/><path id="Path_109497" data-name="Path 109497" class="cls-24" d="M651.37,167.48c-.35-2.93,2-6,.43-8.88-1.24-2.84-6-2.3-6.11,1,0,.55.16.82.24.81,2-5.42,6.71-.54,4.56,3.44-1.89-1.26-4.12,2.35-2.06,3,.36-.82.68-2.11,1.89-2.14-.38,1.8,0,4.89,2.17,5.12C652.6,169.63,651.59,169.1,651.37,167.48Z" transform="translate(-7.62 -81.04)"/><path id="Path_109498" data-name="Path 109498" class="cls-24" d="M717.06,157.47c-9.16-3.84-2.8,9.38-5.77,12.37,2.2-.24,2.54-3.32,2.16-5.12,1.23,0,1.52,1.33,1.9,2.13,2.07-.68-.18-4.28-2.07-3-2.14-4,2.62-8.82,4.57-3.44C718.49,159.8,717.8,158,717.06,157.47Z" transform="translate(-7.62 -81.04)"/><path id="Path_109499" data-name="Path 109499" class="cls-10" d="M712.27,125.4c-5-8.17-14.21-13-23.47-14.38a15.51,15.51,0,0,1,5.42-.47c-2.62-2.33-6.71-2.1-9.89-1.15-1.59-.89-4.69-4.49-2.84-.23-2.06-1.13-4.94-1.5-7-.25a12.09,12.09,0,0,1,4.1,1.56c-25.24.72-34.34,20.7-29.64,43.27a6.47,6.47,0,0,1,5.51,2c-.25-33,11.72-24.15,35-17.15-1.62-.86-3.28-1.86-5-2.88,7.54,2.38,15.08,4.3,22.63,1.72,1.89,2.81,1.68,15,2.16,18.3a6.42,6.42,0,0,1,5.5-2C715.24,145.42,717.47,132.72,712.27,125.4Z" transform="translate(-7.62 -81.04)"/><path id="Path_109500" data-name="Path 109500" class="cls-24" d="M687.25,172c-12.64,3.46-10.85-7.29-9-18C660.34,186.78,698.22,174.18,687.25,172Z" transform="translate(-7.62 -81.04)"/><path id="Path_109501" data-name="Path 109501" class="cls-24" d="M658.46,157.18c7.8-2.85,14-5.44,19.45-4.39-.16,1.05.41,5.71-.45,6.48C671.62,154,662.46,159.56,658.46,157.18Z" transform="translate(-7.62 -81.04)"/><path id="Path_109502" data-name="Path 109502" class="cls-24" d="M705.86,157.18c-7.8-2.85-14.23-5.17-19.66-4.12.16,1.05-.86,5.29,0,6.06C692,153.85,701.86,159.55,705.86,157.18Z" transform="translate(-7.62 -81.04)"/><g id="Group_14376" data-name="Group 14376" class="cls-25"><path id="Path_109503" data-name="Path 109503" class="cls-20" d="M689.07,130.92c3.6,1.11,8.55,1,10.58-2.68-7.8,4.22-15.62-7-23.62-2.7A32.27,32.27,0,0,1,686.8,130c-5.44-2.18-10.92-4.16-16.9-2.83,11.41,2,24,14.45,35.59,6.45A27.84,27.84,0,0,1,689.07,130.92Z" transform="translate(-7.62 -81.04)"/><path id="Path_109504" data-name="Path 109504" class="cls-20" d="M692.55,113.78a30.76,30.76,0,0,1,21.57,29.61A25.4,25.4,0,0,0,692.55,113.78Z" transform="translate(-7.62 -81.04)"/><path id="Path_109505" data-name="Path 109505" class="cls-20" d="M712.3,147.24a24.07,24.07,0,0,0-5.06-20.76A90.35,90.35,0,0,1,712.3,147.24Z" transform="translate(-7.62 -81.04)"/><path id="Path_109506" data-name="Path 109506" class="cls-20" d="M649.93,137.86A34.56,34.56,0,0,1,661.16,118,19.26,19.26,0,0,0,649.93,137.86Z" transform="translate(-7.62 -81.04)"/></g><g id="Group_14377" data-name="Group 14377" class="cls-26"><path id="Path_109507" data-name="Path 109507" class="cls-2" d="M686.29,170.79c-3.58-.34-1.75-12.24-2.69-15.35C683.61,158.42,690,169.9,686.29,170.79Z" transform="translate(-7.62 -81.04)"/></g><g id="Group_14378" data-name="Group 14378"><path id="Path_109508" data-name="Path 109508" class="cls-27" d="M671.78,156.55c.74,4.83-6.87,5.88-7.46,1C663.53,152.77,671.41,151.6,671.78,156.55Z" transform="translate(-7.62 -81.04)"/><path id="Path_109509" data-name="Path 109509" class="cls-10" d="M670.06,156.56c.17,2.6-3.92,2.81-4,.21S670,153.93,670.06,156.56Z" transform="translate(-7.62 -81.04)"/><path id="Path_109510" data-name="Path 109510" class="cls-2" d="M667,157.74a.71.71,0,1,1-1.41,0h0a.71.71,0,0,1,.7-.7h0A.71.71,0,0,1,667,157.74Z" transform="translate(-7.62 -81.04)"/><path id="Path_109511" data-name="Path 109511" class="cls-2" d="M670.73,154.85a1,1,0,1,1-2,0h0a1,1,0,0,1,2,0Z" transform="translate(-7.62 -81.04)"/></g><path id="Path_109512" data-name="Path 109512" class="cls-10" d="M677.84,158c-5.17-4.06-12.25-4.29-18.31-1.21C646.57,156.45,684.26,142.9,677.84,158Z" transform="translate(-7.62 -81.04)"/><g id="Group_14379" data-name="Group 14379"><path id="Path_109513" data-name="Path 109513" class="cls-27" d="M699.63,156.55c.73,4.83-6.87,5.87-7.46,1C691.39,152.77,699.26,151.6,699.63,156.55Z" transform="translate(-7.62 -81.04)"/><path id="Path_109514" data-name="Path 109514" class="cls-10" d="M697.91,156.56c.17,2.6-3.92,2.82-4,.21S697.85,153.93,697.91,156.56Z" transform="translate(-7.62 -81.04)"/><path id="Path_109515" data-name="Path 109515" class="cls-2" d="M694.81,157.74a.7.7,0,0,1-.7.71.72.72,0,0,1-.71-.71h0a.72.72,0,0,1,.71-.7A.7.7,0,0,1,694.81,157.74Z" transform="translate(-7.62 -81.04)"/><path id="Path_109516" data-name="Path 109516" class="cls-2" d="M698.82,154.85a1,1,0,1,1-2.06,0h0a1,1,0,0,1,1-1h0A1,1,0,0,1,698.82,154.85Z" transform="translate(-7.62 -81.04)"/></g><path id="Path_109517" data-name="Path 109517" class="cls-10" d="M686.11,158c5.17-4.06,12.25-4.29,18.31-1.21C717.39,156.45,679.66,142.9,686.11,158Z" transform="translate(-7.62 -81.04)"/><path id="Path_109518-3" data-name="Path 109518-3" class="cls-2" d="M725.11,209.91A96.08,96.08,0,0,1,719,224.69a22.47,22.47,0,0,0-2.06-2.08c8.33-15.74,6.77-31,2-47.18-.32-4.38.33-9.27-2.39-12.71-2.45-3.1-5.11-.47-7.33-3.74-2.54-22.07-9.6-16.29-27.16-13.85-7.4-.58-18.13-5.5-24.35.22-2.43,3.06-.09,8.78-2.28,12-9.24,5.67-11.53,5.52-11.1,18.07-4.79,16.26-6.25,31.62,2.14,47.43-.71.66-1.39,1.37-2,2.1-16-28.27.48-52.5.61-84-1.61-19,4-23.54,14.63-29.16,22.74-10.24,63-6.35,58.59,29.16-1,11.52,3.57,16.39,3.21,22.5C720.57,180.71,729.42,193.23,725.11,209.91Z" transform="translate(-7.62 -81.04)"/><path id="Path_109519" data-name="Path 109519" class="cls-17" d="M650.5,132.89c2,5.16.91,9-2.48,13-1.07,2.91,1,6.38-.3,9.21-1,2-3.48,3.34-3,5.82.94-3.11,4.56-3.61,6.48-5.9,2.15-2.66,1.09-6.81,2.89-9.71,1.39-2.23,4.21-3.3,5.45-5.61,2.33-7.37-5.42-15-.31-22.36C654.16,120.76,649.64,126.42,650.5,132.89Z" transform="translate(-7.62 -81.04)"/><path id="Path_109520" data-name="Path 109520" class="cls-17" d="M676.49,138.84c-1.44-3.05,0-6.77-1-10-2-3.77-4.12-8-1.8-12.19.38,5.87,7,7.92,8.64,13.21,0,5.32,1.32,11,7.12,12.57C684.92,143.29,679,143.49,676.49,138.84Z" transform="translate(-7.62 -81.04)"/><path id="Path_109521" data-name="Path 109521" class="cls-17" d="M703.81,131.41c-.29,5,2.29,9,4.62,13.12,1.18,7,1.93,14.64,9.89,17.07-12.13-15,5.19-27.46-19.5-40.9A19.54,19.54,0,0,1,703.81,131.41Z" transform="translate(-7.62 -81.04)"/><path id="Path_109522" data-name="Path 109522" class="cls-17" d="M685.38,127.17c2.75,3.37,3.54,9.58-1.14,11.64-3.39-2.63-2-7.17-2.63-10.81-.62-3.15-2.84-6.65-.57-9.65C680.7,121.91,683.48,124.52,685.38,127.17Z" transform="translate(-7.62 -81.04)"/><path id="Path_109523" data-name="Path 109523" class="cls-10" d="M644.71,142.77c-17.53-10.8,77.39-11.31,76.67-2.33a2.75,2.75,0,0,1-3.16,2.3A235.07,235.07,0,0,0,644.71,142.77Z" transform="translate(-7.62 -81.04)"/><path id="Path_109524" data-name="Path 109524" class="cls-10" d="M644.71,137.73c-17.45-10.8,77.49-11.33,76.62-2.29a2.74,2.74,0,0,1-3.11,2.26A235.37,235.37,0,0,0,644.71,137.73Z" transform="translate(-7.62 -81.04)"/><g id="Group_14380" data-name="Group 14380"><path id="Path_109525" data-name="Path 109525" class="cls-10" d="M681.89,183.61c-5.22.29-9.14.21-11.76-2.33-.31,12.1,23.82,12.1,23.51,0C691,183.82,687.09,183.89,681.89,183.61Z" transform="translate(-7.62 -81.04)"/><path id="Path_109526" data-name="Path 109526" class="cls-2" d="M681.89,187.41a18.49,18.49,0,0,1-11.27-3l-1-3.15a41.3,41.3,0,0,0,24.51,0l-1,3.15A18.48,18.48,0,0,1,681.89,187.41Z" transform="translate(-7.62 -81.04)"/><path id="Path_109527" data-name="Path 109527" class="cls-28" d="M681.89,184.15c-4.28.19-8.75-.18-12.62-2.15h0v-1.24a44.38,44.38,0,0,0,25.25,0V182h0C690.65,184,686.17,184.34,681.89,184.15Z" transform="translate(-7.62 -81.04)"/></g><path id="Path_109528" data-name="Path 109528" class="cls-10" d="M682,176.36c-38.12-1.46-15.12,46.21,12.94,27.49C711.66,192.79,697.88,173.22,682,176.36ZM680.66,191c-14.08,11.66-26.14-15.46,11.5-8.26,8.92,2.24,4.29,13.18-4.35,11.57C685.61,192.22,683.91,190.25,680.66,191Z" transform="translate(-7.62 -81.04)"/><path id="Path_109529" data-name="Path 109529" class="cls-16" d="M674.23,162.29c.15,5-12.52,5-12.36,0C661.71,157.33,674.38,157.32,674.23,162.29Z" transform="translate(-7.62 -81.04)"/><path id="Path_109530" data-name="Path 109530" class="cls-16" d="M702,162.29c.16,5-12.51,5-12.36,0C689.52,157.33,702.19,157.32,702,162.29Z" transform="translate(-7.62 -81.04)"/></g></g><g id="Group_14401" data-name="Group 14401"><g id="Group_14398" data-name="Group 14398"><path id="Path_109531" data-name="Path 109531" class="cls-9" d="M64.3,469.32c-2.72,16.22,132.06,16.22,129.34,0C196.35,453.1,61.58,453.1,64.3,469.32Z" transform="translate(-7.62 -81.04)"/><g id="Group_14383" data-name="Group 14383"><path id="Path_109532" data-name="Path 109532" class="cls-10" d="M126.16,350.23C155,355.2,162,326.91,160.07,304a108.71,108.71,0,0,1-67.81,0C90.29,326.9,97.37,355.19,126.16,350.23Z" transform="translate(-7.62 -81.04)"/><g id="Group_14382" data-name="Group 14382"><path id="Path_109533" data-name="Path 109533" class="cls-11" d="M126.16,309.81a141.81,141.81,0,0,0,33.9-5.83q0,3.25-.05,6.49a108.86,108.86,0,0,1-67.72,0q-.09-3.23-.05-6.49A141.47,141.47,0,0,0,126.16,309.81Z" transform="translate(-7.62 -81.04)"/><rect id="Rectangle_19849" data-name="Rectangle 19849" class="cls-12" x="113.98" y="228.52" width="9.08" height="6.73"/><path id="Path_109534" data-name="Path 109534" class="cls-10" d="M152.05,312.92H154v-7.3l-1.92.47Z" transform="translate(-7.62 -81.04)"/><path id="Path_109535" data-name="Path 109535" class="cls-10" d="M100.24,312.92H98.32v-7.3l1.92.47Z" transform="translate(-7.62 -81.04)"/><path id="Path_109536" data-name="Path 109536" class="cls-10" d="M141,315.35h1.91v-7.3l-1.91.27Z" transform="translate(-7.62 -81.04)"/><path id="Path_109537" data-name="Path 109537" class="cls-10" d="M111.3,315.35h-1.92v-7.3l1.92.27Z" transform="translate(-7.62 -81.04)"/></g></g><g id="Group_14386" data-name="Group 14386"><g id="Group_14385" data-name="Group 14385"><path id="Path_109538" data-name="Path 109538" class="cls-10" d="M101,473.43a17.19,17.19,0,0,1-8.55-1.37l.11-2,9.15-.61Z" transform="translate(-7.62 -81.04)"/><g id="Group_14384" data-name="Group 14384"><path id="Path_109539" data-name="Path 109539" class="cls-10" d="M92.58,470.08c15.89,5.2,27.85,6.4,34.67,4.3l.35-2.51L93,467Z" transform="translate(-7.62 -81.04)"/><path id="Path_109540" data-name="Path 109540" class="cls-13" d="M92.89,467.93c4.91,3.42,31.68,6.78,34.71,3.93.88-2.37-7.9-6.54-11.69-7.94l-1.16-.46C103.33,457.46,92.91,459.85,92.89,467.93Z" transform="translate(-7.62 -81.04)"/><path id="Path_109541" data-name="Path 109541" class="cls-10" d="M109.71,465.69c.59,1.26,4.37-2.12,5-2.22l-1.67-.64C112.64,463.35,109,464.61,109.71,465.69Z" transform="translate(-7.62 -81.04)"/><path id="Path_109542" data-name="Path 109542" class="cls-10" d="M112.57,467c1.53.8,3.38-1.8,4.93-2.34-.52-.23-1-.44-1.59-.66h0C115,464.87,112.14,465.38,112.57,467Z" transform="translate(-7.62 -81.04)"/><path id="Path_109543" data-name="Path 109543" class="cls-10" d="M115.41,468.09c.64,1.21,4.13-2.18,4.79-2.32l-1.54-.7C118.24,465.62,114.58,467,115.41,468.09Z" transform="translate(-7.62 -81.04)"/></g></g><path id="Path_109544" data-name="Path 109544" class="cls-10" d="M90.27,463.83C95,453.14,86.55,288.48,111.35,329c-.39,43.82,1.3,87.63,3.26,131.42A38.75,38.75,0,0,1,90.27,463.83Z" transform="translate(-7.62 -81.04)"/></g><g id="Group_14389" data-name="Group 14389"><g id="Group_14388" data-name="Group 14388"><path id="Path_109545" data-name="Path 109545" class="cls-10" d="M153.59,472.85A17.21,17.21,0,0,1,145,472v-2l9.09-1.14Z" transform="translate(-7.62 -81.04)"/><g id="Group_14387" data-name="Group 14387"><path id="Path_109546" data-name="Path 109546" class="cls-10" d="M145,470c16.16,4.3,28.17,4.81,34.86,2.33l.21-2.53-34.81-2.91Z" transform="translate(-7.62 -81.04)"/><path id="Path_109547" data-name="Path 109547" class="cls-13" d="M145.15,467.82c5.11,3.14,32,5,34.89,2,.74-2.41-8.27-6.08-12.13-7.26-.38-.14-.78-.27-1.18-.4C155,456.78,144.72,459.75,145.15,467.82Z" transform="translate(-7.62 -81.04)"/><path id="Path_109548" data-name="Path 109548" class="cls-10" d="M161.81,464.63c.66,1.23,4.25-2.37,4.9-2.51l-1.7-.55C164.6,462.13,161,463.59,161.81,464.63Z" transform="translate(-7.62 -81.04)"/><path id="Path_109549" data-name="Path 109549" class="cls-10" d="M164.76,465.71c1.58.68,3.26-2,4.78-2.63-.53-.19-1.07-.38-1.63-.56h0C167,463.49,164.23,464.17,164.76,465.71Z" transform="translate(-7.62 -81.04)"/><path id="Path_109550" data-name="Path 109550" class="cls-10" d="M167.65,466.71c.71,1.19,4-2.41,4.65-2.58l-1.57-.62C170.34,464.09,166.76,465.7,167.65,466.71Z" transform="translate(-7.62 -81.04)"/></g></g><path id="Path_109551" data-name="Path 109551" class="cls-10" d="M141.48,461.73c4.09-11-13.64-174.85,13.41-135.76,2.11,43.76,6.26,87.41,10.69,131A31.81,31.81,0,0,1,141.48,461.73Z" transform="translate(-7.62 -81.04)"/></g><path id="Path_109552" data-name="Path 109552" class="cls-17" d="M127.7,242.21c11,3.37,22.55,4.15,34,4.24,2.87-8.29,9.69-14.54,13.31-22.49,7.13-15.69.59-29.56,4.55-46.35,1.42-6-2.25-11.56.74-22.73,10.56-34.19-28.46-45-52.6-38.91-23.12,4.43-17,30.36-26.59,47.78-12.5,36-25.25,25.62-13.84,69.66C100.34,237.74,113.91,241.17,127.7,242.21Z" transform="translate(-7.62 -81.04)"/><path id="Path_109553" data-name="Path 109553" class="cls-17" d="M205.29,288.89c.09,13.1-8.85,13.1-8.75,0C196.44,275.79,205.39,275.79,205.29,288.89Z" transform="translate(-7.62 -81.04)"/><path id="Path_109554" data-name="Path 109554" class="cls-16" d="M236,286c.91-3.57-9.31-4.41-9.09-.8C226,288.77,236.22,289.6,236,286Z" transform="translate(-7.62 -81.04)"/><path id="Path_109555" data-name="Path 109555" class="cls-19" d="M191.75,283.29l2.85,6.41c11.32,1.44,30.4,5.69,37.31-5.28C221.93,283.71,201.69,283,191.75,283.29Z" transform="translate(-7.62 -81.04)"/><path id="Path_109556" data-name="Path 109556" class="cls-2" d="M150.25,236.64c2.06,8.74,9.89,43,11.78,51.13,6.23,16.56,26.24,4.83,18.67-10.28L170.27,232c-2.59-13.36-23.53-8.57-20,4.6Z" transform="translate(-7.62 -81.04)"/><path id="Path_109557" data-name="Path 109557" class="cls-2" d="M200.91,299c-8.76-2.68-42.48,2.69-38.72-14.78,2.27-15.78,30.84-3.84,40-4.46C197.26,282.56,196.54,296.36,200.91,299Z" transform="translate(-7.62 -81.04)"/><path id="Path_109558" data-name="Path 109558" class="cls-20" d="M109,163.31c3.68-30.83,46.32-31.12,60.67-8.14,9.61,13.58-1.26,30.21-4.55,43.15.52,8.57-.31,16.94-7,22.37a17,17,0,0,0,2.6-17.7,17.39,17.39,0,0,1-2.92,2.42c2.58,6.89-4.63,10.82-5.12,16.88-1.9-4.74,1.27-9.41,1.25-14.18-5.81,3.63-4,11.89-8,16.58-8.5,6.75-21.12,2.73-30.26-.81,1.53-5.46,3-11.4,1.52-16.74-2.63,3.2-7.56,5-7.89,9.66-1.67-5.65,3.1-9.66,6-13.83-.76-1.19-1.61-2.34-2.43-3.49-3.22,4.8-7,9.66-6.53,15.78-2.39-7.34,0-14.86,3.62-21.31-3.54-7.86-.21-16.37-3.45-24.18C106,166.47,107.55,166.3,109,163.31Z" transform="translate(-7.62 -81.04)"/><rect id="Rectangle_19850" data-name="Rectangle 19850" class="cls-21" x="115.05" y="116.8" width="21.6" height="33.03"/><path id="Path_109559" data-name="Path 109559" class="cls-2" d="M178.25,445.67c-3.78,2.61-6.89,1.37-10.4,1.41-8.11,1.78-14.94,8.82-23.91,4.12-7.42-2.24-11.88,3-20,2.07-11.58-4.27-23.88-.42-35-3.38v0c-4.92-4.54-9-.28-14.67-4.21,3.79-62.1,9.24-116.5,9.23-176.27.13-42.26-6.07-49.38,38.22-57.46,2.69,1.1,20.25,3,23,1.88,38.65,10.35,20.68,52.39,24.24,82.13A1372.43,1372.43,0,0,0,178.25,445.67Z" transform="translate(-7.62 -81.04)"/><path id="Path_109560" data-name="Path 109560" class="cls-22" d="M122.67,208a37.26,37.26,0,0,0,21.59,1.37l.36,4.46c-4.79,3.31-17.09,2.37-23.16-1.12Z" transform="translate(-7.62 -81.04)"/><rect id="Rectangle_19851" data-name="Rectangle 19851" class="cls-22" x="125.29" y="131.69" width="5.48" height="32.6"/><path id="Path_109561" data-name="Path 109561" class="cls-17" d="M158.61,449.88a5.35,5.35,0,0,0,.33,1.1c2.78-1.76,5.38-4.07,8.9-3.89-1.75-33.26-7.86-66.35-6.6-99.62C155.54,381.65,163.29,416,158.61,449.88Z" transform="translate(-7.62 -81.04)"/><path id="Path_109562" data-name="Path 109562" class="cls-17" d="M137,447.3a23.06,23.06,0,0,0,.19,3.62,16.92,16.92,0,0,1,6.72.3c4.45-23.83,3.92-48.42,4.47-72.73C148.93,402.11,141.58,424.5,137,447.3Z" transform="translate(-7.62 -81.04)"/><path id="Path_109563" data-name="Path 109563" class="cls-17" d="M112.49,451.14c2.63.46,5.21,1.08,7.79,1.57-5.23-17.64,0-35.33,2.26-52.87.18-19.23-4-38.21-5.83-57.3C120.62,378.64,106.38,416.25,112.49,451.14Z" transform="translate(-7.62 -81.04)"/><path id="Path_109564" data-name="Path 109564" class="cls-17" d="M129.14,406c1.18-9.46-.93-27.37-1.26-37.05,10.18,25.22,3,48.89-5.68,72.85C119.84,429.75,127.46,418.13,129.14,406Z" transform="translate(-7.62 -81.04)"/><path id="Path_109565" data-name="Path 109565" class="cls-17" d="M98.67,431.59a151.07,151.07,0,0,1,2,19.09c1.14-.14,2.23-.23,3.29-.27,1.88-15-2.63-29.71-3.38-44.55A72,72,0,0,0,98.67,431.59Z" transform="translate(-7.62 -81.04)"/><path id="Path_109566" data-name="Path 109566" class="cls-17" d="M83.81,447.49a14.86,14.86,0,0,1,5.08,2.41c-3.74-26.89,10.18-53.27,6.68-79.52C93.86,396.37,80.93,421.05,83.81,447.49Z" transform="translate(-7.62 -81.04)"/><g id="Group_14390" data-name="Group 14390"><path id="Path_109567" data-name="Path 109567" class="cls-17" d="M165.11,265.43a63.12,63.12,0,0,1-28.67,54.78A120,120,0,0,0,165.11,265.43Z" transform="translate(-7.62 -81.04)"/><path id="Path_109568" data-name="Path 109568" class="cls-17" d="M151.79,325.51l14.91-43.59A62.34,62.34,0,0,1,151.79,325.51Z" transform="translate(-7.62 -81.04)"/></g><path id="Path_109569" data-name="Path 109569" class="cls-17" d="M125,270.19c-11.5-8.26-14.8-24.26-18.91-37.14,35.4,40.52,3.75,30.59,62,33.18,0,1.28-5,2.15-5,3.43C151.06,271.88,137.07,272.59,125,270.19Z" transform="translate(-7.62 -81.04)"/><path id="Path_109570" data-name="Path 109570" class="cls-17" d="M169.26,274.19c0,4.27,0,8.51,0,12.69-69,7.22-54.83,17.73-80.77-49.51C118,284.41,116.31,277.5,169.26,274.19Z" transform="translate(-7.62 -81.04)"/><path id="Path_109571" data-name="Path 109571" class="cls-2" d="M90.18,222.45a10.26,10.26,0,0,0-4,13.94l25.28,46c6.24,11.76,24.59,1.69,18-9.89h0l-25.28-46A10.28,10.28,0,0,0,90.18,222.45Z" transform="translate(-7.62 -81.04)"/><path id="Path_109572" data-name="Path 109572" class="cls-16" d="M189.93,273.62,171.7,265l-14.15,1.64L156,278h27.82Z" transform="translate(-7.62 -81.04)"/><path id="Path_109573" data-name="Path 109573" class="cls-19" d="M171.7,265a2.68,2.68,0,0,0-.77,4.25c-2.11.26-2.28,3.31-1,4.19-1.48.49-2,3-.56,3.49a1.93,1.93,0,0,0-.69,3.16l15.11-2,6.17-4.38Z" transform="translate(-7.62 -81.04)"/><path id="Path_109574" data-name="Path 109574" class="cls-2" d="M160.62,266.23l-41.9,1.45c-13.06,2.62-8.64,23.07,4.34,20.07l36.5-5C156.46,276.31,156.23,273.1,160.62,266.23Z" transform="translate(-7.62 -81.04)"/><g id="Group_14391" data-name="Group 14391"><path id="Path_109575" data-name="Path 109575" class="cls-29" d="M239.6,274.13H176.23c-1.84,0-3.12-1.88-2.84-4.2,1.79-3.19,3-52.69,9.68-51.27h63.36c1.85,0,3.13,1.88,2.84,4.2C247.48,226,246.33,275.54,239.6,274.13Z" transform="translate(-7.62 -81.04)"/><path id="Path_109576" data-name="Path 109576" class="cls-10" d="M240.22,276.87h-61l.62-3.25h61Z" transform="translate(-7.62 -81.04)"/><path id="Path_109577" data-name="Path 109577" class="cls-30" d="M242,274.13H178.63c-1.84,0-3.13-1.88-2.84-4.2,1.79-3.19,2.94-52.69,9.68-51.27h63.36c1.84,0,3.13,1.88,2.84,4.2C249.88,226.05,248.73,275.55,242,274.13Z" transform="translate(-7.62 -81.04)"/><path id="Path_109578" data-name="Path 109578" class="cls-29" d="M222.75,276.87c.1,2.43.08,6.39-3.12,6.68H153.92c-3.18-.29-3.24-4.25-3.12-6.68Z" transform="translate(-7.62 -81.04)"/><rect id="Rectangle_19852" data-name="Rectangle 19852" class="cls-31" x="143.18" y="195.83" width="71.95" height="2.26"/><path id="Path_109579" data-name="Path 109579" class="cls-30" d="M243.65,276.87c.1,2.43.08,6.39-3.12,6.68H174.82c-3.18-.29-3.23-4.25-3.12-6.68Z" transform="translate(-7.62 -81.04)"/><rect id="Rectangle_19853" data-name="Rectangle 19853" class="cls-11" x="164.08" y="195.83" width="71.95" height="2.26"/><path id="Path_109580" data-name="Path 109580" class="cls-2" d="M218.37,246.4c-.1,6.55-10.26,8.23-9.27,0C209.19,239.84,219.36,238.15,218.37,246.4Z" transform="translate(-7.62 -81.04)"/></g><path id="Path_109581" data-name="Path 109581" class="cls-16" d="M110.2,155.52a6.38,6.38,0,0,1,5.33,3l-3.93,16C102,176.08,100.88,155.69,110.2,155.52Z" transform="translate(-7.62 -81.04)"/><g id="Group_14392" data-name="Group 14392"><path id="Path_109582" data-name="Path 109582" class="cls-16" d="M169,168.64c15.84-6.09,7.66,23.42-3.83,16Z" transform="translate(-7.62 -81.04)"/><path id="Path_109583" data-name="Path 109583" class="cls-23" d="M178.12,178.19a11.63,11.63,0,0,0,.71-1.41c-.87,5.91-8.19,11.75-12.71,8.19l.5-2.11A9.44,9.44,0,0,0,178.12,178.19Z" transform="translate(-7.62 -81.04)"/><path id="Path_109584" data-name="Path 109584" class="cls-24" d="M168.46,180.71c1.2-2.69-.13-6.32,2.21-8.61,2.26-2.85,7.45.59,5.09,3.42-.25-5.76-6.23-2.5-5.36,1.93,2.18-.63,3.24,3.48,1.07,3.51-.1-.89,0-2.23-1.19-2.6-.15,1.83-1.41,4.67-3.58,4.25C166.64,182.4,167.78,182.2,168.46,180.71Z" transform="translate(-7.62 -81.04)"/></g><path id="Path_109585" data-name="Path 109585" class="cls-23" d="M104.06,161.35a10.81,10.81,0,0,0,8,11.09l-.5,2.05C105.94,175.58,102.11,167,104.06,161.35Z" transform="translate(-7.62 -81.04)"/><path id="Path_109586" data-name="Path 109586" class="cls-16" d="M114.47,148.47c-.73,10.19-3.52,25.09-4.32,35.23.36,9.41,11.13,21.29,19.23,25.57,9.76,1.58,15.28,4.9,23.31-3.34,10.72-4.64,12.85-18.6,16.3-28.39,1.41-6.29,8.32-19.3,5.42-25.82C166.38,137,118.88,126.51,114.47,148.47Z" transform="translate(-7.62 -81.04)"/><path id="Path_109587" data-name="Path 109587" class="cls-24" d="M107.6,158.79c9.68-2.19,1.12,9.71,3.53,13.18-2.12-.62-1.93-3.72-1.24-5.42-1.24-.24-1.73,1-2.24,1.77-1.93-1,.92-4.21,2.57-2.63,2.82-3.57-1-9.16-3.89-4.18C105.81,160.83,106.78,159.18,107.6,158.79Z" transform="translate(-7.62 -81.04)"/><path id="Path_109588" data-name="Path 109588" class="cls-10" d="M116.86,127.86c6.3-7.18,16.25-10.29,25.61-10.08a15.57,15.57,0,0,0-5.25-1.41c3-1.83,7-.92,9.93.6a13.52,13.52,0,0,1,3.83-1.64,13.78,13.78,0,0,0-1,1.91c2.22-.75,5.11-.62,6.92,1a12.09,12.09,0,0,0-4.32.82c26.72,5.49,29.3,28.33,21.34,50.51-1.5-30.46-11.19-29.26-37-24.67,1.74-.55,3.55-1.25,5.39-2-7.84,1-15.6,1.62-22.58-2.25-2.35,2.45-4.26,14.46-5.3,17.65a6.47,6.47,0,0,0-5.07-3C110.44,147.06,110.46,134.17,116.86,127.86Z" transform="translate(-7.62 -81.04)"/><path id="Path_109589" data-name="Path 109589" class="cls-24" d="M138.34,178.92c11.85,5.62,11.94-5.26,12-16.13C162.27,198.15,127.19,179.28,138.34,178.92Z" transform="translate(-7.62 -81.04)"/><path id="Path_109590" data-name="Path 109590" class="cls-24" d="M169.25,169.38c-7.94-4.7-21.16-14.79-19.07-1.25C156.84,164,164.9,171,169.25,169.38Z" transform="translate(-7.62 -81.04)"/><path id="Path_109591" data-name="Path 109591" class="cls-24" d="M122.57,161.13c8.17-1.44,14.91-2.61,20.09-.61-.35,1-.08,5.36-1.06,6C136.78,160.27,126.1,164.17,122.57,161.13Z" transform="translate(-7.62 -81.04)"/><g id="Group_14393" data-name="Group 14393" class="cls-25"><path id="Path_109592" data-name="Path 109592" class="cls-20" d="M138.75,137.35c-3.74.46-8.59-.48-9.95-4.49,6.94,5.53,16.6-4.2,23.73,1.46a32.13,32.13,0,0,0-11.39,2.53c5.74-1.19,11.47-2.2,17.13.16-11.58,0-26.16,10.05-36.17.14A27.82,27.82,0,0,0,138.75,137.35Z" transform="translate(-7.62 -81.04)"/><path id="Path_109593" data-name="Path 109593" class="cls-20" d="M138.31,119.84a30.75,30.75,0,0,0-26.4,25.41A25.39,25.39,0,0,1,138.31,119.84Z" transform="translate(-7.62 -81.04)"/><path id="Path_109594" data-name="Path 109594" class="cls-20" d="M113,149.36a24.11,24.11,0,0,1,8.6-19.57A90.79,90.79,0,0,0,113,149.36Z" transform="translate(-7.62 -81.04)"/><path id="Path_109595" data-name="Path 109595" class="cls-20" d="M176.09,151a34.59,34.59,0,0,0-7.63-21.49A19.28,19.28,0,0,1,176.09,151Z" transform="translate(-7.62 -81.04)"/></g><g id="Group_14394" data-name="Group 14394" class="cls-26"><path id="Path_109596" data-name="Path 109596" class="cls-2" d="M139.47,177.94c3,1.36,4.19-12.37,5.33-14.65C144.23,166.38,136.06,176.15,139.47,177.94Z" transform="translate(-7.62 -81.04)"/></g><g id="Group_14395" data-name="Group 14395"><path id="Path_109597" data-name="Path 109597" class="cls-27" d="M154.63,169.78c-1.56,4.62,5.74,7,7.17,2.31C163.42,167.49,155.87,165,154.63,169.78Z" transform="translate(-7.62 -81.04)"/><path id="Path_109598" data-name="Path 109598" class="cls-10" d="M156.33,170.08c-.61,2.53,3.39,3.43,3.92.88S156.83,167.5,156.33,170.08Z" transform="translate(-7.62 -81.04)"/><path id="Path_109599" data-name="Path 109599" class="cls-2" d="M159.17,171.8a.71.71,0,0,0,.58.81.69.69,0,0,0,.81-.57h0a.69.69,0,0,0-.57-.81.7.7,0,0,0-.81.57Z" transform="translate(-7.62 -81.04)"/><path id="Path_109600" data-name="Path 109600" class="cls-2" d="M156,168.28a1,1,0,0,0,1.95.35h0a1,1,0,0,0-1.95-.35Z" transform="translate(-7.62 -81.04)"/></g><path id="Path_109601" data-name="Path 109601" class="cls-10" d="M150.35,164.71c6.3-1.86,13,.55,17.46,5.64C180,174.85,149.92,148.33,150.35,164.71Z" transform="translate(-7.62 -81.04)"/><g id="Group_14396" data-name="Group 14396"><path id="Path_109602" data-name="Path 109602" class="cls-27" d="M132.29,164.79c-1.56,4.63,5.74,7,7.17,2.31C141.08,162.5,133.52,160,132.29,164.79Z" transform="translate(-7.62 -81.04)"/><path id="Path_109603" data-name="Path 109603" class="cls-10" d="M134,165.09c-.61,2.53,3.38,3.43,3.92.88S134.48,162.51,134,165.09Z" transform="translate(-7.62 -81.04)"/><path id="Path_109604" data-name="Path 109604" class="cls-2" d="M136.83,166.81a.71.71,0,1,0,1.39.25h0a.71.71,0,0,0-1.39-.25Z" transform="translate(-7.62 -81.04)"/><path id="Path_109605" data-name="Path 109605" class="cls-2" d="M133.4,163.26a1,1,0,1,0,2,.36h0a1,1,0,0,0-2-.36Z" transform="translate(-7.62 -81.04)"/></g><path id="Path_109606" data-name="Path 109606" class="cls-10" d="M142.74,164c-5-4.31-12-4.86-18.23-2.06C111.57,161,149.89,149.26,142.74,164Z" transform="translate(-7.62 -81.04)"/><path id="Path_109607" data-name="Path 109607" class="cls-2" d="M80.65,209.4a192.1,192.1,0,0,0,4.4,22.16c.76-.62,7.84-10.43,8.67-10.94-5.27-19.72,3.22-50.81,23.07-58.47,6.31-21,11.84-14.66,28.68-9,7.94-1,20.25-.66,25.89,5.85,1.87,3.45-1.44,8.66.16,12.22,4.29,5.38,4.61,10.87,3,17.69,3.33,18.58-2.51,35.6-14.28,50.65.59.77,1,4.55,1.54,5.38,2.87-5.33,10.52-16.07,12.76-21,7.13-15.68.59-29.55,4.56-46.36,1.4-6-2.26-11.55.73-22.71,10.52-34.22-28.45-45-52.61-38.92-23.1,4.42-17,30.33-26.57,47.78C98.69,180.86,79.31,192.23,80.65,209.4Z" transform="translate(-7.62 -81.04)"/><path id="Path_109608" data-name="Path 109608" class="cls-17" d="M176.39,146c-2.82,4.73-2.47,8.7.17,13.23.56,3.07-2.09,6.11-1.29,9.12.62,2.1,2.84,3.89,1.91,6.24-.53-2.93-3.39-4.13-3.86-7.16-1.63-3,1.13-6.58-.14-9.75-1-2.44-6.08-4.07-6.9-6.56-1-7.65,7.94-13.79,4.18-22C174.89,133.39,178.35,139.75,176.39,146Z" transform="translate(-7.62 -81.04)"/><path id="Path_109609" data-name="Path 109609" class="cls-17" d="M153.08,147.51c2-2.76,1.16-6.67,2.77-9.64,2.63-3.37,5.44-7.2,3.88-11.7-1.4,5.72-8.24,6.59-10.81,11.51-1,5.26-3,10.58-9.2,11.14C144,150.44,149.85,151.68,153.08,147.51Z" transform="translate(-7.62 -81.04)"/><path id="Path_109610" data-name="Path 109610" class="cls-17" d="M124.16,137.05c-.59,5-3.82,8.42-6.82,12.11-2.38,6.65-4.46,14.08-12.72,15.08,14.54-12.63-.29-28,26.32-36.87A19.47,19.47,0,0,0,124.16,137.05Z" transform="translate(-7.62 -81.04)"/><path id="Path_109611" data-name="Path 109611" class="cls-17" d="M146.35,134.48c-3.29,2.83-5.15,8.81-.9,11.65,3.8-2,3.24-6.69,4.47-10.17,1.15-3,4-6.06,2.24-9.41C151.87,130.11,148.71,132.19,146.35,134.48Z" transform="translate(-7.62 -81.04)"/><path id="Path_109612" data-name="Path 109612" class="cls-10" d="M180.84,156.75c-23.53-7.76-48-12.57-72.86-12.86a2.73,2.73,0,0,1-2.71-2.76C105.28,132.25,198.35,148.58,180.84,156.75Z" transform="translate(-7.62 -81.04)"/><path id="Path_109613" data-name="Path 109613" class="cls-10" d="M181.73,151.79c-23.53-7.76-48-12.57-72.86-12.86a2.74,2.74,0,0,1-2.71-2.76c.06-8.88,93.06,7.45,75.57,15.62Z" transform="translate(-7.62 -81.04)"/><path id="Path_109614" data-name="Path 109614" class="cls-10" d="M140.8,184.8c-21.66-6.23-29,24.53-5.13,30C156.26,218.58,162,185.11,140.8,184.8Zm-2.4,13.92c-7.93,6.69-14.38-4.33-9.23-8.39,7.39-3.24,29.45,1.5,19.85,12.43h0a5,5,0,0,1-4.75.34c-1.44-.77-.79-3.43-2.4-3.65Z" transform="translate(-7.62 -81.04)"/><g id="Group_14397" data-name="Group 14397"><path id="Path_109615" data-name="Path 109615" class="cls-16" d="M214,277.48c-3.68-.86-5.94,9.84-1.46,9.4C216.19,287.68,218.42,277.1,214,277.48Z" transform="translate(-7.62 -81.04)"/><path id="Path_109616" data-name="Path 109616" class="cls-16" d="M219.62,277.5c-3.94-.53-3.48,5.83-4.09,8.14-.2,1.25.95,2.28,2.48,2.25,3.89.47,3.43-5.85,4-8.14C222.24,278.5,221.15,277.51,219.62,277.5Z" transform="translate(-7.62 -81.04)"/><path id="Path_109617" data-name="Path 109617" class="cls-16" d="M225.23,277.52c-3.67-1.09-6,11-1.56,10.17C227.28,288.72,229.65,276.85,225.23,277.52Z" transform="translate(-7.62 -81.04)"/><path id="Path_109618" data-name="Path 109618" class="cls-16" d="M230.44,278.06c-3.3-.67-5.29,8.63-1.3,8.34C232.38,287,234.35,277.84,230.44,278.06Z" transform="translate(-7.62 -81.04)"/></g></g><g id="Group_14400" data-name="Group 14400"><path id="Path_109619" data-name="Path 109619" class="cls-24" d="M144.48,197.34c-2.34,3.74-9.45.31-9.25-2.31.21-.52,1.86,1.07,4.38,1.67S144.55,196.75,144.48,197.34Z" transform="translate(-7.62 -81.04)"/><g id="Group_14399" data-name="Group 14399"><path id="Path_109620" data-name="Path 109620" class="cls-28" d="M150.42,194.73c-.94,1.86-12.85-.29-16.06-2.49,1.16.94-1.29-1.25-1.12-1.53,1.47-1.66,5.4,1.54,7.13,1.53C142.54,193.42,152.2,194,150.42,194.73Z" transform="translate(-7.62 -81.04)"/></g></g></g><g id="Group_14404" data-name="Group 14404"><path id="f17c58cd-37a1-42e1-9e5f-26c2ec8825b4" class="cls-1" d="M274.48,132.38c13.46-.2,13.46,20.93,0,20.74C261,153.31,261,132.18,274.48,132.38Z" transform="translate(-7.62 -81.04)"/><path id="b803193f-4714-40c6-8606-08b9dea6d22d" class="cls-3" d="M291.8,146.45l-.26-.39,8.54-5.69,5.86,2.81,8.42-5.38L331.13,145l13.34-6.56,13,5.26,16-18.19.31.35-16.21,18.38-13-5.29-13.35,6.56-16.73-7.15L306,143.7l-5.85-2.81Z" transform="translate(-7.62 -81.04)"/><path id="Path_109715" data-name="Path 109715" class="cls-2" d="M270.31,142.87a.61.61,0,0,0,.88,0h0l2.67-2.67c-.56,9.63,1.81,9.54,1.24,0,.46.39,4.23,4.84,3.56,1.79h0c-.59-.2-3.85-4.75-4.61-3.73-.21.56-4.76,3.86-3.73,4.61Z" transform="translate(-7.62 -81.04)"/></g></g></svg>