<svg xmlns="http://www.w3.org/2000/svg" xmlns:xlink="http://www.w3.org/1999/xlink" width="265.611" height="137.8" viewBox="0 0 265.611 137.8">
  <defs>
    <style>
      .cls-1 {
        fill: #f2f2f2;
      }

      .cls-2 {
        fill: #6c63ff;
      }

      .cls-2, .cls-4, .cls-5 {
        opacity: 0.1;
      }

      .cls-3 {
        fill: #4579f7;
      }

      .cls-4, .cls-7 {
        fill: #fff;
      }

      .cls-6 {
        fill: #3763ce;
      }

      .cls-8 {
        fill: #3f3d56;
      }

      .cls-9 {
        fill: #1d1d1b;
      }

      .cls-25, .cls-9 {
        opacity: 0.2;
      }

      .cls-10 {
        fill: #3c3c3b;
      }

      .cls-11 {
        fill: #575756;
      }

      .cls-12 {
        fill: #878787;
      }

      .cls-13 {
        fill: #634e42;
      }

      .cls-14 {
        fill: #f2be8a;
      }

      .cls-15 {
        fill: #ffcf9f;
      }

      .cls-16 {
        fill: #ffc994;
      }

      .cls-17 {
        fill: #ededed;
      }

      .cls-18 {
        fill: #ca9e67;
      }

      .cls-19 {
        fill: #f5c08c;
      }

      .cls-20, .cls-26 {
        fill: #dadada;
      }

      .cls-21 {
        fill: #deab7d;
      }

      .cls-22 {
        fill: #f6f6f6;
      }

      .cls-23 {
        fill: #f2bb88;
      }

      .cls-24 {
        fill: #dba97b;
      }

      .cls-26 {
        mix-blend-mode: screen;
        isolation: isolate;
      }

      .cls-27 {
        opacity: 0.3;
      }

      .cls-28 {
        fill: #936037;
      }

      .cls-29 {
        fill: #c4986e;
      }

      .cls-30 {
        fill: #968282;
      }

      .cls-31 {
        fill: #c4a9a9;
      }

      .cls-32 {
        fill: #2e2e27;
      }

      .cls-33 {
        filter: url(#Path_109518);
      }
    </style>
    <filter id="Path_109518" x="196.057" y="2.428" width="47.054" height="56.46" filterUnits="userSpaceOnUse">
      <feOffset dy="3" input="SourceAlpha"/>
      <feGaussianBlur stdDeviation="3" result="blur"/>
      <feFlood flood-opacity="0.161"/>
      <feComposite operator="in" in2="blur"/>
      <feComposite in="SourceGraphic"/>
    </filter>
  </defs>
  <g id="Group_16732" data-name="Group 16732" transform="translate(-60.655 -1035.802)">
    <path id="Path_109875" data-name="Path 109875" class="cls-1" d="M-8839.34,1755.607c3.129-3.242,8.372-33.909,36.484-24.99s38.878,43.5,31.322,47.234-7.188,11.565-26.318,10.032-26.417-2.839-35.969-3.757-15.8,3.986-11.439-6.274,13.81-11.227,16.18-15.1S-8839.34,1755.607-8839.34,1755.607Z" transform="translate(8907.333 -657.817)"/>
    <path id="Path_109621" data-name="Path 109621" class="cls-2" d="M122.028,218.2c2.992-.171,6.7-2.2,9.591-3.1q5.125-1.59,10.29-3.059,17.982-5.117,36.349-8.719,1.714-.337,3.434-.658a24.3,24.3,0,0,0-8.023-9.636,24.653,24.653,0,0,0,.135-2.543,24.135,24.135,0,0,0-23.965-24.3,23.583,23.583,0,0,0-11.63,3.053c-9.369-6.163-21.6-9.893-34.977-9.893-19.012,0-35.7,7.532-45.159,18.874l44.447,7.509,27.26,4.6c-31.077.927-62.25,1.849-93.237-.328A24.563,24.563,0,0,0,33.006,221h0c0,.486.02.968.057,1.446.789.226,1.552.445,2.235.589q16.465,3.478,33.141,5.822c-8.193,5.051-18.17,5.766-27.62,7.906a27.694,27.694,0,0,0,17.639,6.093H160.425c11.041,0,19.991-7.686,19.991-17.169h0a24.4,24.4,0,0,0,3.249-8.921C163.235,218.741,142.549,217.028,122.028,218.2Z" transform="translate(142.461 923.544)"/>
    <path id="Path_109622" data-name="Path 109622" class="cls-1" d="M182.872,211.087a24.371,24.371,0,0,0-10.29-19.96,25.009,25.009,0,0,0,.135-2.541,24.135,24.135,0,0,0-23.965-24.3,23.6,23.6,0,0,0-11.632,3.052c-9.369-6.166-21.6-9.9-34.979-9.9-21.763,0-40.5,9.877-48.8,24.04-.462-.027-.926-.042-1.395-.042a24.138,24.138,0,0,0-23.965,24.3A24.442,24.442,0,0,0,31.922,219.1h0c0,12.077,11.4,21.867,25.454,21.867h101.97c11.04,0,19.989-7.688,19.989-17.171h0A24.441,24.441,0,0,0,182.872,211.087Z" transform="translate(143.395 926.186)"/>
    <g id="Group_14525" data-name="Group 14525" transform="translate(15.32 11.032)">
      <path id="Path_109652" data-name="Path 109652" class="cls-3" d="M652.731,372.81l-.07.937a19.484,19.484,0,0,1-2.047,6.7,19,19,0,0,1-10.19,9.214q-.662.262-1.374.488l-.53-1.662a19.442,19.442,0,0,0,3.82-1.671,16.9,16.9,0,0,0,6.687-7.1,19.061,19.061,0,0,0,1.755-5.162h-6.434V372.81Z" transform="translate(-416.254 738.053)"/>
      <path id="Path_109653" data-name="Path 109653" class="cls-4" d="M643.967,389.677a19,19,0,0,0,10.189-9.213,19.447,19.447,0,0,0,2.047-6.7l.07-.937h.718l-.07.937a19.458,19.458,0,0,1-2.047,6.7,19,19,0,0,1-10.189,9.213q-.662.262-1.375.49l-.07-.219Q643.612,389.816,643.967,389.677Z" transform="translate(-420.49 738.035)"/>
      <path id="Path_109654" data-name="Path 109654" class="cls-3" d="M415.731,388.484l-.53,1.662q-.713-.228-1.375-.489a19,19,0,0,1-10.189-9.213,19.443,19.443,0,0,1-2.047-6.7l-.07-.937h8.38v1.745h-6.435a19.076,19.076,0,0,0,1.76,5.162,16.894,16.894,0,0,0,6.686,7.1A19.4,19.4,0,0,0,415.731,388.484Z" transform="translate(-203.575 738.053)"/>
      <path id="Path_109655" data-name="Path 109655" class="cls-4" d="M414.285,389.677a19,19,0,0,1-10.189-9.213,19.446,19.446,0,0,1-2.047-6.7l-.07-.937h-.718l.07.937a19.457,19.457,0,0,0,2.047,6.7,19,19,0,0,0,10.189,9.213q.662.262,1.375.49l.07-.219Q414.641,389.816,414.285,389.677Z" transform="translate(-203.342 738.035)"/>
      <path id="Path_109656" data-name="Path 109656" class="cls-3" d="M514.282,576.259v9.407H494.92v-9.407l.616-.821c6.274-2.227,7.546-8.034,7.8-10.332a9.434,9.434,0,0,0,.065-.956h2.394a9.434,9.434,0,0,0,.065.956c.258,2.3,1.529,8.107,7.8,10.332Z" transform="translate(-287.39 566.348)"/>
      <rect id="Rectangle_19854" data-name="Rectangle 19854" class="cls-5" width="19.362" height="1.18" transform="translate(207.53 1142.608)"/>
      <path id="Path_109657" data-name="Path 109657" class="cls-4" d="M496.562,575.438c6.274-2.227,7.546-8.034,7.8-10.332a9.452,9.452,0,0,0,.065-.956H503.4a9.417,9.417,0,0,1-.065.956c-.258,2.3-1.529,8.107-7.8,10.332l-.616.821v9.407h1.026v-9.407Z" transform="translate(-287.39 566.348)"/>
      <path id="Path_109658" data-name="Path 109658" class="cls-5" d="M466.26,372.81H468v1.745h-1.582Q466.321,373.693,466.26,372.81Z" transform="translate(-261.671 738.053)"/>
      <path id="Path_109659" data-name="Path 109659" class="cls-5" d="M506.591,510.932l-.53,1.663q-.713-.228-1.375-.49a18.386,18.386,0,0,1-1.916-2.845A19.4,19.4,0,0,0,506.591,510.932Z" transform="translate(-294.435 615.606)"/>
      <path id="Path_109660" data-name="Path 109660" class="cls-5" d="M638.51,510.941a19.441,19.441,0,0,0,3.82-1.671,18.457,18.457,0,0,1-1.916,2.846q-.662.262-1.374.488Z" transform="translate(-416.245 615.597)"/>
      <path id="Path_109662" data-name="Path 109662" class="cls-5" d="M579.484,565.107a6.635,6.635,0,0,1-2.523,0,9.454,9.454,0,0,0,.065-.956h2.394A9.455,9.455,0,0,0,579.484,565.107Z" transform="translate(-361.011 566.349)"/>
      <path id="Path_109663" data-name="Path 109663" class="cls-3" d="M468.26,344.65c.044,12.937,5.586,23.4,12.417,23.4s12.372-10.461,12.417-23.4Z" transform="translate(-263.466 763.323)"/>
      <path id="Path_109664" data-name="Path 109664" class="cls-4" d="M470.466,344.65H468.26c.044,12.937,5.586,23.4,12.417,23.4a6.709,6.709,0,0,0,1.1-.093C475.465,366.9,470.509,356.883,470.466,344.65Z" transform="translate(-263.466 763.323)"/>
      <rect id="Rectangle_19855" data-name="Rectangle 19855" class="cls-6" width="13.169" height="3.387" transform="translate(210.626 1146.209)"/>
      <path id="Path_109665" data-name="Path 109665" class="cls-4" d="M497.706,593.962h12.554V593.5H497.09v3.387h.616Z" transform="translate(-286.464 552.709)"/>
    </g>
    <path id="Path_109711" data-name="Path 109711" class="cls-2" d="M850.359,123.755s-11.4-.688-10.058,7.3a1.941,1.941,0,0,0,1.013,2.053s.02-.592,1.17-.39a5.346,5.346,0,0,0,1.239.06,2.581,2.581,0,0,0,1.514-.626h0s3.2-1.324,4.45-6.561c0,0,.922-1.143.885-1.437l-1.924.822a3.43,3.43,0,0,1,.135,2.541s-.062-2.491-.432-2.437c-.074.012-1,.481-1,.481s1.13,2.417.278,4.174c0,0,.324-2.979-.631-4l-1.354.791s1.321,2.5.425,4.534c0,0,.23-3.125-.711-4.342l-1.227.957s1.241,2.461.485,4.151c0,0-.1-3.638-.75-3.913a7.539,7.539,0,0,0-1.237,1.335s.85,1.787.322,2.73c0,0-.324-2.424-.589-2.437a8.047,8.047,0,0,0-1.181,2.708,5.835,5.835,0,0,1,.922-2.859,3.223,3.223,0,0,0-1.638.848s.167-1.135,1.9-1.233a7.5,7.5,0,0,1,1.12-1.293,7.045,7.045,0,0,0-2.772.32s.921-1.071,3.088-.584l1.212-.99a10.029,10.029,0,0,0-3.236.033s1.109-.948,3.562-.257l1.319-.788a12.1,12.1,0,0,0-3.091-.271,4.741,4.741,0,0,1,3.478.056l.948-.424s-1.419-.279-1.835-.324-.437-.158-.437-.158a4.921,4.921,0,0,1,2.666.3A11.926,11.926,0,0,0,850.359,123.755Z" transform="translate(-558.85 954.323)"/>
    <path id="Path_109712" data-name="Path 109712" class="cls-2" d="M782.129,138.817s-5.145-.311-4.542,3.3a.883.883,0,0,0,.456.929s.009-.271.529-.177a2.372,2.372,0,0,0,.559.027,1.16,1.16,0,0,0,.684-.283h0a4.083,4.083,0,0,0,2.012-2.964s.416-.517.4-.65l-.869.371a1.558,1.558,0,0,1,.064,1.149s-.028-1.126-.2-1.1c-.034,0-.452.217-.452.217a2.57,2.57,0,0,1,.126,1.887s.146-1.346-.286-1.808l-.612.357a2.694,2.694,0,0,1,.192,2.049,3.837,3.837,0,0,0-.321-1.962l-.554.437a2.648,2.648,0,0,1,.219,1.875s-.045-1.644-.34-1.767a3.4,3.4,0,0,0-.559.6s.384.812.146,1.232c0,0-.146-1.1-.271-1.1a3.673,3.673,0,0,0-.533,1.219,2.647,2.647,0,0,1,.417-1.293,1.456,1.456,0,0,0-.741.383s.076-.512.86-.558a3.706,3.706,0,0,1,.506-.584,3.175,3.175,0,0,0-1.252.145,1.415,1.415,0,0,1,1.4-.271l.542-.447a4.671,4.671,0,0,0-1.462.015,1.78,1.78,0,0,1,1.61-.116l.6-.356a5.355,5.355,0,0,0-1.4-.121,2.138,2.138,0,0,1,1.572.024l.426-.191s-.642-.127-.83-.146-.2-.072-.2-.072a2.219,2.219,0,0,1,1.2.135A5.463,5.463,0,0,0,782.129,138.817Z" transform="translate(-504.679 941.294)"/>
    <path id="Path_109300" data-name="Path 109300" class="cls-1" d="M270.333,462.151v.122a4.223,4.223,0,0,1-4.223,4.223H218.433a4.223,4.223,0,0,1-4.223-4.222v-.122Z" transform="translate(-72.729 601.123)"/>
    <path id="Path_109302" data-name="Path 109302" class="cls-1" d="M905.069,572.97a3.026,3.026,0,1,1,4.148-3.455l-1.762-12.6c-.4-2.9-.729-6.136,1.022-8.48a6.6,6.6,0,0,1,7.414-1.953,9.08,9.08,0,0,1,5.278,5.919,14.806,14.806,0,0,1-.088,8.111,41.671,41.671,0,0,1-3.11,7.592c-1.24,2.519-2.743,5.248-5.393,6.175C910.048,575.163,905.069,572.97,905.069,572.97Z" transform="translate(-762.52 598.718)"/>
    <path id="Path_109303" data-name="Path 109303" class="cls-7" d="M933.461,545.372a34.354,34.354,0,0,1,1.631,11.186,35.3,35.3,0,0,1-2.009,11.078,33.68,33.68,0,0,1-2.71,5.816.381.381,0,0,0,.658.385,35.021,35.021,0,0,0,4.1-10.75,35.942,35.942,0,0,0,.46-11.558,34.73,34.73,0,0,0-1.4-6.36C934.046,544.7,933.31,544.9,933.461,545.372Z" transform="translate(-782.636 599.588)"/>
    <path id="Path_109321" data-name="Path 109321" class="cls-8" d="M518.65,384.068a2.426,2.426,0,0,1-1.819-.68c-.989-1.021-.927-2.987-.878-4.568.015-.46.028-.894.014-1.258v-.005a2.7,2.7,0,0,1,2.684-2.685h6.381a2.425,2.425,0,0,1,1.817.68c.989,1.02.928,2.986.879,4.566-.014.461-.028.9-.014,1.261a2.7,2.7,0,0,1-2.685,2.691Zm-2.415-6.514c.014.372,0,.81-.014,1.274-.048,1.53-.108,3.434.8,4.373a2.142,2.142,0,0,0,1.627.6h6.379a2.43,2.43,0,0,0,2.417-2.418c-.014-.368,0-.808.014-1.274.048-1.53.107-3.433-.8-4.371a2.14,2.14,0,0,0-1.625-.6h-6.381A2.43,2.43,0,0,0,516.236,377.554Z" transform="translate(-334.014 676.707)"/>
    <path id="Path_109324" data-name="Path 109324" class="cls-3" d="M530.86,389.991h-2.68a.67.67,0,1,1,0-1.34h2.68a.67.67,0,1,1,0,1.34Z" transform="translate(-344.044 664.773)"/>
    <path id="Path_109325" data-name="Path 109325" class="cls-3" d="M530.86,405.991h-2.68a.67.67,0,0,1,0-1.34h2.68a.67.67,0,1,1,0,1.34Z" transform="translate(-344.044 650.917)"/>
    <path id="Path_109326" data-name="Path 109326" class="cls-3" d="M530.86,421.991h-2.68a.67.67,0,1,1,0-1.34h2.68a.67.67,0,1,1,0,1.34Z" transform="translate(-344.044 637.061)"/>
    <path id="Path_109327" data-name="Path 109327" class="cls-3" d="M565.861,389.991h-2.68a.67.67,0,1,1,0-1.34h2.68a.67.67,0,0,1,0,1.34Z" transform="translate(-374.353 664.773)"/>
    <path id="Path_109328" data-name="Path 109328" class="cls-3" d="M565.861,405.991h-2.68a.67.67,0,1,1,0-1.34h2.68a.67.67,0,0,1,0,1.34Z" transform="translate(-374.353 650.917)"/>
    <path id="Path_109329" data-name="Path 109329" class="cls-3" d="M565.861,421.991h-2.68a.67.67,0,1,1,0-1.34h2.68a.67.67,0,0,1,0,1.34Z" transform="translate(-374.353 637.061)"/>
    <rect id="Rectangle_19841" data-name="Rectangle 19841" class="cls-8" width="56.122" height="0.268" transform="translate(141.482 1045.242)"/>
    <path id="Path_109330" data-name="Path 109330" class="cls-8" d="M264.871,289.045H217.433a4.427,4.427,0,0,1-4.422-4.422V261.573a4.427,4.427,0,0,1,4.422-4.422h47.439a4.427,4.427,0,0,1,4.422,4.422v23.049A4.427,4.427,0,0,1,264.871,289.045Zm-47.439-31.626a4.159,4.159,0,0,0-4.154,4.154v23.049a4.159,4.159,0,0,0,4.154,4.154h47.439a4.159,4.159,0,0,0,4.154-4.154V261.573a4.159,4.159,0,0,0-4.154-4.154Z" transform="translate(-71.689 778.651)"/>
    <g id="Group_14402" data-name="Group 14402" transform="translate(240.516 1044.23)">
      <g id="Group_14381" data-name="Group 14381">
        <path id="Path_109428" data-name="Path 109428" class="cls-9" d="M229.084,427.155c0,2.275-9.432,4.119-21.067,4.119s-21.067-1.844-21.067-4.119,9.432-4.119,21.067-4.119S229.084,424.88,229.084,427.155Z" transform="translate(-168.53 -309.102)"/>
        <g id="Group_14364" data-name="Group 14364" transform="translate(28.763 64.196)">
          <path id="Path_109429" data-name="Path 109429" class="cls-10" d="M215.4,354.443a27.159,27.159,0,0,1-4.022-.176,7.249,7.249,0,0,1-6.226-5.723,42.489,42.489,0,0,1-.8-9.166,46.109,46.109,0,0,0,11.045,1.9,46.1,46.1,0,0,0,11.045-1.9,42.453,42.453,0,0,1-.8,9.166,7.247,7.247,0,0,1-6.226,5.723A27.159,27.159,0,0,1,215.4,354.443Z" transform="translate(-204.346 -339.379)"/>
          <g id="Group_14363" data-name="Group 14363" transform="translate(0.001)">
            <path id="Path_109430" data-name="Path 109430" class="cls-11" d="M215.4,341.275a46.109,46.109,0,0,1-11.045-1.9q-.012,1.062.018,2.114a46.07,46.07,0,0,0,11.027,1.892,46.065,46.065,0,0,0,11.027-1.892q.029-1.051.018-2.114A46.1,46.1,0,0,1,215.4,341.275Z" transform="translate(-204.347 -339.379)"/>
            <rect id="Rectangle_19846" data-name="Rectangle 19846" class="cls-12" width="2.959" height="2.192" transform="translate(9.569 1.814)"/>
            <path id="Path_109431" data-name="Path 109431" class="cls-10" d="M208.309,342.651h-.624v-2.379l.624.153Z" transform="translate(-205.701 -339.741)"/>
            <path id="Path_109432" data-name="Path 109432" class="cls-10" d="M237.125,342.651h.625v-2.379l-.625.153Z" transform="translate(-217.637 -339.741)"/>
            <path id="Path_109433" data-name="Path 109433" class="cls-10" d="M214.372,343.982h-.624V341.6l.624.089Z" transform="translate(-208.159 -340.281)"/>
            <path id="Path_109434" data-name="Path 109434" class="cls-10" d="M231.064,343.982h.624V341.6l-.624.089Z" transform="translate(-215.179 -340.281)"/>
          </g>
        </g>
        <g id="Group_14369" data-name="Group 14369" transform="translate(25.419 69.549)">
          <g id="Group_14366" data-name="Group 14366" transform="translate(0 45.213)">
            <path id="Path_109435" data-name="Path 109435" class="cls-10" d="M213.108,431.009a5.622,5.622,0,0,0,2.808-.289v-.649l-2.962-.368Z" transform="translate(-204.492 -426.567)"/>
            <g id="Group_14365" data-name="Group 14365">
              <path id="Path_109436" data-name="Path 109436" class="cls-10" d="M210.146,429.631c-5.263,1.4-9.174,1.567-11.355.762l-.069-.824,11.339-.951Z" transform="translate(-198.721 -426.126)"/>
              <path id="Path_109437" data-name="Path 109437" class="cls-13" d="M210.085,427.23c-1.662,1.022-10.43,1.621-11.362.64-.047-.565.867-1.177,2.52-1.841.164-.065.334-.13.513-.2l.386-.142c.173-.062.349-.124.532-.185h0c.124-.043.253-.086.383-.13h0c.18-.059.364-.118.556-.179q.686-.218,1.449-.439C209.487,423.471,210.011,426.318,210.085,427.23Z" transform="translate(-198.721 -424.428)"/>
              <path id="Path_109438" data-name="Path 109438" class="cls-10" d="M207.619,426.715a.235.235,0,0,1-.322.058l-1.275-.877c.18-.059.364-.118.556-.179l.982.674A.233.233,0,0,1,207.619,426.715Z" transform="translate(-201.681 -424.951)"/>
              <path id="Path_109439" data-name="Path 109439" class="cls-10" d="M206.034,427.276a.228.228,0,0,1-.18.087.231.231,0,0,1-.145-.049c-.225-.183-.479-.359-.726-.528-.166-.118-.342-.241-.51-.364.173-.062.349-.124.532-.186h0c.08.056.161.115.241.17.253.173.513.355.75.546A.231.231,0,0,1,206.034,427.276Z" transform="translate(-201.054 -425.161)"/>
              <path id="Path_109440" data-name="Path 109440" class="cls-10" d="M204.476,427.825a.229.229,0,0,1-.186.093.236.236,0,0,1-.139-.047l-1.189-.886c.164-.065.334-.13.513-.2l.954.713A.232.232,0,0,1,204.476,427.825Z" transform="translate(-200.441 -425.384)"/>
            </g>
          </g>
          <g id="Group_14368" data-name="Group 14368" transform="translate(17.643 45.213)">
            <path id="Path_109441" data-name="Path 109441" class="cls-10" d="M231.2,431.009a5.621,5.621,0,0,1-2.808-.289v-.649l2.963-.368Z" transform="translate(-228.396 -426.567)"/>
            <g id="Group_14367" data-name="Group 14367">
              <path id="Path_109442" data-name="Path 109442" class="cls-10" d="M228.4,429.631c5.263,1.4,9.174,1.567,11.354.762l.07-.824-11.339-.951Z" transform="translate(-228.396 -426.126)"/>
              <path id="Path_109443" data-name="Path 109443" class="cls-13" d="M228.5,427.23c1.662,1.022,10.43,1.621,11.362.64.046-.565-.868-1.177-2.52-1.841-.164-.065-.333-.13-.512-.2-.123-.046-.253-.093-.386-.142q-.259-.093-.53-.185h0c-.124-.043-.253-.086-.383-.13h0c-.179-.059-.364-.118-.556-.179-.458-.145-.939-.291-1.449-.439C229.1,423.471,228.571,426.318,228.5,427.23Z" transform="translate(-228.437 -424.428)"/>
              <path id="Path_109444" data-name="Path 109444" class="cls-10" d="M237.6,426.715a.228.228,0,0,0,.191.1.226.226,0,0,0,.13-.04l1.276-.877c-.179-.059-.364-.118-.556-.179l-.982.674A.232.232,0,0,0,237.6,426.715Z" transform="translate(-232.109 -424.951)"/>
              <path id="Path_109445" data-name="Path 109445" class="cls-10" d="M239.2,427.276a.233.233,0,0,0,.325.038c.225-.183.479-.359.726-.528.166-.118.342-.241.509-.364q-.259-.093-.53-.186h0c-.08.056-.161.115-.241.17-.253.173-.513.355-.75.546A.23.23,0,0,0,239.2,427.276Z" transform="translate(-232.755 -425.161)"/>
              <path id="Path_109446" data-name="Path 109446" class="cls-10" d="M240.792,427.825a.229.229,0,0,0,.185.093.233.233,0,0,0,.139-.047l1.189-.886c-.163-.065-.333-.13-.513-.2l-.954.713A.232.232,0,0,0,240.792,427.825Z" transform="translate(-233.403 -425.384)"/>
            </g>
          </g>
          <path id="Path_109447" data-name="Path 109447" class="cls-10" d="M214.034,395.584c.026-.3-.121-2.15-.112-2.454.362-13.8.633-27.559.35-41.358a2.336,2.336,0,0,0-4.607-.413,32.875,32.875,0,0,0-.267,4.674c-.317,6.111-.718,12.217-1.307,18.31q-.945,9.779-1.9,19.558c0,.047-.006.093-.009.14A12.623,12.623,0,0,0,214.034,395.584Z" transform="translate(-201.744 -348.857)"/>
          <path id="Path_109448" data-name="Path 109448" class="cls-10" d="M226.241,394.415c-.027-.3.12-2.15.112-2.454-.362-13.8-.633-27.559-.35-41.358a2.336,2.336,0,0,1,4.608-.413,32.962,32.962,0,0,1,.267,4.674c.316,6.112.718,12.217,1.307,18.31q.945,9.78,1.9,19.558c0,.047.006.093.009.14A10.37,10.37,0,0,1,226.241,394.415Z" transform="translate(-209.735 -348.383)"/>
        </g>
        <g id="Group_14370" data-name="Group 14370" transform="translate(0 44.156)">
          <path id="Path_109449" data-name="Path 109449" class="cls-14" d="M168.427,314.791l-.626,4.277-3.159-.462c-.427.841-1.878.947-3.022.78l-3.018-.469a18.615,18.615,0,0,1,.109-7.031s5.016.5,5.184.571a2.517,2.517,0,0,1,1.375,1.492l.111.4Z" transform="translate(-156.919 -308.193)"/>
          <path id="Path_109450" data-name="Path 109450" class="cls-15" d="M159.263,313.558a.875.875,0,0,0,1-.721l.026-.159a.874.874,0,0,0-.721-1l-1.746-.287a.816.816,0,0,0-.938.672l-.054.327a.763.763,0,0,0,.628.876Z" transform="translate(-156.315 -307.985)"/>
          <path id="Path_109451" data-name="Path 109451" class="cls-15" d="M158.842,316.716A.874.874,0,0,0,159.86,316l.026-.158a.876.876,0,0,0-.708-1l-2.2-.4a.817.817,0,0,0-.951.671l-.054.325a.763.763,0,0,0,.617.875Z" transform="translate(-155.968 -309.223)"/>
          <path id="Path_109452" data-name="Path 109452" class="cls-15" d="M158.964,319.907a.875.875,0,0,0,1-.721l.026-.159a.874.874,0,0,0-.721-1l-1.746-.288a.817.817,0,0,0-.938.673l-.054.327a.763.763,0,0,0,.629.876Z" transform="translate(-156.194 -310.559)"/>
          <path id="Path_109453" data-name="Path 109453" class="cls-15" d="M159.622,322.821a.7.7,0,0,0,.781-.6l.021-.131a.7.7,0,0,0-.545-.823l-1.341-.221a.652.652,0,0,0-.728.564l-.045.27a.61.61,0,0,0,.475.717Z" transform="translate(-156.693 -311.902)"/>
          <path id="Path_109454" data-name="Path 109454" class="cls-16" d="M169.73,312.157l-1.354-.211-.907-.12a2.061,2.061,0,0,0-1.273-1.863c-1.411-.7-.63-3.329-.63-3.329.569-1.068-1.711-1.656-1.875.492l-.216,2.44c-.167,3.727,1.535,4.734,3.39,4.8l3.137.477Z" transform="translate(-159.007 -305.673)"/>
        </g>
        <path id="Path_109455" data-name="Path 109455" class="cls-17" d="M212.876,273.5c-.4.051-.794.1-1.194.131a39.317,39.317,0,0,1-9.064-.565c-.131-.023-.269-.04-.4-.063l-.485-.068a10.115,10.115,0,0,0-.228-1.034c-.668-2.382-2.148-4.524-2.771-6.934-1.4-5.438,1.485-9.516,1.165-15.125-.114-1.993,1.376-3.581,1.051-7.334-.526-6.192,1.313-7.671,4.769-9.5a14.576,14.576,0,0,1,7.133-1.593h.045A14.58,14.58,0,0,1,220.031,233c3.456,1.828,5.3,3.307,4.769,9.5-.326,3.753,1.165,5.341,1.051,7.334-.32,5.609,2.565,9.687,1.165,15.125-.622,2.41-2.1,4.552-2.77,6.934a10.124,10.124,0,0,0-.229,1.034l-.485.068c-.131.023-.268.04-.4.063a39.314,39.314,0,0,1-9.064.565C213.668,273.592,213.274,273.547,212.876,273.5Z" transform="translate(-173.151 -231.406)"/>
        <g id="Group_14371" data-name="Group 14371" transform="translate(76.306 44.973)">
          <path id="Path_109456" data-name="Path 109456" class="cls-18" d="M286.267,316.741a.694.694,0,1,1-.693-.693A.694.694,0,0,1,286.267,316.741Z" transform="translate(-284.542 -310.697)"/>
          <path id="Path_109457" data-name="Path 109457" class="cls-18" d="M286.225,314.444a.694.694,0,1,1-.694-.693A.694.694,0,0,1,286.225,314.444Z" transform="translate(-284.525 -309.765)"/>
          <path id="Path_109458" data-name="Path 109458" class="cls-18" d="M286.053,312.21a.694.694,0,1,1-.694-.693A.694.694,0,0,1,286.053,312.21Z" transform="translate(-284.455 -308.859)"/>
          <path id="Path_109459" data-name="Path 109459" class="cls-18" d="M285.845,309.908a.694.694,0,1,1-.694-.694A.693.693,0,0,1,285.845,309.908Z" transform="translate(-284.37 -307.926)"/>
          <path id="Path_109460" data-name="Path 109460" class="cls-18" d="M285.7,307.741a.694.694,0,1,1-.693-.694A.694.694,0,0,1,285.7,307.741Z" transform="translate(-284.311 -307.047)"/>
        </g>
        <g id="Group_14372" data-name="Group 14372" transform="translate(63.34 42.853)">
          <path id="Path_109461" data-name="Path 109461" class="cls-15" d="M281.577,310.714l0-.015a.739.739,0,0,1,.486-.926l5.742-1.793a.741.741,0,0,1,.928.486l0,.015a.74.74,0,0,1-.486.926L282.5,311.2A.741.741,0,0,1,281.577,310.714Z" transform="translate(-270.221 -305.292)"/>
          <path id="Path_109462" data-name="Path 109462" class="cls-15" d="M280.187,308.622l-.005-.013a.74.74,0,0,1,.391-.971l5.535-2.357a.74.74,0,0,1,.971.391l.006.014a.74.74,0,0,1-.391.971l-5.535,2.357A.741.741,0,0,1,280.187,308.622Z" transform="translate(-269.646 -304.188)"/>
          <path id="Path_109463" data-name="Path 109463" class="cls-15" d="M282.295,313.278l0-.014a.74.74,0,0,1,.518-.909l5.256-1.438a.741.741,0,0,1,.91.519l0,.014a.741.741,0,0,1-.52.909L283.2,313.8A.74.74,0,0,1,282.295,313.278Z" transform="translate(-270.515 -306.486)"/>
          <path id="Path_109464" data-name="Path 109464" class="cls-15" d="M282.979,315.987l0-.014a.656.656,0,0,1,.528-.765l3.882-.71a.658.658,0,0,1,.765.529l0,.013a.657.657,0,0,1-.528.765l-3.882.71A.656.656,0,0,1,282.979,315.987Z" transform="translate(-270.799 -307.945)"/>
          <path id="Path_109465" data-name="Path 109465" class="cls-19" d="M262.5,312.846l7.343-2.376c.034-.779.123-1.354.752-1.743a2.09,2.09,0,0,1,.464-.212l1.5-.467.39.589,2.224-.6a14.151,14.151,0,0,1,.737,5.768l-2.948.635a2.146,2.146,0,0,1-1.875-.319l-7.368,2.628Z" transform="translate(-262.502 -305.329)"/>
          <path id="Path_109466" data-name="Path 109466" class="cls-15" d="M277.061,305.5a5.666,5.666,0,0,0,1.982-1.759c.46-.677,2.1.036.752,1.59a4.911,4.911,0,0,1-1.585,1.43,2.543,2.543,0,0,1-.489,3.071l-2.53-2.754C275.3,306.539,276.153,305.9,277.061,305.5Z" transform="translate(-267.646 -303.483)"/>
          <path id="Path_109467" data-name="Path 109467" class="cls-15" d="M269.738,310.761a3.01,3.01,0,0,1,.613-2.133l1.606-.007.975.8c.279,1.237.133,2.67-1.249,3.019h-.008l-8.531,2.7-.643-2.061Z" transform="translate(-262.502 -305.566)"/>
        </g>
        <path id="Path_109468" data-name="Path 109468" class="cls-20" d="M225.944,254.837c-.608-2.17-.359-4.689-1.766-6.449a6.777,6.777,0,0,0-2.64-1.826,14.844,14.844,0,0,0-7.7-1.274,10.89,10.89,0,0,0-6.889,3.5,8.626,8.626,0,0,0-2.018,7.349c.247,1.134-.191.555.12,1.67.248,1.468,1.167,4.022.913,5.083-.65,2.72-.865,5.45.963,7.567a6.283,6.283,0,0,1-.665-4.024,10.189,10.189,0,0,1,.834-1.8,5.79,5.79,0,0,0,.8.942,4.816,4.816,0,0,0-.308,2.444,7.4,7.4,0,0,0,.725,1.582,2.269,2.269,0,0,1,.269,1.679,3.391,3.391,0,0,0,.44-1.974c-.02-.685-.131-1.368-.1-2.052.01-.2.033-.4.062-.6a3.975,3.975,0,0,1,.7,1c.689,1.486.074,3.384.939,4.775a4.439,4.439,0,0,0,3.091,1.685,15.4,15.4,0,0,0,6.661-.23c-.185-1.838-.328-3.829.463-5.456.031.053.053.112.087.164.363.558.862,1.013,1.267,1.541a2.543,2.543,0,0,1,.629,1.838,3.181,3.181,0,0,0-.21-2.971c-.3-.6-.662-1.187-.922-1.8.31-.34.647-.658.976-.98.216.53.46,1.053.681,1.579a5.739,5.739,0,0,1,.518,3.856,7.52,7.52,0,0,0,.6-5.036c-.125-.728-.373-1.291-.552-2.008a11.382,11.382,0,0,0,1.489-5.3c0-.694.774-1.6.987-2.26C226.718,256.018,226.237,255.88,225.944,254.837Z" transform="translate(-175.749 -236.997)"/>
        <rect id="Rectangle_19847" data-name="Rectangle 19847" class="cls-21" width="7.034" height="10.758" transform="translate(36.267 29.617)"/>
        <g id="Group_14373" data-name="Group 14373" transform="translate(22.842 32.94)">
          <path id="Path_109469" data-name="Path 109469" class="cls-7" d="M228.275,365.206c-1.373,1.052-1.95.351-3.127.589a3.837,3.837,0,0,0-1.415.642,1.944,1.944,0,0,1-.238.143v.006a4.086,4.086,0,0,1-2.884.44,9.8,9.8,0,0,0-.963-.19q-.553-.071-1.07-.089a12.787,12.787,0,0,0-2.771.238c-.856.149-1.694.351-2.539.511h-.006c-.392.071-.785.143-1.183.19-1.891.238-2.878-.529-4.328-.773a5.492,5.492,0,0,0-2.188.1,7.492,7.492,0,0,0-.815.232,5.458,5.458,0,0,1-4.073-.309,3.964,3.964,0,0,1-.654-.422,3.493,3.493,0,0,0-2.247-.844c-1.142-.012-2.158.392-3.389-.458a447.533,447.533,0,0,0,3.062-48.45v-.321c.006-1.088.012-2.188.012-3.294,0-2.283-.018-4.59-.053-6.944q-.062-3.835-.19-7.812a8.09,8.09,0,0,1,1.932-5.071c.214-.238.434-.47.666-.684a8.1,8.1,0,0,1,3.454-1.9l4.542-1.492a9.107,9.107,0,0,0,2.628.69,8.129,8.129,0,0,0,1.784-.006,9.591,9.591,0,0,0,2.586-.666l.036-.018h.006l4.542,1.492a8.108,8.108,0,0,1,6.053,7.652q-.133,3.674-.161,7.313v.2c-.024,2.337-.012,4.673.024,7,.018.987.036,1.974.059,2.955C225.743,331.774,227.181,347.714,228.275,365.206Z" transform="translate(-194.386 -287.794)"/>
          <path id="Path_109470" data-name="Path 109470" class="cls-22" d="M224,286.808a12.156,12.156,0,0,1-7.035,0v1.445c1.562,1.082,5.055,1.137,7.035,0Z" transform="translate(-203.541 -286.808)"/>
          <rect id="Rectangle_19848" data-name="Rectangle 19848" class="cls-22" width="1.784" height="10.619" transform="translate(16.051 1.446)"/>
          <path id="Path_109471" data-name="Path 109471" class="cls-17" d="M203.091,396.563a1.764,1.764,0,0,1-.107.356,3.887,3.887,0,0,1-.654-.422,3.5,3.5,0,0,0-2.247-.844c.571-10.832,2.563-21.611,2.152-32.451.571,6.4,1.142,12.843.63,19.251a70.7,70.7,0,0,0-.5,7.753,25.5,25.5,0,0,0,.565,4.448A4.846,4.846,0,0,1,203.091,396.563Z" transform="translate(-196.696 -317.782)"/>
          <path id="Path_109472" data-name="Path 109472" class="cls-17" d="M214.437,402.612a7.142,7.142,0,0,1-.059,1.178,5.484,5.484,0,0,0-2.188.1c-1.451-7.765-1.278-15.773-1.457-23.693a67.9,67.9,0,0,0,2.717,17.842A18.8,18.8,0,0,1,214.437,402.612Z" transform="translate(-201.014 -324.671)"/>
          <path id="Path_109473" data-name="Path 109473" class="cls-17" d="M228.152,395.874c-.856.149-1.7.351-2.539.511a25.6,25.6,0,0,0,.517-9.507c-.345-2.58-1.094-5.113-1.254-7.717a34.583,34.583,0,0,1,.4-6.5q.749-6.081,1.5-12.165c.03,2.837.06,5.666.084,8.5.03,2.676.053,5.363.345,8.026C227.9,383.335,230.025,389.881,228.152,395.874Z" transform="translate(-206.732 -316.683)"/>
          <path id="Path_109474" data-name="Path 109474" class="cls-17" d="M220.365,387.036a24.433,24.433,0,0,1-.027-4.832l.437-7.236c-1.168,4.388-2.345,8.965-1.449,13.416.715,3.545,2.7,6.749,3.3,10.315C223.391,394.775,220.913,391,220.365,387.036Z" transform="translate(-204.37 -322.553)"/>
          <path id="Path_109475" data-name="Path 109475" class="cls-17" d="M236.689,403.576a49.61,49.61,0,0,0-.659,6.219q-.553-.071-1.07-.089a17.592,17.592,0,0,1-.018-4.65c.172-3.305.963-6.557,1.118-9.864A23.442,23.442,0,0,1,236.689,403.576Z" transform="translate(-210.769 -330.752)"/>
          <path id="Path_109476" data-name="Path 109476" class="cls-17" d="M243.316,400.873a3.843,3.843,0,0,0-1.415.642,1.848,1.848,0,0,1-.238.143c-.119-1.8.106-3.68.1-5.494-.036-6.884-3.561-13.644-2.277-20.41.309,4.935,1.879,9.685,2.949,14.506A32.7,32.7,0,0,1,243.316,400.873Z" transform="translate(-212.556 -322.871)"/>
        </g>
        <path id="Path_109477" data-name="Path 109477" class="cls-17" d="M243.156,319.289c-1.576-2.64-3.074-10.44-4.75-14.3,1.249.1.939,1.04,1.683,2.045a31.537,31.537,0,0,1,3.044,5.048v.2C243.109,314.622,243.121,316.958,243.156,319.289Z" transform="translate(-189.392 -261.24)"/>
        <path id="Path_109478" data-name="Path 109478" class="cls-17" d="M204.459,305.673c-1.653,3.811-3.269,11.307-4.94,14.131,0-2.283-.018-4.59-.054-6.944a31.586,31.586,0,0,1,3.282-5.547C203.491,306.307,203.211,305.775,204.459,305.673Z" transform="translate(-173.604 -261.517)"/>
        <path id="Path_109479" data-name="Path 109479" class="cls-7" d="M200.136,294.306a3.345,3.345,0,0,0-4.57,1.218L187,310.316a3.344,3.344,0,1,0,5.788,3.352l8.566-14.792A3.344,3.344,0,0,0,200.136,294.306Z" transform="translate(-168.367 -256.726)"/>
        <path id="Path_109480" data-name="Path 109480" class="cls-7" d="M170.765,321.945l12.095,2.008a3.344,3.344,0,0,0,1.1-6.6L171.1,315.221Z" transform="translate(-161.967 -265.388)"/>
        <path id="Path_109481" data-name="Path 109481" class="cls-7" d="M235.636,294.306a3.345,3.345,0,0,1,4.57,1.218l8.565,14.792a3.344,3.344,0,1,1-5.788,3.352l-8.565-14.792A3.344,3.344,0,0,1,235.636,294.306Z" transform="translate(-187.593 -256.726)"/>
        <path id="Path_109482" data-name="Path 109482" class="cls-7" d="M263.861,311.6l-13.166,4.413a3.344,3.344,0,1,0,2.106,6.348l11.806-3.969Z" transform="translate(-193.445 -263.92)"/>
        <g id="Group_14374" data-name="Group 14374" transform="translate(74.608 44.097)">
          <path id="Path_109483" data-name="Path 109483" class="cls-18" d="M286.267,319.075a.694.694,0,1,1-.693-.694A.694.694,0,0,1,286.267,319.075Z" transform="translate(-282.843 -310.767)"/>
          <path id="Path_109484" data-name="Path 109484" class="cls-18" d="M284.064,306.267a.694.694,0,1,1-.694-.693A.694.694,0,0,1,284.064,306.267Z" transform="translate(-281.949 -305.574)"/>
          <path id="Path_109485" data-name="Path 109485" class="cls-18" d="M283.043,308.342a.694.694,0,1,1-.693-.694A.693.693,0,0,1,283.043,308.342Z" transform="translate(-281.536 -306.415)"/>
          <path id="Path_109486" data-name="Path 109486" class="cls-18" d="M282.842,310.675a.694.694,0,1,1-.694-.693A.693.693,0,0,1,282.842,310.675Z" transform="translate(-281.454 -307.361)"/>
          <path id="Path_109487" data-name="Path 109487" class="cls-18" d="M282.842,313.009a.694.694,0,1,1-.694-.694A.693.693,0,0,1,282.842,313.009Z" transform="translate(-281.454 -308.307)"/>
          <circle id="Ellipse_721" data-name="Ellipse 721" class="cls-18" cx="0.694" cy="0.694" r="0.694" transform="translate(0 5.395)"/>
          <path id="Path_109488" data-name="Path 109488" class="cls-18" d="M282.842,317.675a.694.694,0,1,1-.694-.693A.693.693,0,0,1,282.842,317.675Z" transform="translate(-281.454 -310.199)"/>
          <path id="Path_109489" data-name="Path 109489" class="cls-18" d="M282.842,320.009a.694.694,0,1,1-.694-.694A.693.693,0,0,1,282.842,320.009Z" transform="translate(-281.454 -311.145)"/>
          <path id="Path_109490" data-name="Path 109490" class="cls-18" d="M283.474,322.187a.694.694,0,1,1-.694-.694A.693.693,0,0,1,283.474,322.187Z" transform="translate(-281.71 -312.028)"/>
          <path id="Path_109491" data-name="Path 109491" class="cls-18" d="M285.579,321.3a.694.694,0,1,1-.693-.693A.693.693,0,0,1,285.579,321.3Z" transform="translate(-282.564 -311.669)"/>
        </g>
        <path id="Path_109492" data-name="Path 109492" class="cls-16" d="M205.449,257.72a2.1,2.1,0,0,0-1.794-.664c-.028,0-.056.007-.084.013-1.231.268-1.932,1.843-1.567,3.519s1.658,2.815,2.889,2.547a1.7,1.7,0,0,0,.2-.059Z" transform="translate(-174.594 -241.796)"/>
        <path id="Path_109493" data-name="Path 109493" class="cls-16" d="M239.78,257.069c-.029-.006-.056-.008-.084-.012a2.1,2.1,0,0,0-1.793.662l.353,5.357a1.652,1.652,0,0,0,.2.059c1.231.268,2.524-.873,2.889-2.547S241.01,257.337,239.78,257.069Z" transform="translate(-189.188 -241.796)"/>
        <g id="Group_14375" data-name="Group 14375" transform="translate(27.315 17.491)">
          <path id="Path_109494" data-name="Path 109494" class="cls-23" d="M202.017,261.352a3.738,3.738,0,0,1-.085-.505,4.036,4.036,0,0,0,.074,1.287c.365,1.674,1.658,2.815,2.888,2.547a1.65,1.65,0,0,0,.2-.059l.047-.707A3.072,3.072,0,0,1,202.017,261.352Z" transform="translate(-201.91 -260.834)"/>
          <path id="Path_109495" data-name="Path 109495" class="cls-23" d="M241.629,260.825a3.4,3.4,0,0,1-.1.518,3.515,3.515,0,0,1-3.109,2.584l.045.685a1.66,1.66,0,0,0,.2.059c1.23.268,2.523-.873,2.888-2.547A4.046,4.046,0,0,0,241.629,260.825Z" transform="translate(-216.714 -260.825)"/>
        </g>
        <path id="Path_109496" data-name="Path 109496" class="cls-16" d="M226.219,249.19a5.855,5.855,0,0,1-.059.713l-.785,5.506-.149,1.047-.582,4.12-.024.143a6.423,6.423,0,0,1-2.646,4.393l-2.836,2.1a2.3,2.3,0,0,1-1.356.428h-4.1a2.3,2.3,0,0,1-1.356-.428l-2.842-2.1a6.434,6.434,0,0,1-2.64-4.393l-.018-.143-.6-4.2-.137-.963L205.3,249.9a4.909,4.909,0,0,1,.511-3.085,3.721,3.721,0,0,1,2.134-1.766,28.437,28.437,0,0,1,7.515-1.314c.089-.006.178-.006.268-.006s.172,0,.262.006a28.442,28.442,0,0,1,7.521,1.314A4.1,4.1,0,0,1,226.219,249.19Z" transform="translate(-175.947 -236.403)"/>
        <path id="Path_109497" data-name="Path 109497" class="cls-24" d="M204.9,262.2a1.669,1.669,0,0,1-.011-.418c.03-.156.047-.317.1-.5s.1-.37.144-.579a2.73,2.73,0,0,0,.08-.684,1.646,1.646,0,0,0-.172-.711,1.129,1.129,0,0,0-.511-.507,1.074,1.074,0,0,0-1.146.136.964.964,0,0,0-.333.68c0,.18.052.269.077.264s.046-.094.1-.231a.945.945,0,0,1,.354-.456.765.765,0,0,1,.759-.016.962.962,0,0,1,.415.854,4.338,4.338,0,0,1-.142.97.352.352,0,0,0-.033-.02.658.658,0,0,0-.867.813c.065.174.18.227.228.194s.064-.128.094-.231a.689.689,0,0,1,.168-.309.677.677,0,0,1,.319-.148l.037-.008c-.026.158-.038.317-.05.465a1.759,1.759,0,0,0,.074.513,1.1,1.1,0,0,0,.418.614.478.478,0,0,0,.185.083c.046.01.071.008.078-.007C205.3,262.9,204.971,262.728,204.9,262.2Z" transform="translate(-175.058 -242.472)"/>
        <path id="Path_109498" data-name="Path 109498" class="cls-24" d="M240.867,258.941a1.074,1.074,0,0,0-1.146-.136,1.129,1.129,0,0,0-.511.507,1.646,1.646,0,0,0-.172.711,2.728,2.728,0,0,0,.08.684c.044.208.1.4.144.579s.069.342.1.5a1.64,1.64,0,0,1-.01.418c-.07.527-.4.7-.366.765.007.014.033.017.078.007a.479.479,0,0,0,.185-.083,1.094,1.094,0,0,0,.418-.614,1.759,1.759,0,0,0,.074-.513c-.012-.147-.024-.307-.05-.465.012,0,.025,0,.037.008a.677.677,0,0,1,.319.148.684.684,0,0,1,.168.309c.03.1.037.2.094.231s.163-.02.228-.194a.658.658,0,0,0-.867-.813.35.35,0,0,0-.033.02,4.377,4.377,0,0,1-.141-.97.962.962,0,0,1,.415-.854.764.764,0,0,1,.758.016.949.949,0,0,1,.356.456c.052.137.061.228.1.231s.081-.084.077-.264A.964.964,0,0,0,240.867,258.941Z" transform="translate(-189.626 -242.472)"/>
        <path id="Path_109499" data-name="Path 109499" class="cls-10" d="M225.248,237.464a8.331,8.331,0,0,0-1.477-1.825,11.821,11.821,0,0,0-6.169-2.859l.128-.03c.152-.027.3-.066.436-.082l.2-.033.187-.017a2.638,2.638,0,0,1,.329-.016,1.437,1.437,0,0,1,.256.008l.228.017s-.061-.052-.181-.143a1.182,1.182,0,0,0-.235-.145,1.862,1.862,0,0,0-.338-.146l-.207-.065c-.073-.019-.149-.032-.228-.047a3.412,3.412,0,0,0-.511-.052,4.688,4.688,0,0,0-1.136.123c-.133.032-.26.067-.385.1-.041-.09-1.2-.882-1.137-.743a3.025,3.025,0,0,1,.161.482c.015.054.032.12.05.187a2.862,2.862,0,0,0-.707-.268,2.4,2.4,0,0,0-.845-.055l-.169.024-.149.04a1.056,1.056,0,0,0-.227.083c-.12.057-.18.093-.18.093l.195.04a1.518,1.518,0,0,1,.215.056l.129.037.139.055a4.581,4.581,0,0,1,.636.307l.024.014a13.488,13.488,0,0,0-4.615,1.07,9.147,9.147,0,0,0-4.1,3.362,8.255,8.255,0,0,0-1.257,4.806l.317,4.858a2.1,2.1,0,0,1,1.794.663l.3-4.533a3.6,3.6,0,0,1,2.742-3.268c.215-.053.432-.1.648-.15,2.738.194,4.964,2.129,7.717,2.363-.527-.279-1.068-.605-1.62-.935,2.457.773,4.915,1.4,7.372.558a3.6,3.6,0,0,1,.329.911,3.428,3.428,0,0,1,.074.52l.3,4.531a2.1,2.1,0,0,1,1.793-.662l.316-4.858A8.335,8.335,0,0,0,225.248,237.464Z" transform="translate(-175.566 -231.442)"/>
        <path id="Path_109500" data-name="Path 109500" class="cls-24" d="M222.77,263.043c-.48.039-1.089.134-1.747.138-.125,0-.247-.007-.367-.014a.092.092,0,0,0-.023-.008c-2.211-.49-.9-3.64-.785-5.973-.712,1.534-2.585,4.9-.787,6.74a2.933,2.933,0,0,0,1.963.554,3.893,3.893,0,0,0,1.962-.554c.448-.276.684-.545.639-.712S223.249,263,222.77,263.043Z" transform="translate(-181.241 -241.858)"/>
        <path id="Path_109501" data-name="Path 109501" class="cls-24" d="M210.046,257.917c2.54-.927,4.564-1.773,6.336-1.43-.053.341.134,1.861-.146,2.111C214.332,256.881,211.35,258.691,210.046,257.917Z" transform="translate(-177.894 -241.543)"/>
        <path id="Path_109502" data-name="Path 109502" class="cls-24" d="M231.572,257.974c-2.541-.927-4.636-1.682-6.407-1.34.053.341-.28,1.722,0,1.973C227.069,256.891,230.268,258.748,231.572,257.974Z" transform="translate(-183.978 -241.601)"/>
        <g id="Group_14376" data-name="Group 14376" class="cls-25" transform="translate(29.329 2.235)">
          <path id="Path_109503" data-name="Path 109503" class="cls-26" d="M222.558,243.139c1.174.36,2.788.335,3.447-.874-2.539,1.375-5.086-2.289-7.695-.879a10.526,10.526,0,0,1,3.511,1.459c-1.774-.708-3.557-1.356-5.506-.92,3.717.641,7.824,4.705,11.594,2.1A9.071,9.071,0,0,1,222.558,243.139Z" transform="translate(-209.765 -237.554)"/>
          <path id="Path_109504" data-name="Path 109504" class="cls-26" d="M228.723,235.165a10.018,10.018,0,0,1,7.026,9.646A8.266,8.266,0,0,0,228.723,235.165Z" transform="translate(-214.796 -235.165)"/>
          <path id="Path_109505" data-name="Path 109505" class="cls-26" d="M238.422,248.887a7.847,7.847,0,0,0-1.65-6.764A29.507,29.507,0,0,1,238.422,248.887Z" transform="translate(-218.059 -237.986)"/>
          <path id="Path_109506" data-name="Path 109506" class="cls-26" d="M205.341,243.959A11.277,11.277,0,0,1,209,237.5,6.278,6.278,0,0,0,205.341,243.959Z" transform="translate(-205.298 -236.113)"/>
        </g>
        <g id="Group_14377" data-name="Group 14377" class="cls-27" transform="translate(40.346 15.805)">
          <path id="Path_109507" data-name="Path 109507" class="cls-7" d="M224.7,262.989a.479.479,0,0,1-.565-.331c-.008-.055-.023-.369-.042-.815s-.077-1.015-.123-1.589c-.024-.287-.048-.571-.071-.837s-.027-.516-.039-.728c-.021-.422-.035-.7-.035-.7s.076.269.192.676l.2.694.254.8c.17.545.35,1.105.471,1.545s.2.76.2.816A.456.456,0,0,1,224.7,262.989Z" transform="translate(-223.828 -257.988)"/>
        </g>
        <g id="Group_14378" data-name="Group 14378" transform="translate(34.061 15.11)">
          <path id="Path_109508" data-name="Path 109508" class="cls-28" d="M215.687,257.879a1.227,1.227,0,1,1-1.215-1.06A1.145,1.145,0,0,1,215.687,257.879Z" transform="translate(-213.256 -256.819)"/>
          <path id="Path_109509" data-name="Path 109509" class="cls-10" d="M215.508,258.18a.654.654,0,1,1-.653-.62A.637.637,0,0,1,215.508,258.18Z" transform="translate(-213.639 -257.119)"/>
          <path id="Path_109510" data-name="Path 109510" class="cls-7" d="M214.389,259.1a.23.23,0,0,1-.229.229h0a.229.229,0,0,1-.229-.229h0a.229.229,0,0,1,.229-.229h0a.23.23,0,0,1,.229.229Z" transform="translate(-213.53 -257.652)"/>
          <path id="Path_109511" data-name="Path 109511" class="cls-7" d="M216.328,257.45a.323.323,0,0,1-.323.323h0a.323.323,0,0,1-.323-.323h0a.323.323,0,0,1,.323-.323h0a.323.323,0,0,1,.323.323Z" transform="translate(-214.24 -256.944)"/>
        </g>
        <path id="Path_109512" data-name="Path 109512" class="cls-10" d="M215.954,257.811c-.08.065-.194.012-.338-.112a5.065,5.065,0,0,0-.6-.486,4.484,4.484,0,0,0-2.379-.517,9.475,9.475,0,0,0-2.647.722c-1.213.422-1.186-.507-.32-.867a9.666,9.666,0,0,1,3-.939c1.215-.2,2.766-.122,3.3.512C216.24,256.448,216.031,257.747,215.954,257.811Z" transform="translate(-177.488 -241.18)"/>
        <g id="Group_14379" data-name="Group 14379" transform="translate(43.134 15.11)">
          <path id="Path_109513" data-name="Path 109513" class="cls-28" d="M230.947,257.879a1.226,1.226,0,1,1-1.215-1.06A1.145,1.145,0,0,1,230.947,257.879Z" transform="translate(-228.517 -256.819)"/>
          <path id="Path_109514" data-name="Path 109514" class="cls-10" d="M230.768,258.18a.655.655,0,1,1-.654-.62A.638.638,0,0,1,230.768,258.18Z" transform="translate(-228.9 -257.119)"/>
          <path id="Path_109515" data-name="Path 109515" class="cls-7" d="M229.65,259.1a.23.23,0,0,1-.229.229h0a.23.23,0,0,1-.23-.229h0a.23.23,0,0,1,.23-.229h0a.23.23,0,0,1,.229.229Z" transform="translate(-228.79 -257.652)"/>
          <path id="Path_109516" data-name="Path 109516" class="cls-7" d="M231.7,257.441a.336.336,0,0,1-.336.336h0a.336.336,0,0,1-.337-.336h0a.337.337,0,0,1,.337-.337h0a.337.337,0,0,1,.336.337Z" transform="translate(-229.533 -256.935)"/>
        </g>
        <path id="Path_109517" data-name="Path 109517" class="cls-10" d="M225.092,257.811c.079.065.194.012.338-.112a5.114,5.114,0,0,1,.6-.486,4.484,4.484,0,0,1,2.379-.517,9.468,9.468,0,0,1,2.647.722c1.213.422,1.187-.507.32-.867a9.677,9.677,0,0,0-3-.939c-1.216-.2-2.767-.122-3.305.512C224.806,256.448,225.014,257.747,225.092,257.811Z" transform="translate(-183.933 -241.18)"/>
        <g class="cls-33" transform="matrix(1, 0, 0, 1, -179.86, -8.43)">
          <path id="Path_109518-2" data-name="Path 109518" class="cls-7" d="M227.013,264.96a31.185,31.185,0,0,1-1.98,4.815,7.848,7.848,0,0,0-.672-.677c1.124-2.979,2.408-5.916,2.076-9.032-.232-2.152-1.243-4.173-1.409-6.338-.107-1.426.106-3.02-.779-4.138-.8-1.01-1.665-.155-2.39-1.219s-.166-3.187-.957-4.18a2.87,2.87,0,0,0-2.741-1.171c-1.189.012-3.96.833-5.149.839s-2.949-.738-4.138-.749c-1.272-.007-3-.178-3.793.82s-.03,2.859-.743,3.912-2.039.737-2.842,1.747c-.886,1.118-.666,2.712-.773,4.138-.166,2.165-1.177,4.186-1.415,6.338-.333,3.145.981,6.107,2.111,9.114-.232.215-.452.446-.666.684a33.162,33.162,0,0,1-2.021-4.905c-1.4-5.435,1.486-9.513,1.165-15.126-.113-1.991,1.379-3.579,1.052-7.331-.523-6.2,1.314-7.669,4.768-9.5a14.561,14.561,0,0,1,7.135-1.594h.048A14.563,14.563,0,0,1,220.033,233c3.454,1.831,5.292,3.305,4.768,9.5-.327,3.752,1.165,5.34,1.046,7.331C225.533,255.448,228.417,259.526,227.013,264.96Z" transform="translate(6.71 -222.98)"/>
        </g>
        <path id="Path_109519" data-name="Path 109519" class="cls-17" d="M204.386,242.181c.127.883.58,1.793.254,2.624-.235.6-.835,1.005-1.059,1.611-.351.949.325,2.078-.1,3a4.837,4.837,0,0,1-.662.878,1.2,1.2,0,0,0-.306,1.017,1.9,1.9,0,0,1,.942-1.064,4.262,4.262,0,0,0,1.171-.855c.7-.869.355-2.219.942-3.164.451-.726,1.37-1.076,1.774-1.829a2.528,2.528,0,0,0,.1-1.84c-.163-.609-.439-1.182-.6-1.79a5.1,5.1,0,0,1,.4-3.653,7.731,7.731,0,0,0-2.155,2.149A4.387,4.387,0,0,0,204.386,242.181Z" transform="translate(-174.828 -233.72)"/>
        <path id="Path_109520" data-name="Path 109520" class="cls-17" d="M219.072,243.971c-.47-.992.006-2.206-.335-3.249a13.9,13.9,0,0,0-.65-1.3,3.158,3.158,0,0,1,.062-2.671,3.353,3.353,0,0,0,1.254,2.228,4.991,4.991,0,0,1,1.56,2.073,21.167,21.167,0,0,0,.3,2.426,3.685,3.685,0,0,0,2.022,1.671,7.4,7.4,0,0,1-2.338.092A2.505,2.505,0,0,1,219.072,243.971Z" transform="translate(-181.046 -233.572)"/>
        <path id="Path_109521" data-name="Path 109521" class="cls-17" d="M233.785,242.449a10.113,10.113,0,0,0,.278,2c.276.818.913,1.47,1.226,2.275.444,1.142.2,2.489.766,3.575a5.3,5.3,0,0,0,2.458,1.986,4.746,4.746,0,0,1-1.606-3.614c.014-.759.212-1.507.214-2.266a8.772,8.772,0,0,0-.3-2,7.009,7.009,0,0,0-.8-2.238c-.909-1.415-2.693-1.993-3.86-3.205A6.351,6.351,0,0,1,233.785,242.449Z" transform="translate(-186.86 -234.47)"/>
        <path id="Path_109522" data-name="Path 109522" class="cls-17" d="M223.611,240.545a3.537,3.537,0,0,1,.738,2.038,1.892,1.892,0,0,1-1.109,1.753,2.148,2.148,0,0,1-.773-1.644c-.049-.625.025-1.259-.084-1.875-.1-.539-.331-1.046-.447-1.581a1.814,1.814,0,0,1,.262-1.564,2.448,2.448,0,0,0,.434,1.552C222.922,239.69,223.3,240.1,223.611,240.545Z" transform="translate(-182.689 -233.947)"/>
        <path id="Path_109523" data-name="Path 109523" class="cls-10" d="M201.907,249.187a.892.892,0,0,1-.139-1.773,77.8,77.8,0,0,1,24.364,0,.892.892,0,1,1-.279,1.762,76.014,76.014,0,0,0-23.806,0A.865.865,0,0,1,201.907,249.187Z" transform="translate(-174.233 -237.507)"/>
        <path id="Path_109524" data-name="Path 109524" class="cls-10" d="M201.907,246.425a.892.892,0,0,1-.139-1.772,77.767,77.767,0,0,1,24.364,0,.892.892,0,0,1-.279,1.762,75.976,75.976,0,0,0-23.806,0A.938.938,0,0,1,201.907,246.425Z" transform="translate(-174.233 -236.387)"/>
        <g id="Group_14380" data-name="Group 14380" transform="translate(35.671 24.049)">
          <path id="Path_109525" data-name="Path 109525" class="cls-10" d="M220.271,272.911c-1.7.093-2.975.068-3.828-.759.25,1.917,1.286,2.87,3.828,3.008,2.542-.138,3.578-1.091,3.828-3.008C223.247,272.979,221.967,273,220.271,272.911Z" transform="translate(-216.159 -271.975)"/>
          <path id="Path_109526" data-name="Path 109526" class="cls-7" d="M220.159,274.146a6,6,0,0,1-3.669-.967l-.323-1.026a13.447,13.447,0,0,0,7.985,0l-.324,1.026A6,6,0,0,1,220.159,274.146Z" transform="translate(-216.047 -271.975)"/>
          <path id="Path_109527" data-name="Path 109527" class="cls-29" d="M220.078,272.967c-.087,0-.175,0-.263,0a8.382,8.382,0,0,1-3.546-.548c-.106-.053-.21-.1-.3-.153l0,0v-.406l.166.073c.087.04.188.065.289.1a10.687,10.687,0,0,0,3.394.347l.263,0,.263,0a10.688,10.688,0,0,0,3.394-.347c.1-.037.2-.062.289-.1l.167-.073v.406l0,0c-.09.057-.194.1-.3.153a8.386,8.386,0,0,1-3.547.548C220.252,272.966,220.165,272.967,220.078,272.967Z" transform="translate(-215.965 -271.855)"/>
        </g>
        <path id="Path_109528" data-name="Path 109528" class="cls-10" d="M218.449,269.453h-.073c-.977,0-4.42.022-5.655,1.862a3.565,3.565,0,0,0-.669,1.309,8.494,8.494,0,0,0,.033,3.641,7.634,7.634,0,0,0,12.726,0,8.483,8.483,0,0,0,.033-3.641,3.556,3.556,0,0,0-.669-1.309c-1.234-1.84-4.677-1.863-5.655-1.862Zm-.43,4.759c-.649-.021-.971.787-1.523,1.078-.646.341-2.076-.555-2.08-.558a1.72,1.72,0,0,1-.232-2.768,2.714,2.714,0,0,1,.948-.442,17.177,17.177,0,0,1,6.635,0,2.713,2.713,0,0,1,.948.442,1.713,1.713,0,0,1-.1,2.768s-1.62.9-2.266.558c-.552-.291-.819-1.1-1.469-1.078Z" transform="translate(-178.636 -246.832)"/>
        <path id="Path_109529" data-name="Path 109529" class="cls-16" d="M215.94,260.892c0,.689-.9,1.249-2.013,1.249s-2.013-.559-2.013-1.249.9-1.247,2.013-1.247S215.94,260.2,215.94,260.892Z" transform="translate(-178.652 -242.855)"/>
        <path id="Path_109530" data-name="Path 109530" class="cls-16" d="M231.175,260.892c0,.689-.9,1.249-2.013,1.249s-2.013-.559-2.013-1.249.9-1.247,2.013-1.247S231.175,260.2,231.175,260.892Z" transform="translate(-184.829 -242.855)"/>
      </g>
    </g>
    <g id="Group_14401" data-name="Group 14401" transform="translate(79.119 1046.532)">
      <g id="Group_14398" data-name="Group 14398">
        <path id="Path_109531" data-name="Path 109531" class="cls-9" d="M322.043,425.664c0,2.274,9.431,4.118,21.067,4.118s21.067-1.844,21.067-4.118-9.432-4.119-21.067-4.119S322.043,423.389,322.043,425.664Z" transform="translate(-322.043 -309.912)"/>
        <g id="Group_14383" data-name="Group 14383" transform="translate(9.098 61.895)">
          <path id="Path_109532" data-name="Path 109532" class="cls-10" d="M348.4,352.952a27.317,27.317,0,0,0,4.022-.176,7.248,7.248,0,0,0,6.226-5.723,42.488,42.488,0,0,0,.8-9.166,46.1,46.1,0,0,1-11.045,1.9,46.109,46.109,0,0,1-11.045-1.9,42.453,42.453,0,0,0,.8,9.166,7.248,7.248,0,0,0,6.226,5.723A27.329,27.329,0,0,0,348.4,352.952Z" transform="translate(-337.346 -337.888)"/>
          <g id="Group_14382" data-name="Group 14382" transform="translate(0.001)">
            <path id="Path_109533" data-name="Path 109533" class="cls-11" d="M348.4,339.784a46.1,46.1,0,0,0,11.045-1.9q.012,1.062-.018,2.114a46.073,46.073,0,0,1-11.027,1.892A46.068,46.068,0,0,1,337.368,340q-.029-1.051-.018-2.114A46.109,46.109,0,0,0,348.4,339.784Z" transform="translate(-337.347 -337.888)"/>
            <rect id="Rectangle_19849" data-name="Rectangle 19849" class="cls-12" width="2.959" height="2.192" transform="translate(9.569 1.814)"/>
            <path id="Path_109534" data-name="Path 109534" class="cls-10" d="M370.125,341.16h.624V338.78l-.624.153Z" transform="translate(-350.637 -338.25)"/>
            <path id="Path_109535" data-name="Path 109535" class="cls-10" d="M341.309,341.16h-.624V338.78l.624.153Z" transform="translate(-338.7 -338.25)"/>
            <path id="Path_109536" data-name="Path 109536" class="cls-10" d="M364.063,342.491h.624v-2.379l-.624.089Z" transform="translate(-348.179 -338.789)"/>
            <path id="Path_109537" data-name="Path 109537" class="cls-10" d="M347.371,342.491h-.624v-2.379l.624.089Z" transform="translate(-341.158 -338.789)"/>
          </g>
        </g>
        <g id="Group_14386" data-name="Group 14386" transform="translate(8.462 68.118)">
          <g id="Group_14385" data-name="Group 14385" transform="translate(0.715 44.545)">
            <path id="Path_109538" data-name="Path 109538" class="cls-10" d="M340.265,429.843a5.625,5.625,0,0,1-2.787-.448l.037-.647,2.979-.2Z" transform="translate(-337.478 -425.414)"/>
            <g id="Group_14384" data-name="Group 14384" transform="translate(0.037)">
              <path id="Path_109539" data-name="Path 109539" class="cls-10" d="M337.54,428.2c5.176,1.693,9.071,2.084,11.293,1.4l.116-.819-11.266-1.592Z" transform="translate(-337.54 -424.863)"/>
              <path id="Path_109540" data-name="Path 109540" class="cls-13" d="M337.708,425.912c1.6,1.115,10.321,2.21,11.308,1.282.078-.562-.8-1.224-2.412-1.981-.16-.074-.326-.148-.5-.227l-.378-.163c-.169-.072-.341-.143-.52-.215h0c-.121-.051-.248-.1-.375-.152h0l-.545-.21c-.448-.171-.921-.343-1.422-.52C338.519,422.193,337.833,425.006,337.708,425.912Z" transform="translate(-337.608 -423.277)"/>
              <path id="Path_109541" data-name="Path 109541" class="cls-10" d="M346.9,425.844a.233.233,0,0,0,.318.077l1.323-.8-.545-.21-1.018.617A.233.233,0,0,0,346.9,425.844Z" transform="translate(-341.319 -423.938)"/>
              <path id="Path_109542" data-name="Path 109542" class="cls-10" d="M348.464,426.5a.229.229,0,0,0,.174.1.234.234,0,0,0,.148-.041c.235-.169.5-.331.754-.487.173-.107.356-.221.529-.334-.169-.072-.341-.143-.52-.215h0c-.083.051-.166.1-.25.155-.263.159-.532.326-.78.5A.231.231,0,0,0,348.464,426.5Z" transform="translate(-341.951 -424.185)"/>
              <path id="Path_109543" data-name="Path 109543" class="cls-10" d="M350.023,427.132a.228.228,0,0,0,.18.1.241.241,0,0,0,.142-.039l1.237-.818c-.16-.074-.326-.148-.5-.227l-.993.659A.231.231,0,0,0,350.023,427.132Z" transform="translate(-342.586 -424.443)"/>
            </g>
          </g>
          <path id="Path_109544" data-name="Path 109544" class="cls-10" d="M336.276,394.2c-.009-.3.243-2.139.251-2.444.42-13.794.929-27.55,1.993-41.312a2.336,2.336,0,0,1,4.623-.152,32.9,32.9,0,0,1,0,4.682c-.03,6.119.025,12.238.268,18.354q.391,9.817.794,19.634c0,.047,0,.093,0,.14A12.616,12.616,0,0,1,336.276,394.2Z" transform="translate(-336.276 -348.355)"/>
        </g>
        <g id="Group_14389" data-name="Group 14389" transform="translate(24.788 67.248)">
          <g id="Group_14388" data-name="Group 14388" transform="translate(1.492 45.213)">
            <path id="Path_109545" data-name="Path 109545" class="cls-10" d="M369.054,429.517a5.629,5.629,0,0,1-2.808-.289v-.649l2.962-.369Z" transform="translate(-366.246 -425.075)"/>
            <g id="Group_14387" data-name="Group 14387">
              <path id="Path_109546" data-name="Path 109546" class="cls-10" d="M366.246,428.139c5.264,1.4,9.175,1.567,11.355.761l.069-.824-11.338-.951Z" transform="translate(-366.246 -424.634)"/>
              <path id="Path_109547" data-name="Path 109547" class="cls-13" d="M366.347,425.738c1.662,1.023,10.43,1.622,11.363.64.046-.565-.868-1.177-2.52-1.841-.164-.065-.334-.13-.513-.2l-.386-.142c-.173-.062-.349-.124-.532-.185h0c-.124-.043-.253-.086-.383-.13h0l-.556-.178c-.457-.146-.939-.291-1.448-.439C366.946,421.979,366.421,424.827,366.347,425.738Z" transform="translate(-366.287 -422.936)"/>
              <path id="Path_109548" data-name="Path 109548" class="cls-10" d="M375.446,425.223a.233.233,0,0,0,.321.059l1.275-.878-.556-.178-.982.672A.233.233,0,0,0,375.446,425.223Z" transform="translate(-369.959 -423.459)"/>
              <path id="Path_109549" data-name="Path 109549" class="cls-10" d="M377.05,425.785a.232.232,0,0,0,.324.037c.226-.182.479-.358.726-.529.167-.117.343-.24.509-.364-.173-.062-.349-.124-.532-.185h0c-.081.055-.161.115-.241.169-.253.173-.513.355-.75.547A.23.23,0,0,0,377.05,425.785Z" transform="translate(-370.605 -423.67)"/>
              <path id="Path_109550" data-name="Path 109550" class="cls-10" d="M378.642,426.333a.227.227,0,0,0,.186.092.235.235,0,0,0,.139-.046l1.189-.887c-.164-.065-.334-.13-.513-.2l-.954.713A.232.232,0,0,0,378.642,426.333Z" transform="translate(-371.253 -423.893)"/>
            </g>
          </g>
          <path id="Path_109551" data-name="Path 109551" class="cls-10" d="M364.091,392.923c-.027-.3.12-2.149.112-2.454-.362-13.8-.633-27.559-.35-41.358a2.336,2.336,0,0,1,4.607-.414,32.967,32.967,0,0,1,.267,4.674c.316,6.111.718,12.217,1.307,18.31q.945,9.779,1.9,19.557c0,.047.006.094.009.14A10.369,10.369,0,0,1,364.091,392.923Z" transform="translate(-363.736 -346.891)"/>
        </g>
        <path id="Path_109552" data-name="Path 109552" class="cls-17" d="M346.715,275.562c.385.12.765.234,1.153.337a39.207,39.207,0,0,0,9.024,1.02c.134,0,.271.008.4.008l.49.017a9.975,9.975,0,0,1,.4-.978c1.073-2.23,2.9-4.081,3.934-6.347,2.324-5.111.193-9.629,1.484-15.1.46-1.943-.733-3.766.24-7.405,1.6-6,.042-7.782-3.044-10.183a14.59,14.59,0,0,0-6.748-2.81l-.043-.008a14.587,14.587,0,0,0-7.3.328c-3.721,1.2-5.789,2.335-6.349,8.524-.332,3.752-2.077,5.057-2.311,7.039-.66,5.579-6.508,8.724-6.076,14.323.194,2.482,1.278,4.849,1.522,7.31a10.18,10.18,0,0,1,.045,1.058l.466.152c.125.045.258.086.383.131a61.725,61.725,0,0,0,11.125,2.5C345.918,275.519,346.314,275.543,346.715,275.562Z" transform="translate(-326.061 -233.792)"/>
        <path id="Path_109553" data-name="Path 109553" class="cls-17" d="M397.349,327.372c0,1.816-.638,3.289-1.425,3.289s-1.424-1.473-1.424-3.289.637-3.289,1.424-3.289S397.349,325.556,397.349,327.372Z" transform="translate(-351.421 -270.396)"/>
        <path id="Path_109554" data-name="Path 109554" class="cls-16" d="M414.094,327.352v-.016a.75.75,0,0,0-.637-.849l-1.549-.128a.762.762,0,0,0-.776.734v.016a.749.749,0,0,0,.637.849l1.549.128A.762.762,0,0,0,414.094,327.352Z" transform="translate(-358.163 -271.318)"/>
        <path id="Path_109555" data-name="Path 109555" class="cls-19" d="M391.875,326.549l.929,2.089,4.447.606c2.848.174,6.327.033,7.707-2.326l-7.043-.369Z" transform="translate(-350.357 -271.396)"/>
        <path id="Path_109556" data-name="Path 109556" class="cls-7" d="M369.079,298.192l2.957,12.829.806,3.507.075.322a3.343,3.343,0,0,0,6.516-1.5L379,311.5,375.6,296.691a3.346,3.346,0,1,0-6.52,1.5Z" transform="translate(-341.079 -258.237)"/>
        <path id="Path_109557" data-name="Path 109557" class="cls-7" d="M388.254,330l-9.935-.919a3.344,3.344,0,0,1,1.218-6.577l9.139,1.227C387.065,324.645,386.83,329.141,388.254,330Z" transform="translate(-343.751 -269.732)"/>
        <path id="Path_109558" data-name="Path 109558" class="cls-20" d="M345.721,255.449c.977-2.03,1.17-4.555,2.862-6.043a6.759,6.759,0,0,1,2.917-1.338,14.85,14.85,0,0,1,7.809.085,10.89,10.89,0,0,1,6.174,4.646,8.623,8.623,0,0,1,.711,7.587c-.44,1.074.091.58-.408,1.624-.5,1.4-1.849,3.758-1.784,4.846.168,2.791-.1,5.517-2.263,7.284a6.283,6.283,0,0,0,1.354-3.847,10.2,10.2,0,0,0-.508-1.917,5.792,5.792,0,0,1-.951.788,4.81,4.81,0,0,1-.122,2.461,7.411,7.411,0,0,1-.989,1.432,2.269,2.269,0,0,0-.557,1.606,3.386,3.386,0,0,1-.09-2.021c.139-.671.367-1.324.452-2,.025-.2.037-.4.043-.6a3.948,3.948,0,0,0-.863.863c-.937,1.344-.662,3.32-1.756,4.539a4.445,4.445,0,0,1-3.338,1.121,15.407,15.407,0,0,1-6.519-1.385c.5-1.778.99-3.714.495-5.453-.04.047-.073.1-.115.146-.455.486-1.025.847-1.516,1.3a2.542,2.542,0,0,0-.939,1.7,3.182,3.182,0,0,1,.723-2.889c.4-.543.859-1.054,1.222-1.616-.246-.388-.522-.76-.79-1.136-.306.485-.637.958-.946,1.436a5.735,5.735,0,0,0-1.181,3.706,7.511,7.511,0,0,1,.285-5.063c.25-.7.592-1.206.893-1.881a11.384,11.384,0,0,1-.546-5.476c.121-.683-.485-1.709-.578-2.4C344.754,256.478,345.252,256.425,345.721,255.449Z" transform="translate(-331.161 -239.381)"/>
        <rect id="Rectangle_19850" data-name="Rectangle 19850" class="cls-21" width="7.035" height="10.758" transform="translate(19.015 27.316)"/>
        <path id="Path_109559" data-name="Path 109559" class="cls-7" d="M361.369,363.6c-1.231.85-2.247.446-3.389.458a3.492,3.492,0,0,0-2.247.844,3.961,3.961,0,0,1-.654.422,5.458,5.458,0,0,1-4.073.309,7.509,7.509,0,0,0-.815-.232,5.493,5.493,0,0,0-2.188-.1c-1.451.244-2.438,1.011-4.328.773-.4-.048-.791-.119-1.183-.19h-.006c-.844-.16-1.683-.363-2.539-.511a12.787,12.787,0,0,0-2.771-.238q-.517.018-1.07.089a9.815,9.815,0,0,0-.963.19,4.088,4.088,0,0,1-2.884-.44v-.006a1.98,1.98,0,0,1-.237-.143,3.838,3.838,0,0,0-1.415-.642c-1.177-.238-1.754.464-3.127-.589.856-13.722,1.926-26.493,2.527-39.038v-.012q.258-5.164.381-10.3c.065-2.687.155-5.375.1-8.068a99.95,99.95,0,0,1,.113-10.042c.488-5.535,2.057-6.07,5.767-7.016l6.57-1.659c.874.357,6.594.987,7.479.612,0,0,4.572,2.057,5.529,2.943.232.214.452.446.666.684a8.09,8.09,0,0,1,1.932,5.072q-.125,3.978-.19,7.812-.027,1.81-.042,3.6c-.012,1.391-.012,2.771-.012,4.132,0,.844.006,1.677.012,2.509v.321A447.528,447.528,0,0,0,361.369,363.6Z" transform="translate(-324.247 -255.551)"/>
        <path id="Path_109560" data-name="Path 109560" class="cls-22" d="M353.756,285.316a12.177,12.177,0,0,0,7.035.446l.117,1.45c-1.562,1.081-5.567.773-7.546-.365Z" transform="translate(-334.741 -254.678)"/>
        <rect id="Rectangle_19851" data-name="Rectangle 19851" class="cls-22" width="1.784" height="10.619" transform="translate(22.351 32.169)"/>
        <path id="Path_109561" data-name="Path 109561" class="cls-17" d="M373.687,395.071a1.769,1.769,0,0,0,.106.357,3.961,3.961,0,0,0,.654-.422,3.493,3.493,0,0,1,2.247-.844c-.571-10.833-2.562-21.612-2.152-32.451-.571,6.4-1.142,12.842-.63,19.252a70.851,70.851,0,0,1,.5,7.753,25.443,25.443,0,0,1-.565,4.447A4.858,4.858,0,0,0,373.687,395.071Z" transform="translate(-342.963 -285.652)"/>
        <path id="Path_109562" data-name="Path 109562" class="cls-17" d="M361.895,401.121a7.2,7.2,0,0,0,.059,1.177,5.5,5.5,0,0,1,2.189.1c1.45-7.765,1.278-15.773,1.457-23.693a67.952,67.952,0,0,1-2.717,17.842A18.778,18.778,0,0,0,361.895,401.121Z" transform="translate(-338.2 -292.541)"/>
        <path id="Path_109563" data-name="Path 109563" class="cls-17" d="M347.934,394.383c.857.149,1.7.351,2.539.511a25.577,25.577,0,0,1-.517-9.507c.345-2.58,1.093-5.113,1.254-7.717a34.589,34.589,0,0,0-.4-6.5q-.749-6.082-1.5-12.164-.045,4.255-.084,8.5c-.03,2.675-.054,5.363-.345,8.026C348.19,381.844,346.062,388.39,347.934,394.383Z" transform="translate(-332.236 -284.553)"/>
        <path id="Path_109564" data-name="Path 109564" class="cls-17" d="M355.929,385.545a24.429,24.429,0,0,0,.027-4.832l-.437-7.236c1.169,4.387,2.345,8.965,1.448,13.416-.714,3.545-2.7,6.749-3.3,10.315C352.9,393.284,355.381,389.5,355.929,385.545Z" transform="translate(-334.806 -290.423)"/>
        <path id="Path_109565" data-name="Path 109565" class="cls-17" d="M340.789,402.084a49.635,49.635,0,0,1,.659,6.219q.553-.071,1.07-.089a17.584,17.584,0,0,0,.018-4.649c-.172-3.306-.963-6.558-1.118-9.864A23.44,23.44,0,0,0,340.789,402.084Z" transform="translate(-329.591 -298.622)"/>
        <path id="Path_109566" data-name="Path 109566" class="cls-17" d="M332.644,399.381a3.837,3.837,0,0,1,1.415.642,1.95,1.95,0,0,0,.238.143c.119-1.8-.107-3.68-.1-5.494.036-6.885,3.562-13.645,2.277-20.411-.309,4.935-1.879,9.685-2.949,14.507A32.719,32.719,0,0,0,332.644,399.381Z" transform="translate(-326.286 -290.74)"/>
        <g id="Group_14390" data-name="Group 14390" transform="translate(23.502 49.334)">
          <path id="Path_109567" data-name="Path 109567" class="cls-17" d="M370.909,316.761a20.563,20.563,0,0,1-9.337,17.844A39.054,39.054,0,0,0,370.909,316.761Z" transform="translate(-361.572 -316.761)"/>
          <path id="Path_109568" data-name="Path 109568" class="cls-17" d="M369.978,340l4.859-14.2A20.318,20.318,0,0,1,369.978,340Z" transform="translate(-364.98 -320.428)"/>
        </g>
        <path id="Path_109569" data-name="Path 109569" class="cls-17" d="M351.117,311.119a6.089,6.089,0,0,1-2.574-2.851,37.968,37.968,0,0,1-3.586-9.248,18.925,18.925,0,0,1,4.714,6.034c.685,1.349,1.435,3.453,2.562,4.112,1.562.913,4.022.464,5.829.4,2.728-.092,5.336-.218,7.079.263.009.416-1.639.7-1.629,1.118-3.1.788-6.713.548-9.912.548A6.066,6.066,0,0,1,351.117,311.119Z" transform="translate(-331.334 -260.234)"/>
        <path id="Path_109570" data-name="Path 109570" class="cls-17" d="M361.6,313.385c-.013,1.391-.013,2.771-.013,4.132-.529.035-1.058.065-1.587.1-4.162.261-7.705,1.123-11.861,1.385-1.587.1-2.932,1.1-4.335.353-1.891-1-2.749-3.45-3.834-5.895-1.622-3.652-3.335-8.311-4.692-12.069q3.041,4.4,6.089,8.793a9.71,9.71,0,0,0,3.044,3.2c1.587.874,3.5.791,5.309.69Z" transform="translate(-327.409 -261.196)"/>
        <path id="Path_109571" data-name="Path 109571" class="cls-7" d="M335.046,292.931a3.344,3.344,0,0,0-1.318,4.542l8.236,14.977a3.344,3.344,0,1,0,5.861-3.223l-8.237-14.977A3.345,3.345,0,0,0,335.046,292.931Z" transform="translate(-326.613 -257.597)"/>
        <path id="Path_109572" data-name="Path 109572" class="cls-16" d="M383.327,319.322l-5.936-2.822-4.611.534-.521,3.717h9.062Z" transform="translate(-342.403 -267.321)"/>
        <path id="Path_109573" data-name="Path 109573" class="cls-19" d="M380.086,316.5a.869.869,0,0,0-.251,1.384c-.688.084-.743,1.078-.335,1.366-.483.158-.646.966-.185,1.134a.626.626,0,0,0-.223,1.031l4.923-.664,2.007-1.429Z" transform="translate(-345.098 -267.321)"/>
        <path id="Path_109574" data-name="Path 109574" class="cls-7" d="M363.713,317.2l-13.651.473a3.344,3.344,0,0,0,1.414,6.537l11.89-1.638C362.358,320.483,362.281,319.439,363.713,317.2Z" transform="translate(-332.334 -267.606)"/>
        <g id="Group_14391" data-name="Group 14391" transform="translate(28.179 34.099)">
          <path id="Path_109575" data-name="Path 109575" class="cls-30" d="M403.373,309.207H382.732c-.6,0-1.019-.613-.926-1.369l1.892-15.332a1.462,1.462,0,0,1,1.263-1.369H405.6c.6,0,1.018.613.925,1.369l-1.891,15.332A1.462,1.462,0,0,1,403.373,309.207Z" transform="translate(-374.447 -291.137)"/>
          <path id="Path_109576" data-name="Path 109576" class="cls-10" d="M404.871,322.308H384.989l.2-1.061H405.07Z" transform="translate(-375.743 -303.345)"/>
          <path id="Path_109577" data-name="Path 109577" class="cls-31" d="M404.685,309.207h-20.64c-.6,0-1.019-.613-.926-1.369l1.892-15.332a1.462,1.462,0,0,1,1.263-1.369h20.64c.6,0,1.018.613.926,1.369l-1.892,15.332A1.461,1.461,0,0,1,404.685,309.207Z" transform="translate(-374.98 -291.137)"/>
          <path id="Path_109578" data-name="Path 109578" class="cls-30" d="M392.875,323.031v.736a1.841,1.841,0,0,1-.215.885.947.947,0,0,1-.8.555H370.454a.949.949,0,0,1-.8-.555,1.841,1.841,0,0,1-.216-.885v-.736Z" transform="translate(-369.438 -304.069)"/>
          <rect id="Rectangle_19852" data-name="Rectangle 19852" class="cls-32" width="23.438" height="0.735" transform="translate(0 18.963)"/>
          <path id="Path_109579" data-name="Path 109579" class="cls-31" d="M404.328,323.031v.736a1.841,1.841,0,0,1-.216.885.947.947,0,0,1-.8.555H381.906a.949.949,0,0,1-.8-.555,1.841,1.841,0,0,1-.215-.885v-.736Z" transform="translate(-374.082 -304.069)"/>
          <rect id="Rectangle_19853" data-name="Rectangle 19853" class="cls-11" width="23.438" height="0.735" transform="translate(6.809 18.963)"/>
          <path id="Path_109580" data-name="Path 109580" class="cls-7" d="M404.386,305.045a2.018,2.018,0,0,1-1.744,1.89c-.834,0-1.406-.847-1.277-1.89a2.017,2.017,0,0,1,1.744-1.89C403.943,303.155,404.515,304,404.386,305.045Z" transform="translate(-382.375 -296.01)"/>
        </g>
        <path id="Path_109581" data-name="Path 109581" class="cls-16" d="M345.723,256.542c.029,0,.057,0,.086,0a2.1,2.1,0,0,1,1.65.963l-1.279,5.214a1.622,1.622,0,0,1-.21.024c-1.259.05-2.334-1.3-2.4-3.011S344.465,256.592,345.723,256.542Z" transform="translate(-330.769 -243.011)"/>
        <g id="Group_14392" data-name="Group 14392" transform="translate(32.843 17.517)">
          <path id="Path_109582" data-name="Path 109582" class="cls-16" d="M378.532,263.534a2.1,2.1,0,0,1,1.911-.1c.026.012.052.023.076.036,1.1.62,1.3,2.332.455,3.825s-2.417,2.2-3.513,1.577a1.689,1.689,0,0,1-.177-.117Z" transform="translate(-377.283 -263.247)"/>
          <path id="Path_109583" data-name="Path 109583" class="cls-23" d="M381.741,268.649a3.818,3.818,0,0,0,.231-.458,4.045,4.045,0,0,1-.452,1.208c-.844,1.492-2.417,2.2-3.513,1.578a1.823,1.823,0,0,1-.177-.117l.165-.69A3.072,3.072,0,0,0,381.741,268.649Z" transform="translate(-377.505 -265.251)"/>
          <path id="Path_109584" data-name="Path 109584" class="cls-24" d="M378.72,268.2a1.675,1.675,0,0,0,.134-.4c.018-.158.049-.318.053-.5s.014-.383.033-.6a2.758,2.758,0,0,1,.126-.678,1.636,1.636,0,0,1,.375-.627,1.135,1.135,0,0,1,.639-.334,1.077,1.077,0,0,1,1.055.47.961.961,0,0,1,.116.749c-.05.173-.129.241-.152.229s-.015-.1-.026-.25a.938.938,0,0,0-.2-.54.764.764,0,0,0-.719-.241.963.963,0,0,0-.649.693,4.353,4.353,0,0,0-.152.969.345.345,0,0,1,.037-.009.658.658,0,0,1,.587,1.033c-.115.147-.24.164-.276.118s-.023-.141-.021-.249a.7.7,0,0,0-.07-.345.678.678,0,0,0-.261-.235l-.034-.018c-.021.158-.057.315-.089.458a1.792,1.792,0,0,1-.223.468,1.1,1.1,0,0,1-.581.463.475.475,0,0,1-.2.025c-.047,0-.071-.014-.073-.029C378.129,268.753,378.5,268.686,378.72,268.2Z" transform="translate(-377.632 -263.981)"/>
        </g>
        <path id="Path_109585" data-name="Path 109585" class="cls-23" d="M343.722,259.737a3.285,3.285,0,0,0,.008.529,3.514,3.514,0,0,0,2.612,3.085l-.164.666a1.621,1.621,0,0,1-.21.023c-1.258.05-2.333-1.3-2.4-3.011A4.071,4.071,0,0,1,343.722,259.737Z" transform="translate(-330.769 -244.307)"/>
        <path id="Path_109586" data-name="Path 109586" class="cls-16" d="M348.569,249.991a5.813,5.813,0,0,0-.065.713l-.6,5.231-.285,1.263-.46,4.123,0,.144c-.108,1.738,1.32,3.786,2.579,5.107l2.426,2.566a2.3,2.3,0,0,0,1.26.657l4.04.713a2.3,2.3,0,0,0,1.409-.185l2.146-1.614a7.436,7.436,0,0,0,3.645-4.152l.043-.137,1.322-4.035.3-.925,1.73-5.285a4.908,4.908,0,0,0,.034-3.128,3.723,3.723,0,0,0-1.795-2.11,28.447,28.447,0,0,0-7.172-2.6c-.087-.021-.174-.037-.263-.053s-.169-.03-.258-.039a21.708,21.708,0,0,0-6.654.142A4.1,4.1,0,0,0,348.569,249.991Z" transform="translate(-332.223 -238.755)"/>
        <path id="Path_109587" data-name="Path 109587" class="cls-24" d="M345.455,258.241a1.074,1.074,0,0,1,1.152.065,1.132,1.132,0,0,1,.415.588,1.639,1.639,0,0,1,.046.73,2.7,2.7,0,0,1-.2.661c-.079.2-.172.378-.242.544a5.014,5.014,0,0,0-.184.473,1.682,1.682,0,0,0-.062.413c-.023.531.274.76.227.818-.009.012-.035.011-.078-.007a.466.466,0,0,1-.168-.114,1.1,1.1,0,0,1-.305-.678,1.747,1.747,0,0,1,.016-.518c.037-.142.077-.3.13-.449h-.038a.56.56,0,0,0-.56.365c-.048.1-.071.188-.133.212s-.157-.048-.191-.231a.658.658,0,0,1,1-.65c.012.008.019.017.029.025a4.332,4.332,0,0,0,.309-.93.962.962,0,0,0-.26-.913.764.764,0,0,0-.75-.116.943.943,0,0,0-.429.387c-.076.126-.1.213-.137.211s-.064-.1-.03-.273A.962.962,0,0,1,345.455,258.241Z" transform="translate(-331.349 -243.644)"/>
        <path id="Path_109588" data-name="Path 109588" class="cls-10" d="M349.193,238.593a8.335,8.335,0,0,1,1.771-1.541,11.824,11.824,0,0,1,6.573-1.743l-.12-.052c-.145-.053-.284-.117-.416-.157l-.193-.067-.181-.05a2.672,2.672,0,0,0-.321-.073,1.47,1.47,0,0,0-.254-.037l-.227-.024s.068-.041.2-.109a1.2,1.2,0,0,1,.256-.1,1.922,1.922,0,0,1,.359-.086l.215-.029c.075-.006.152,0,.233-.006a3.305,3.305,0,0,1,.512.037,4.7,4.7,0,0,1,1.1.318c.125.055.244.112.36.169a4.449,4.449,0,0,1,1.249-.534,3.007,3.007,0,0,0-.242.447c-.025.051-.053.113-.082.176a2.849,2.849,0,0,1,.743-.14,2.384,2.384,0,0,1,.841.093l.162.052.139.066a1.018,1.018,0,0,1,.209.121c.108.077.16.122.16.122l-.2.005a1.475,1.475,0,0,0-.222.018l-.133.014-.146.03a4.656,4.656,0,0,0-.679.191l-.026.01a13.5,13.5,0,0,1,4.359,1.857,9.147,9.147,0,0,1,3.452,4.023,8.251,8.251,0,0,1,.4,4.952l-1.26,5.621A16.839,16.839,0,0,0,366,244.836a3.6,3.6,0,0,0-1.631-1.43c-.2-.089-.407-.175-.612-.26-2.73-.286-5.259,1.233-8.01.985.567-.182,1.156-.41,1.757-.639-2.554.334-5.083.526-7.356-.733a3.593,3.593,0,0,0-.482.84,3.541,3.541,0,0,0-.164.5l-1.082,4.41a2.1,2.1,0,0,0-1.651-.964l.534-4.838A8.329,8.329,0,0,1,349.193,238.593Z" transform="translate(-332.07 -234.071)"/>
        <path id="Path_109589" data-name="Path 109589" class="cls-24" d="M362.006,265.777c.466.122,1.049.322,1.7.44.123.021.244.036.364.051a.072.072,0,0,1,.024,0c2.262-.1,1.515-3.429,1.812-5.745.434,1.634,1.693,5.278-.4,6.774a2.937,2.937,0,0,1-2.028.2,3.9,3.9,0,0,1-1.837-.886c-.392-.35-.579-.656-.5-.813S361.542,265.653,362.006,265.777Z" transform="translate(-337.887 -244.623)"/>
        <path id="Path_109590" data-name="Path 109590" class="cls-24" d="M375.243,262.318c-2.341-1.356-3.969-2.7-5.773-2.669-.492.117-.673,1.967-.441,2.262C371.2,260.552,373.824,262.853,375.243,262.318Z" transform="translate(-341.053 -244.271)"/>
        <path id="Path_109591" data-name="Path 109591" class="cls-24" d="M353.973,259.246c2.662-.471,4.857-.85,6.542-.2-.112.326-.024,1.745-.344,1.942C358.6,258.963,355.122,260.236,353.973,259.246Z" transform="translate(-334.989 -243.886)"/>
        <g id="Group_14393" data-name="Group 14393" class="cls-25" transform="translate(15.512 1.907)">
          <path id="Path_109592" data-name="Path 109592" class="cls-26" d="M359.14,245.5c-1.219.151-2.8-.155-3.242-1.46,2.261,1.8,5.407-1.369,7.73.473a10.521,10.521,0,0,0-3.712.826c1.87-.389,3.739-.716,5.582.052-3.772-.015-8.523,3.272-11.782.046A9.064,9.064,0,0,0,359.14,245.5Z" transform="translate(-350.397 -239.796)"/>
          <path id="Path_109593" data-name="Path 109593" class="cls-26" d="M356.731,236.993a10.019,10.019,0,0,0-8.6,8.277A8.266,8.266,0,0,1,356.731,236.993Z" transform="translate(-348.133 -236.991)"/>
          <path id="Path_109594" data-name="Path 109594" class="cls-26" d="M348.741,248.82a7.848,7.848,0,0,1,2.8-6.374A29.557,29.557,0,0,0,348.741,248.82Z" transform="translate(-348.377 -239.203)"/>
          <path id="Path_109595" data-name="Path 109595" class="cls-26" d="M381.6,249.283a11.275,11.275,0,0,0-2.485-7A6.278,6.278,0,0,1,381.6,249.283Z" transform="translate(-360.695 -239.138)"/>
        </g>
        <g id="Group_14394" data-name="Group 14394" class="cls-27" transform="translate(24.116 16.062)">
          <path id="Path_109596" data-name="Path 109596" class="cls-7" d="M362.976,265.571a.479.479,0,0,0,.615-.227c.017-.052.087-.36.183-.795s.252-.986.4-1.543l.215-.812.165-.71c.094-.412.157-.685.157-.685s-.123.252-.307.632l-.316.649c-.123.235-.256.487-.389.74-.262.507-.537,1.028-.732,1.439s-.324.714-.342.768A.456.456,0,0,0,362.976,265.571Z" transform="translate(-362.604 -260.799)"/>
        </g>
        <g id="Group_14395" data-name="Group 14395" transform="translate(29.414 17.322)">
          <path id="Path_109597" data-name="Path 109597" class="cls-28" d="M371.529,263.771a1.227,1.227,0,1,0,1.381-.832A1.146,1.146,0,0,0,371.529,263.771Z" transform="translate(-371.515 -262.918)"/>
          <path id="Path_109598" data-name="Path 109598" class="cls-10" d="M372.464,264.172a.654.654,0,1,0,.751-.5A.637.637,0,0,0,372.464,264.172Z" transform="translate(-371.896 -263.221)"/>
          <path id="Path_109599" data-name="Path 109599" class="cls-7" d="M374.024,265.331a.229.229,0,0,0,.187.265h0a.229.229,0,0,0,.265-.185h0a.229.229,0,0,0-.185-.266h0a.23.23,0,0,0-.266.186Z" transform="translate(-372.531 -263.819)"/>
          <path id="Path_109600" data-name="Path 109600" class="cls-7" d="M372.265,263.354a.323.323,0,0,0,.262.375h0a.324.324,0,0,0,.375-.262h0a.323.323,0,0,0-.263-.375h0a.322.322,0,0,0-.374.262Z" transform="translate(-371.817 -262.987)"/>
        </g>
        <path id="Path_109601" data-name="Path 109601" class="cls-10" d="M369.192,260.41c.049.09.175.083.355.02a5.155,5.155,0,0,1,.737-.229,4.475,4.475,0,0,1,2.4.4,9.464,9.464,0,0,1,2.193,1.647c.971.841,1.29-.033.618-.687a9.687,9.687,0,0,0-2.443-1.981c-1.056-.634-2.526-1.134-3.26-.744C369.43,259.038,369.144,260.322,369.192,260.41Z" transform="translate(-341.158 -243.885)"/>
        <g id="Group_14396" data-name="Group 14396" transform="translate(22.136 15.697)">
          <path id="Path_109602" data-name="Path 109602" class="cls-28" d="M359.288,261.039a1.227,1.227,0,1,0,1.381-.832A1.144,1.144,0,0,0,359.288,261.039Z" transform="translate(-359.274 -260.186)"/>
          <path id="Path_109603" data-name="Path 109603" class="cls-10" d="M360.222,261.44a.654.654,0,1,0,.752-.5A.637.637,0,0,0,360.222,261.44Z" transform="translate(-359.655 -260.488)"/>
          <path id="Path_109604" data-name="Path 109604" class="cls-7" d="M361.783,262.6a.229.229,0,0,0,.186.266h0a.23.23,0,0,0,.266-.187h0a.23.23,0,0,0-.187-.265h0a.229.229,0,0,0-.265.186Z" transform="translate(-360.29 -261.087)"/>
          <path id="Path_109605" data-name="Path 109605" class="cls-7" d="M359.9,260.592a.337.337,0,0,0,.273.391h0a.337.337,0,0,0,.39-.273h0a.337.337,0,0,0-.273-.39h0a.337.337,0,0,0-.39.273Z" transform="translate(-359.525 -260.238)"/>
        </g>
        <path id="Path_109606" data-name="Path 109606" class="cls-10" d="M360.339,259.556c-.081.062-.194,0-.332-.128a5.077,5.077,0,0,0-.577-.513,4.485,4.485,0,0,0-2.353-.628,9.488,9.488,0,0,0-2.678.6c-1.231.366-1.161-.561-.279-.88a9.682,9.682,0,0,1,3.042-.8c1.224-.142,2.769.008,3.277.667C360.689,258.208,360.42,259.495,360.339,259.556Z" transform="translate(-334.784 -243.26)"/>
        <path id="Path_109607" data-name="Path 109607" class="cls-7" d="M330.991,264.868a62.485,62.485,0,0,0,1.433,7.216c.247-.2,2.552-3.395,2.824-3.564-.589-3.128-.946-5.548-.076-8.558.6-2.08,1.95-3.894,2.489-6,.354-1.386,1.737-2.426,2.8-3.373.961-.857,1.4-.193,2.3-1.115s.718-3.11,1.67-3.95a2.869,2.869,0,0,1,2.9-.677c1.169.219,3.6,1.481,4.775,1.693s2.13-.42,3.3-.225c1.253.215,4.521,1.007,5.132,2.13s-.469,2.821.052,3.982.34.419.954,1.554c.678,1.254.184,2.785.041,4.209-.212,2.16.432,4.327.291,6.487-.219,3.155-3.307,7.246-4.943,10.012.191.251.332,1.482.5,1.753.936-1.738,3.427-5.237,4.158-6.846,2.321-5.108.191-9.626,1.484-15.1.458-1.942-.735-3.764.238-7.4,1.593-6.01.041-7.781-3.042-10.186a14.57,14.57,0,0,0-6.749-2.81l-.046-.008a14.569,14.569,0,0,0-7.3.327c-3.72,1.2-5.786,2.335-6.348,8.527-.331,3.752-2.077,5.055-2.306,7.037C336.867,255.57,330.554,259.273,330.991,264.868Z" transform="translate(-325.662 -233.784)"/>
        <path id="Path_109608" data-name="Path 109608" class="cls-17" d="M381.152,247.574c-.279.847-.884,1.664-.708,2.54.127.633.647,1.135.763,1.771.181,1-.682,1.99-.422,2.969a4.848,4.848,0,0,0,.5.98,1.2,1.2,0,0,1,.124,1.054,1.9,1.9,0,0,0-.741-1.211c-.364-.323-.283-.7-.516-1.121-.533-.977.368-2.144-.046-3.176-.318-.794-1.982-1.326-2.249-2.137a2.532,2.532,0,0,1,.225-1.829c.266-.571.637-1.087.9-1.657a5.094,5.094,0,0,0,.237-3.667,7.7,7.7,0,0,1,1.748,2.491A4.392,4.392,0,0,1,381.152,247.574Z" transform="translate(-344.636 -237.151)"/>
        <path id="Path_109609" data-name="Path 109609" class="cls-17" d="M367.723,247.415c.636-.9.378-2.173.9-3.141a14.1,14.1,0,0,1,.866-1.168,3.161,3.161,0,0,0,.4-2.641,3.353,3.353,0,0,1-1.623,1.976,4.991,4.991,0,0,0-1.9,1.771c-.351.74-.278,1.645-.713,2.338a3.687,3.687,0,0,1-2.282,1.293,7.392,7.392,0,0,0,2.287.5A2.5,2.5,0,0,0,367.723,247.415Z" transform="translate(-338.8 -236.493)"/>
        <path id="Path_109610" data-name="Path 109610" class="cls-17" d="M350.5,244.274a10.129,10.129,0,0,1-.622,1.918c-.413.757-1.155,1.288-1.6,2.026-.637,1.047-.63,2.417-1.378,3.387a5.3,5.3,0,0,1-2.766,1.528,4.748,4.748,0,0,0,2.211-3.279c.118-.75.052-1.521.183-2.269a8.84,8.84,0,0,1,.646-1.912,6.979,6.979,0,0,1,1.174-2.064c1.142-1.236,3-1.5,4.359-2.486A6.349,6.349,0,0,0,350.5,244.274Z" transform="translate(-330.999 -236.76)"/>
        <path id="Path_109611" data-name="Path 109611" class="cls-17" d="M366.248,243.252a3.538,3.538,0,0,0-1.082,1.878,1.89,1.89,0,0,0,.787,1.919A2.146,2.146,0,0,0,367,245.566c.157-.606.194-1.243.41-1.832.188-.515.507-.972.715-1.479a1.813,1.813,0,0,0,.014-1.586,2.44,2.44,0,0,1-.7,1.454C367.075,242.53,366.637,242.866,366.248,243.252Z" transform="translate(-339.517 -236.576)"/>
        <path id="Path_109612" data-name="Path 109612" class="cls-10" d="M369.115,253.146a.9.9,0,0,1-.291-.049,75.955,75.955,0,0,0-23.443-4.141.892.892,0,0,1,.015-1.784h.016a77.729,77.729,0,0,1,23.994,4.239.892.892,0,0,1-.291,1.735Z" transform="translate(-331.15 -239.213)"/>
        <path id="Path_109613" data-name="Path 109613" class="cls-10" d="M369.6,250.426a.888.888,0,0,1-.291-.049,75.968,75.968,0,0,0-23.443-4.142.892.892,0,0,1,.015-1.784h.017a77.793,77.793,0,0,1,23.993,4.239.892.892,0,0,1-.291,1.735Z" transform="translate(-331.345 -238.109)"/>
        <path id="Path_109614" data-name="Path 109614" class="cls-10" d="M359.47,272.457c-.785-.139-3.57-.615-5,.856-.878.906-1.672,1.917-1.583,4.773a7.069,7.069,0,0,0,4.91,4.151,4.874,4.874,0,0,0,5.441-2.81,10.676,10.676,0,0,0,.729-3.063C364.077,273.5,360.7,272.674,359.47,272.457Zm-.781,4.536c-.518-.112-.683.8-1.426.737-2.774-.248-2.392-2.956-1.582-3.47a2.069,2.069,0,0,1,.835-.288,11.793,11.793,0,0,1,5.325.941,2.049,2.049,0,0,1,.686.557,2.077,2.077,0,0,1-.38,2.838s-.008,0-.011,0a1.628,1.628,0,0,1-1.546.111c-.469-.249-.256-1.117-.781-1.189Z" transform="translate(-334.548 -249.389)"/>
        <g id="Group_14397" data-name="Group 14397" transform="translate(47.484 53.259)">
          <path id="Path_109615" data-name="Path 109615" class="cls-16" d="M403.2,323.362h-.018a.994.994,0,0,0-1.014.727l-.249,1.6c-.062.4.291.732.789.735h.018a.994.994,0,0,0,1.014-.727l.249-1.6C404.048,323.694,403.7,323.364,403.2,323.362Z" transform="translate(-401.909 -323.362)"/>
          <path id="Path_109616" data-name="Path 109616" class="cls-16" d="M406.235,323.373h-.018a.994.994,0,0,0-1.014.727l-.3,1.925c-.062.4.291.732.789.734h.018a1,1,0,0,0,1.014-.726l.3-1.926C407.087,323.7,406.733,323.375,406.235,323.373Z" transform="translate(-403.121 -323.366)"/>
          <path id="Path_109617" data-name="Path 109617" class="cls-16" d="M409.315,323.384H409.3a1,1,0,0,0-1.014.726L408,325.965c-.062.4.291.732.789.734h.018a.994.994,0,0,0,1.014-.727l.288-1.854C410.166,323.715,409.813,323.386,409.315,323.384Z" transform="translate(-404.374 -323.371)"/>
          <path id="Path_109618" data-name="Path 109618" class="cls-16" d="M412.293,323.683h-.016a.883.883,0,0,0-.9.645l-.221,1.42c-.055.359.259.65.7.652h.015a.883.883,0,0,0,.9-.645l.221-1.422C413.049,323.977,412.735,323.685,412.293,323.683Z" transform="translate(-405.656 -323.492)"/>
        </g>
      </g>
      <g id="Group_14400" data-name="Group 14400" transform="translate(22.456 24.798)">
        <path id="Path_109619" data-name="Path 109619" class="cls-24" d="M363.917,278.918a1.652,1.652,0,0,1-1.678.5c-.849-.2-1.4-1.081-1.333-1.251s.605.347,1.425.543C363.147,278.923,363.942,278.726,363.917,278.918Z" transform="translate(-360.254 -276.563)"/>
        <g id="Group_14399" data-name="Group 14399" transform="translate(0)">
          <path id="Path_109620" data-name="Path 109620" class="cls-29" d="M365.261,277c-.074.2-1.295.394-2.973,0-.425-.089-.849-.276-1.214-.37a7.077,7.077,0,0,1-1.044-.442c.379.307-.419-.409-.364-.5a.472.472,0,0,1,.156-.14.487.487,0,0,1,.207-.048c.138,0,.157.04.242.048s.719.353.8.364c.169.024.916.277.916.277s.688.237,1.117.326C365.33,276.811,365.327,276.825,365.261,277Z" transform="translate(-359.663 -275.493)"/>
        </g>
      </g>
    </g>
    <g id="Group_14404" data-name="Group 14404" transform="translate(144.21 1050.271)">
      <circle id="f17c58cd-37a1-42e1-9e5f-26c2ec8825b4" class="cls-3" cx="3.378" cy="3.378" r="3.378" transform="translate(0 2.253)"/>
      <path id="b803193f-4714-40c6-8606-08b9dea6d22d" class="cls-8" d="M326.587,465.653l-.085-.127,2.783-1.855,1.908.916,2.745-1.754,5.46,2.329,4.348-2.136,4.222,1.712,5.211-5.924.1.114L348,464.915l-4.247-1.722-4.35,2.137L333.953,463l-2.748,1.756-1.906-.915Z" transform="translate(-317.569 -458.814)"/>
      <path id="Path_109715" data-name="Path 109715" class="cls-7" d="M272.244,468.207a.2.2,0,0,0,.286,0h0l.87-.87v2.145a.2.2,0,0,0,.405,0v-2.146l.87.87a.2.2,0,1,0,.287-.286h0l-1.215-1.215a.2.2,0,0,0-.287,0l-1.215,1.215a.2.2,0,0,0,0,.286Z" transform="translate(-270.225 -462.534)"/>
    </g>
  </g>
</svg>
