<svg id="undraw_empty_cart_co35" xmlns="http://www.w3.org/2000/svg" width="199.105" height="166.211" viewBox="0 0 199.105 166.211">
  <defs>
    <style>
      .cls-1 {
        fill: #2f2e41;
      }

      .cls-2 {
        fill: #6c63ff;
      }

      .cls-3 {
        fill: #f2f2f2;
      }

      .cls-4 {
        fill: #3f3d56;
      }

      .cls-5 {
        fill: #a0616a;
      }

      .cls-6 {
        opacity: 0.1;
      }
    </style>
  </defs>
  <path id="Path_19308" data-name="Path 19308" class="cls-1" d="M187.6,749.455c2.762,5.122,8.623,7.321,8.623,7.321s1.384-6.105-1.378-11.227-8.623-7.321-8.623-7.321S184.836,744.333,187.6,749.455Z" transform="translate(-178.346 -591.073)"/>
  <path id="Path_19309" data-name="Path 19309" class="cls-2" d="M163.15,773.819c4.986,3,6.907,8.958,6.907,8.958s-6.164,1.095-11.15-1.905S152,771.914,152,771.914,158.164,770.819,163.15,773.819Z" transform="translate(-152 -617.122)"/>
  <rect id="Rectangle_18376" data-name="Rectangle 18376" class="cls-3" width="31.11" height="0.444" transform="translate(91.83 7.979)"/>
  <rect id="Rectangle_18377" data-name="Rectangle 18377" class="cls-3" width="0.444" height="4.111" transform="translate(114.052 8.313)"/>
  <rect id="Rectangle_18378" data-name="Rectangle 18378" class="cls-3" width="0.444" height="4.111" transform="translate(100.497 8.313)"/>
  <rect id="Rectangle_18379" data-name="Rectangle 18379" class="cls-3" width="31.11" height="0.444" transform="translate(107.608 29.312)"/>
  <rect id="Rectangle_18380" data-name="Rectangle 18380" class="cls-3" width="0.444" height="4.111" transform="translate(116.052 25.312)"/>
  <rect id="Rectangle_18381" data-name="Rectangle 18381" class="cls-3" width="0.444" height="4.111" transform="translate(129.607 25.312)"/>
  <rect id="Rectangle_18382" data-name="Rectangle 18382" class="cls-3" width="31.11" height="0.444" transform="translate(148.94 39.312)"/>
  <rect id="Rectangle_18383" data-name="Rectangle 18383" class="cls-3" width="0.444" height="4.111" transform="translate(157.384 35.312)"/>
  <rect id="Rectangle_18384" data-name="Rectangle 18384" class="cls-3" width="0.444" height="4.111" transform="translate(170.939 35.312)"/>
  <rect id="Rectangle_18385" data-name="Rectangle 18385" class="cls-3" width="31.11" height="0.444" transform="translate(145.829 142.42)"/>
  <rect id="Rectangle_18386" data-name="Rectangle 18386" class="cls-3" width="0.444" height="4.111" transform="translate(154.273 138.42)"/>
  <rect id="Rectangle_18387" data-name="Rectangle 18387" class="cls-3" width="0.444" height="4.111" transform="translate(167.828 138.42)"/>
  <rect id="Rectangle_18388" data-name="Rectangle 18388" class="cls-3" width="31.11" height="0.444" transform="translate(92.719 71.089)"/>
  <rect id="Rectangle_18389" data-name="Rectangle 18389" class="cls-3" width="0.444" height="4.111" transform="translate(101.163 67.089)"/>
  <rect id="Rectangle_18390" data-name="Rectangle 18390" class="cls-3" width="0.444" height="4.111" transform="translate(114.719 67.089)"/>
  <rect id="Rectangle_18391" data-name="Rectangle 18391" class="cls-3" width="31.11" height="0.444" transform="translate(102.497 124.643)"/>
  <rect id="Rectangle_18392" data-name="Rectangle 18392" class="cls-3" width="0.444" height="4.111" transform="translate(110.941 120.643)"/>
  <rect id="Rectangle_18393" data-name="Rectangle 18393" class="cls-3" width="0.444" height="4.111" transform="translate(124.496 120.643)"/>
  <rect id="Rectangle_18394" data-name="Rectangle 18394" class="cls-3" width="31.11" height="0.444" transform="translate(152.273 108.421)"/>
  <rect id="Rectangle_18395" data-name="Rectangle 18395" class="cls-3" width="0.444" height="4.111" transform="translate(160.717 104.421)"/>
  <rect id="Rectangle_18396" data-name="Rectangle 18396" class="cls-3" width="0.444" height="4.111" transform="translate(174.273 104.421)"/>
  <path id="Path_19310" data-name="Path 19310" class="cls-1" d="M177.892,619.088H125.274v-.378h52.239V600.35H129.7l-2.323-4.839.341-.164,2.22,4.624h47.956Z" transform="translate(-97.436 -463.051)"/>
  <circle id="Ellipse_542" data-name="Ellipse 542" class="cls-4" cx="3.975" cy="3.975" r="3.975" transform="translate(30.866 157.361)"/>
  <circle id="Ellipse_543" data-name="Ellipse 543" class="cls-4" cx="3.975" cy="3.975" r="3.975" transform="translate(70.046 157.361)"/>
  <circle id="Ellipse_544" data-name="Ellipse 544" class="cls-4" cx="2.461" cy="2.461" r="2.461" transform="translate(117.742 74.46)"/>
  <path id="Path_19311" data-name="Path 19311" class="cls-1" d="M287.588,519.36H228.445l-12.8-41.829h85.118l-.077.246Zm-58.862-.379H287.31l12.941-41.072H216.16Z" transform="translate(-201.505 -388.308)"/>
  <path id="Path_19312" data-name="Path 19312" class="cls-3" d="M145.447,450.112H93.5l-11.24-37.1h74.763l-.068.218Z" transform="translate(-63.981 -321.237)"/>
  <path id="Path_19313" data-name="Path 19313" class="cls-1" d="M450.184,351.406l-.366-.1,2.5-9.415h14.53v.379H452.607Z" transform="translate(-349.861 -265.92)"/>
  <rect id="Rectangle_18397" data-name="Rectangle 18397" class="cls-1" width="76.73" height="0.379" transform="translate(18.279 101.905)"/>
  <rect id="Rectangle_18398" data-name="Rectangle 18398" class="cls-1" width="68.069" height="0.379" transform="translate(22.546 115.851)"/>
  <rect id="Rectangle_18399" data-name="Rectangle 18399" class="cls-1" width="0.379" height="41.451" transform="translate(56.513 89.413)"/>
  <rect id="Rectangle_18400" data-name="Rectangle 18400" class="cls-1" width="41.539" height="0.379" transform="matrix(0.065, -0.998, 0.998, 0.065, 71.122, 130.851)"/>
  <rect id="Rectangle_18401" data-name="Rectangle 18401" class="cls-1" width="0.379" height="41.539" transform="translate(39.195 89.424) rotate(-3.729)"/>
  <rect id="Rectangle_18402" data-name="Rectangle 18402" class="cls-1" width="199.105" height="0.444" transform="translate(0 165.551)"/>
  <path id="Path_19314" data-name="Path 19314" class="cls-5" d="M747.411,135.678s3.249,9.246,1.249,10.668,6.747,13.039,6.747,13.039l10.495-2.845-5.747-9.72s-.75-9.72-.75-11.142S747.411,135.678,747.411,135.678Z" transform="translate(-615.101 -121.928)"/>
  <path id="Path_19315" data-name="Path 19315" class="cls-6" d="M747.411,135.678s3.249,9.246,1.249,10.668,6.747,13.039,6.747,13.039l10.495-2.845-5.747-9.72s-.75-9.72-.75-11.142S747.411,135.678,747.411,135.678Z" transform="translate(-615.101 -121.928)"/>
  <path id="Path_19316" data-name="Path 19316" class="cls-1" d="M721.4,409.993s-.948,11.853,0,18.017,2.371,23.232,2.371,23.232,0,32.241,5.215,32.715,9.009.948,9.483-.948-2.371-2.845-.948-3.793,1.9-4.267,0-8.06,0-42.2,0-42.2l9.009,24.181s.948,19.914,1.9,22.758-.948,8.06,2.371,8.534,7.112-2.371,9.008-3.319-2.845-.948-1.9-1.422,3.793-1.9,2.845-2.371-1.9-23.232-1.9-23.232-2.608-48.6-5.927-50.5-5.453,1.37-5.453,1.37Z" transform="translate(-594.541 -330.338)"/>
  <path id="Path_19317" data-name="Path 19317" class="cls-1" d="M754.641,758.784v3.793s-4.267,10.311,0,10.311,7.586,1.068,7.586-.354v-12.8Z" transform="translate(-619.25 -607.062)"/>
  <path id="Path_19318" data-name="Path 19318" class="cls-1" d="M860.613,758.754v3.793s4.267,10.311,0,10.311-7.586,1.068-7.586-.354V759.7Z" transform="translate(-697.247 -607.038)"/>
  <circle id="Ellipse_545" data-name="Ellipse 545" class="cls-5" cx="8.534" cy="8.534" r="8.534" transform="translate(130.413 3.556)"/>
  <path id="Path_19319" data-name="Path 19319" class="cls-2" d="M762.228,201.9s2.371,7.112,6.164,5.69l3.793-1.422,6.638,45.517s-5.215,7.586-12.8,2.845S762.228,201.9,762.228,201.9Z" transform="translate(-625.888 -173.926)"/>
  <path id="Path_19320" data-name="Path 19320" class="cls-4" d="M795.418,179.734l2.134-4.5s12.564,5.927,14.461,7.823a7.4,7.4,0,0,1,1.9,4.741l-3.319,11.853s.948,26.077.948,27.026,3.319,6.164.948,4.267-2.845-3.793-4.741-.948-6.164,6.164-6.164,6.164Z" transform="translate(-652.44 -153.182)"/>
  <path id="Path_19321" data-name="Path 19321" class="cls-5" d="M840.921,349.122,839.5,362.4s-8.534,7.586-6.638,8.06a2.624,2.624,0,0,0,2.845-1.422s3.319,3.319,5.215,1.422,6.638-19.914,6.638-19.914Z" transform="translate(-681.349 -288.433)"/>
  <path id="Path_19322" data-name="Path 19322" class="cls-1" d="M743.444,76.043c-1.892-.068-3.917-.1-5.512.918a8.069,8.069,0,0,0-1.9,1.865c-1.554,1.964-2.9,4.435-2.319,6.872l.67-.261a4.389,4.389,0,0,1-.423,1.88c.094-.274.41.169.326.447l-.738,2.422a2.281,2.281,0,0,1,2.908,1.735c.084-2.814.376-6.04,2.659-7.687a9.2,9.2,0,0,1,4.009-1.31,8.065,8.065,0,0,1,3.887.02,2.8,2.8,0,0,1,2.012,2.971,1.324,1.324,0,0,1,1.492.735,3.862,3.862,0,0,1,.305,1.768c.609.43,1.3-.424,1.549-1.127a10.172,10.172,0,0,0,.786-5.127c-.314-1.721-1.716-3.366-3.466-3.372a1.215,1.215,0,0,0,.316-.855l-1.442-.122a1.594,1.594,0,0,0,.952-.5C748.933,77.951,744.38,76.077,743.444,76.043Z" transform="translate(-604.315 -76.014)"/>
  <path id="Path_19323" data-name="Path 19323" class="cls-4" d="M708.124,176.635s-3.86-3.782-5.249-3.551-3.286,3.551-3.286,3.551-11.379,3.793-10.905,7.586,5.69,22.284,5.69,22.284,4.267,22.284.474,24.655,18.017,8.534,18.491,5.69,1.422-31.293,0-35.56S708.124,176.635,708.124,176.635Z" transform="translate(-569.413 -151.506)"/>
  <path id="Path_19324" data-name="Path 19324" class="cls-4" d="M850.893,223.236h5.863s4.094,18.017,4.568,19.914,1.422,10.905.948,10.905-9.957-1.9-9.957-.474Z" transform="translate(-695.588 -190.521)"/>
  <path id="Path_19325" data-name="Path 19325" class="cls-3" d="M765.452,322.125H743.008c-2.19-10.075-2.373-19.81,0-29.11h22.444C761.83,302.148,761.6,311.815,765.452,322.125Z" transform="translate(-610.345 -244.793)"/>
  <path id="Path_19326" data-name="Path 19326" class="cls-5" d="M707.938,353.592l6.638,2.845s12.8,1.9,12.8-3.319-12.8-2.371-12.8-2.371l-4.267-1.364Z" transform="translate(-584.4 -288.636)"/>
  <path id="Path_19327" data-name="Path 19327" class="cls-4" d="M678.008,210.435l-5.69,1.422-4.267,25.129s-1.422,6.638.948,7.112,9.008,4.267,9.008,4.267.948-7.112,2.845-7.112l-4.741-3.793,2.845-16.595Z" transform="translate(-553.047 -180.564)"/>
  <rect id="Rectangle_18403" data-name="Rectangle 18403" class="cls-3" width="31.11" height="0.444" transform="translate(13.388 78.422)"/>
  <rect id="Rectangle_18404" data-name="Rectangle 18404" class="cls-3" width="0.444" height="4.111" transform="translate(21.832 74.422)"/>
  <rect id="Rectangle_18405" data-name="Rectangle 18405" class="cls-3" width="0.444" height="4.111" transform="translate(35.388 74.422)"/>
  <rect id="Rectangle_18406" data-name="Rectangle 18406" class="cls-3" width="31.11" height="0.444" transform="translate(24.277 12.646)"/>
  <rect id="Rectangle_18407" data-name="Rectangle 18407" class="cls-3" width="0.444" height="4.111" transform="translate(46.498 12.979)"/>
  <rect id="Rectangle_18408" data-name="Rectangle 18408" class="cls-3" width="0.444" height="4.111" transform="translate(32.943 12.979)"/>
  <rect id="Rectangle_18409" data-name="Rectangle 18409" class="cls-3" width="31.11" height="0.444" transform="translate(55.609 56.422)"/>
  <rect id="Rectangle_18410" data-name="Rectangle 18410" class="cls-3" width="0.444" height="4.111" transform="translate(77.831 56.756)"/>
  <rect id="Rectangle_18411" data-name="Rectangle 18411" class="cls-3" width="0.444" height="4.111" transform="translate(64.276 56.756)"/>
  <rect id="Rectangle_18412" data-name="Rectangle 18412" class="cls-3" width="31.11" height="0.444" transform="translate(2.722 56.2)"/>
  <rect id="Rectangle_18413" data-name="Rectangle 18413" class="cls-3" width="0.444" height="4.111" transform="translate(24.943 56.533)"/>
  <rect id="Rectangle_18414" data-name="Rectangle 18414" class="cls-3" width="0.444" height="4.111" transform="translate(11.388 56.533)"/>
  <rect id="Rectangle_18415" data-name="Rectangle 18415" class="cls-3" width="31.11" height="0.444" transform="translate(40.054 33.979)"/>
  <rect id="Rectangle_18416" data-name="Rectangle 18416" class="cls-3" width="0.444" height="4.111" transform="translate(48.498 29.979)"/>
  <rect id="Rectangle_18417" data-name="Rectangle 18417" class="cls-3" width="0.444" height="4.111" transform="translate(62.053 29.979)"/>
</svg>
