<svg id="Group_16560" data-name="Group 16560" xmlns="http://www.w3.org/2000/svg" xmlns:xlink="http://www.w3.org/1999/xlink" width="484.018" height="357.022" viewBox="0 0 484.018 357.022">
  <defs>
    <linearGradient id="linear-gradient" x1="0.5" y1="1" x2="0.5" gradientUnits="objectBoundingBox">
      <stop offset="0" stop-color="gray" stop-opacity="0.251"/>
      <stop offset="0.54" stop-color="gray" stop-opacity="0.122"/>
      <stop offset="1" stop-color="gray" stop-opacity="0.102"/>
    </linearGradient>
  </defs>
  <g id="Group_10656" data-name="Group 10656">
    <path id="Path_18684" data-name="Path 18684" d="M73.4,723.55s-2.416,3.159,1.113,7.92,6.446,8.8,5.28,11.774c0,0-5.333-8.862-9.68-8.989S68.625,728.879,73.4,723.55Z" transform="translate(-60.054 -424.673)" fill="#6c63ff"/>
    <path id="Path_18685" data-name="Path 18685" d="M73.391,723.55a3.8,3.8,0,0,0-.493.99c-4.233,4.972-6.49,9.614-2.42,9.728,3.788.11,8.36,6.886,9.425,8.6a4.052,4.052,0,0,1-.128.391s-5.333-8.861-9.68-8.989S68.617,728.879,73.391,723.55Z" transform="translate(-60.046 -424.673)" opacity="0.1"/>
    <path id="Path_18686" data-name="Path 18686" d="M70.1,731.783c0,1.113.123,2.015.277,2.015s.277-.88.277-2.015-.154-.59-.308-.59S70.1,730.67,70.1,731.783Z" transform="translate(-61.248 -428.879)" fill="#ffd037"/>
    <path id="Path_18687" data-name="Path 18687" d="M65.837,734.752c.977.532,1.83.853,1.905.717s-.66-.673-1.637-1.206-.594-.145-.664,0S64.86,734.22,65.837,734.752Z" transform="translate(-58.529 -430.52)" fill="#ffd037"/>
    <path id="Path_18625" data-name="Path 18625" d="M61.83,433.31c7.643,29.538,23.809,55.071,49.355,67.448,53.109,25.723,172.882,12.457,262.274-2.772,46.24-7.876,86.883-29.612,116.408-60.2Z" transform="translate(-56.616 -262.142)" fill="#fff" opacity="0.1"/>
    <path id="Path_18626" data-name="Path 18626" d="M546.313,76.426H497.266a3.854,3.854,0,1,1,0-7.669h8.483a3.854,3.854,0,1,1,0-7.669h-6.055a3.854,3.854,0,1,1,0-7.669h25.6a73.363,73.363,0,0,0-19.972-4.981c-69.807-8.109-94.729-2.746-103.52,2.768a103.189,103.189,0,0,1-35.878,14.23c-43.068,8.039-123.611,17.71-196.612-3.08C133.029,52,106.061,69.474,89.9,98.682H554.831a63.114,63.114,0,0,0-5.759-23.188,4.475,4.475,0,0,1-2.759.933Z" transform="translate(-72.335 -44.294)" fill="#fff" opacity="0.1"/>
    <path id="Path_18627" data-name="Path 18627" d="M51.037,293.19a177.117,177.117,0,0,0,1.9,51.534l430.624,14.252a182.69,182.69,0,0,0,29.92-41.281Zm170.317,36.762h-8.479a3.854,3.854,0,1,1,0,7.669H163.828a3.854,3.854,0,1,1,0-7.669h8.483a3.854,3.854,0,1,1,0-7.669h-6.059a3.854,3.854,0,1,1,0-7.669H215.3a3.854,3.854,0,1,1,0,7.669h6.055a3.854,3.854,0,1,1,0,7.669Z" transform="translate(-49.981 -183.674)" fill="#fff" opacity="0.1"/>
    <path id="Path_18628" data-name="Path 18628" d="M533.916,168.5,63.78,178.84a155.982,155.982,0,0,0-11.26,43.926H525.679a166.882,166.882,0,0,0,6.829-28A119.863,119.863,0,0,0,533.916,168.5ZM147.975,202.4H139.5a3.856,3.856,0,1,1,0,7.674H90.448a3.856,3.856,0,1,1,0-7.674h8.483a3.854,3.854,0,1,1,0-7.669H92.873a3.854,3.854,0,1,1,0-7.669H141.92a3.854,3.854,0,1,1,0,7.669h6.054a3.854,3.854,0,1,1,0,7.669Z" transform="translate(-51.403 -113.849)" fill="#fff" opacity="0.1"/>
    <ellipse id="Ellipse_410" data-name="Ellipse 410" cx="196.674" cy="18.093" rx="196.674" ry="18.093" transform="translate(43.168 307.492)" fill="#fff" opacity="0.1"/>
    <path id="Path_18629" data-name="Path 18629" d="M929.134,368.237a.585.585,0,0,1,0-.092v-.136h0a3.754,3.754,0,0,0-.559-1.412,11.128,11.128,0,0,0-4.074-3.854c-2.9-1.593-6.895-2.275-8.057-5.315a16.268,16.268,0,0,1-.541-2.952,8.927,8.927,0,0,0-5.892-6.7c-1.382-.462-2.873-.59-4.215-1.162-3-1.276-4.585-4.422-5.927-7.33q-2.605-5.632-5.21-11.269a4.382,4.382,0,0,1-4.264-.48,8.845,8.845,0,0,1-2.759-3.41c-1.791-3.476-2.561-7.414-4.664-10.723s-6.306-5.923-10.019-4.484a17.147,17.147,0,0,1-2.244.928c-3.182.744-6.7-2.891-9.425-1.127a3.083,3.083,0,0,0-1.069,1.17.5.5,0,0,1,0-.088,5.632,5.632,0,0,0-.581,2.3h0v.554c0,.634.04,1.276.049,1.918a8.576,8.576,0,0,1-.123,1.61v-.044a5.416,5.416,0,0,1-.229.88c-.708,1.9-2.671,3.146-3.59,4.932v-.088a4.679,4.679,0,0,0-.268.6,4.493,4.493,0,0,0-.251,1.456c-.079,3.357,3.48,6.516,3.894,10.12.295,2.552.88,3.37,3.049,4.814l.475.317c-.189,0-.383.026-.6.031a1.466,1.466,0,0,0-.251.026,2.684,2.684,0,0,0-2.261.4c-1.663,1.32-5.6.3-7.344,0s-7.731.515-8.567,3.833-2.27,10.164-2.27,10.164,0,4.343-.533,5.152a.262.262,0,0,0,0,.176c0,1.219.044,8.545-1.135,10.433a4.265,4.265,0,0,0-.053,2.609c-1.24,1.6-2.406,3.463-2.2,4.686.378,2.5,5.456,10.375,12.734,6.16,0,0,4.14-7.573-1.069-11.6l.225-.88c1.575,1.936,2.741,3.327,2.741,3.327s.062.163.159.44h-.159a20.682,20.682,0,0,1,1.223,5.755,7.03,7.03,0,0,1-.387,2.116h.136a4.5,4.5,0,0,1-.136.44,3.839,3.839,0,0,1-1.368,1.852c-3.639,2.578-7.806,20.993-7.806,20.993s-8.254,29.766-9.9,31.461c-1.364,1.39,7.208,5.306,13.64,4.84a10.49,10.49,0,0,0,2.64-.5c.04.44.084.88.128,1.28.136,1.32.277,2.543.365,2.926.229.959.682,10.754.682,10.754a69.1,69.1,0,0,0-.7,10.789c0,.3.04.594.066.88l-.8.123c-1.214,2.728,3.789,25.489,4.47,27.4a18.215,18.215,0,0,1,.757,4.642,5.063,5.063,0,0,0-.075,2.5,6.091,6.091,0,0,1,.44,1.694,4.661,4.661,0,0,0,.154,2.429,4.6,4.6,0,0,1-.075,2.64s-.15,6.631-1.514,10.239a5.9,5.9,0,0,0,.946,5.843,3.632,3.632,0,0,0,.308.356s7.524.062,8.849,0h.171c.533-.075,1.9-6.041.682-8.914a10.846,10.846,0,0,1-.15-6.411v-5.227s1.364-1.258,0-3.96-1.14-3.52-1.14-3.52,1.518-4.347-.075-5.746.3-6.706.3-6.706l.536-17.688a6.942,6.942,0,0,0-.858-.22c-.031-.29-.062-.59-.092-.906-.313-3.2-.581-7.559.114-8.8s1.03-12.074,1.14-19.6l6.934.264c.145,3.52.3,6.732.4,7.141.229.959.687,10.754.687,10.754a68.9,68.9,0,0,0-.709,10.789c0,.3.04.594.066.88l-.8.123c-1.214,2.728,3.789,25.489,4.471,27.4a18.329,18.329,0,0,1,.761,4.642,5.1,5.1,0,0,0-.079,2.5,6.091,6.091,0,0,1,.44,1.694,4.665,4.665,0,0,0,.154,2.429,4.6,4.6,0,0,1-.075,2.64s-.15,6.631-1.514,10.239a5.9,5.9,0,0,0,.977,5.834,3.626,3.626,0,0,0,.308.357s7.524.062,8.849,0h.172c.532-.075,1.9-6.041.682-8.915a10.843,10.843,0,0,1-.15-6.411v-5.218s1.364-1.258,0-3.96-1.14-3.52-1.14-3.52,1.518-4.347-.075-5.746.3-6.706.3-6.706l.545-17.688a6.788,6.788,0,0,0-.88-.22c-.031-.29-.062-.59-.092-.906-.313-3.2-.581-7.559.114-8.8.559-1.017.88-7.564,1.025-13.957,0-.44,0-.88.035-1.32a68.234,68.234,0,0,0,9.5-1.065s-3.709-13.117-2.574-15.251c.488-.92-.216-5.817-1.179-11.093a7.709,7.709,0,0,0,4.743,1.716c1.659,3.19,6.706,10.53,9.548,11.66,3.335,1.32.832-10.384-.757-12.078a14.246,14.246,0,0,1-1.883-3.023c.044-.053.092-.1.136-.145s.079-12.452-.682-12.228-1.667-1.843-1.667-1.843l-2.35-20.623-.986-8.633h0c.823.607,1.8.994,2.64,1.6,2.288,1.676,3.036,4.62,4.039,7.225a11.868,11.868,0,0,0,3.894,5.614c1.905,1.346,4.7,1.7,6.6.339,1.76-1.281,2.28-3.591,2.667-5.7,3.194,1.122,7.07-1.879,6.657-5.157-.1-.809-.4-1.694.022-2.4.845-1.4,3.52-.585,4.4-1.967a1.467,1.467,0,0,0,.22-.8A.533.533,0,0,0,929.134,368.237Zm-42.729,11.343c-.048.788,1.034,7.115,1.914,12.122a15.364,15.364,0,0,0-5.02-8.734,3.955,3.955,0,0,0-.035-.44h.035s-.119-1.259-.136-3.049a33.577,33.577,0,0,1,.353-4.743v-.04h-.058a2.484,2.484,0,0,1,.058-.4,14.278,14.278,0,0,1,1.069-3.846,10.688,10.688,0,0,1,.814-1.382C885.868,373.324,886.45,378.784,886.405,379.581Zm2.367,14.661c.387,2.161.664,3.679.664,3.679l2.337,16.043v.075c-1.259-6.772-2.865-13.909-2.865-13.909A27.7,27.7,0,0,0,888.772,394.242Z" transform="translate(-488.844 -192.096)" fill="url(#linear-gradient)"/>
    <path id="Path_18630" data-name="Path 18630" d="M889.027,336.164c-.44-4.066-4.84-7.572-3.52-11.44.717-2.108,2.961-3.4,3.718-5.491a12.833,12.833,0,0,0,.282-4.369c0-1.47.347-3.111,1.571-3.925,2.64-1.76,6.037,1.861,9.117,1.122a16.134,16.134,0,0,0,2.169-.924c3.595-1.43,7.66,1.175,9.68,4.466s2.777,7.216,4.51,10.675a8.752,8.752,0,0,0,2.666,3.392,4.145,4.145,0,0,0,4.128.48l5.038,11.22c1.32,2.891,2.834,6.024,5.72,7.3,1.294.568,2.737.7,4.075,1.157a8.8,8.8,0,0,1,5.72,6.666,16.415,16.415,0,0,0,.523,2.944c1.122,3.027,4.981,3.7,7.793,5.28a10.9,10.9,0,0,1,3.96,3.832,2.539,2.539,0,0,1,.348,2.508c-.849,1.373-3.432.563-4.251,1.958a3.656,3.656,0,0,0,0,2.394c.4,3.26-3.353,6.248-6.442,5.131-.374,2.1-.88,4.4-2.578,5.672-1.826,1.364-4.532,1-6.376-.334a11.791,11.791,0,0,1-3.762-5.588c-.973-2.6-1.7-5.526-3.911-7.194-.8-.6-1.76-.986-2.543-1.588-1.76-1.346-2.64-3.568-3.269-5.72a59.874,59.874,0,0,0-2.64-7.977,12.007,12.007,0,0,0-5.6-6.05c-2.4-1.078-5.161-1.008-7.638-1.883-4.264-1.5-7.419-5.091-11.66-6.78a18.878,18.878,0,0,1-3.828-2.165C889.889,339.522,889.308,338.707,889.027,336.164Z" transform="translate(-517.733 -193.34)" fill="#3f3d56"/>
    <g id="Group_10200" data-name="Group 10200" transform="translate(367.558 118.667)" opacity="0.1">
      <path id="Path_18631" data-name="Path 18631" d="M894.72,320.352a4.422,4.422,0,0,0,.238-.532,12.944,12.944,0,0,0,.282-4.369,7.831,7.831,0,0,1,.136-1.461,6.158,6.158,0,0,0-.577,2.781A20.2,20.2,0,0,1,894.72,320.352Z" transform="translate(-890.589 -313.99)"/>
      <path id="Path_18632" data-name="Path 18632" d="M943.706,402.122c-1.826,1.36-4.532,1-6.376-.339a11.6,11.6,0,0,1-3.744-5.593c-.973-2.6-1.694-5.526-3.912-7.194-.8-.6-1.76-.99-2.539-1.588-1.76-1.346-2.64-3.568-3.273-5.7a59.242,59.242,0,0,0-2.641-7.977,12.006,12.006,0,0,0-5.6-6.05c-2.393-1.078-5.156-1.008-7.634-1.883-4.268-1.5-7.423-5.091-11.66-6.781a19.107,19.107,0,0,1-3.832-2.165c-2.086-1.439-2.64-2.253-2.948-4.792-.44-3.81-4.312-7.132-3.709-10.723a5.527,5.527,0,0,0-.26.6c-1.32,3.872,3.08,7.379,3.52,11.44.286,2.539.88,3.353,2.948,4.792a19.139,19.139,0,0,0,3.832,2.165c4.238,1.69,7.392,5.28,11.66,6.78,2.477.88,5.241.805,7.634,1.883a12.1,12.1,0,0,1,5.6,6.05,53.843,53.843,0,0,1,2.64,7.977c.647,2.129,1.5,4.352,3.274,5.7.8.6,1.76.99,2.539,1.588,2.2,1.667,2.939,4.6,3.912,7.194a11.788,11.788,0,0,0,3.767,5.583c1.844,1.338,4.55,1.7,6.376.339a6.5,6.5,0,0,0,2.151-3.661A5.4,5.4,0,0,1,943.706,402.122Z" transform="translate(-885.331 -329.306)"/>
      <path id="Path_18633" data-name="Path 18633" d="M1038.272,447.362a1.85,1.85,0,0,0-.211,1.03c.994-.981,3.238-.4,4.021-1.667a1.6,1.6,0,0,0,.2-1.034C1041.265,446.658,1039.021,446.082,1038.272,447.362Z" transform="translate(-970.856 -387.741)"/>
      <path id="Path_18634" data-name="Path 18634" d="M1023.513,463.18c-.083.44-.167.911-.273,1.369a5.166,5.166,0,0,0,6.244-4.048C1028.414,462.6,1025.774,464,1023.513,463.18Z" transform="translate(-962.559 -396.035)"/>
    </g>
    <path id="Path_18635" data-name="Path 18635" d="M901.324,370.487s1.465,2.957-2.86,3.018,2.785,19.2,2.785,19.2l7.189,9.152,8.946-4.84.515-13.35.66-8.065s-8.36-2.715-6.82-6.305S901.324,370.487,901.324,370.487Z" transform="translate(-524.346 -225.548)" fill="#fbbebe"/>
    <path id="Path_18636" data-name="Path 18636" d="M965.75,542.509s5.28,5.2,11.44-1.7l-4.73-5.021h-5.984Z" transform="translate(-562.807 -319.529)" fill="#575a89"/>
    <path id="Path_18637" data-name="Path 18637" d="M966.126,535.79l-.726,6.719s5.28,5.2,11.44-1.7" transform="translate(-562.611 -319.529)" opacity="0.1"/>
    <path id="Path_18638" data-name="Path 18638" d="M979.775,537.87s2.125,5.575,3.665,7.26,3.96,13.346.735,12.026-9.385-11.146-9.755-12.831a57.079,57.079,0,0,1-.51-6.455Z" transform="translate(-567.376 -320.694)" fill="#fbbebe"/>
    <path id="Path_18639" data-name="Path 18639" d="M832.42,544.3l28.451,1.1-3.3-12.029-14.331-.291Z" transform="translate(-466.147 -298.524)" fill="#575a89"/>
    <path id="Path_18640" data-name="Path 18640" d="M841.41,544.3l28.455,1.1-3.3-12.029-14.336-.291Z" transform="translate(-471.181 -298.524)" opacity="0.1"/>
    <path id="Path_18641" data-name="Path 18641" d="M886.585,613.863c-.673,1.254-.414,5.593-.11,8.8.194,2.042.4,3.612.4,3.612s-10.634,3.3-12.245.44a8.7,8.7,0,0,1-.682-3.489,70.364,70.364,0,0,1,.682-10.74s-.44-9.75-.66-10.705c-.088-.383-.224-1.6-.356-2.913-.193-1.954-.379-4.127-.379-4.127l14.52-7.7s0,1.443-.026,3.665C887.655,597.684,887.421,612.323,886.585,613.863Z" transform="translate(-511.002 -348.229)" fill="#fbbebe"/>
    <path id="Path_18642" data-name="Path 18642" d="M887.787,671.291s-10.635,3.3-12.245.44a8.7,8.7,0,0,1-.682-3.489c2.2-.335,8.9-1.258,12.523-.563C887.576,669.72,887.787,671.291,887.787,671.291Z" transform="translate(-511.909 -393.244)" opacity="0.1"/>
    <path id="Path_18643" data-name="Path 18643" d="M887.012,727.851h-.167c-1.28.048-8.558,0-8.558,0a4.03,4.03,0,0,1-.3-.352,6,6,0,0,1-.946-5.808c1.32-3.595,1.465-10.195,1.465-10.195a4.724,4.724,0,0,0,.074-2.64,4.767,4.767,0,0,1-.15-2.42,6.257,6.257,0,0,0-.44-1.685,5.031,5.031,0,0,1,.075-2.495,18.66,18.66,0,0,0-.735-4.62c-.66-1.905-5.5-24.565-4.325-27.28,0,0,10.265-1.76,14.155-.44l-.515,17.6s-1.835,5.28-.294,6.675.075,5.72.075,5.72-.22.805,1.1,3.52,0,3.96,0,3.96V712.6a11.133,11.133,0,0,0,.145,6.38C888.843,721.836,887.527,727.758,887.012,727.851Z" transform="translate(-510.769 -394.364)" fill="#3f3d56"/>
    <path id="Path_18644" data-name="Path 18644" d="M933.875,611.007c-.673,1.254-.413,5.592-.11,8.8.193,2.042.4,3.613.4,3.613s-10.635,3.3-12.246.44a8.7,8.7,0,0,1-.682-3.489,70.336,70.336,0,0,1,.682-10.74s-.44-9.751-.66-10.705c-.119-.515-.326-5.425-.489-9.83-.136-3.757-.246-7.154-.246-7.154l14.52,2.244s0,6.385-.18,12.945C934.711,603.492,934.416,610.013,933.875,611.007Z" transform="translate(-537.484 -345.373)" fill="#fbbebe"/>
    <path id="Path_18645" data-name="Path 18645" d="M935.077,671.291s-10.635,3.3-12.245.44a8.7,8.7,0,0,1-.682-3.489c2.2-.335,8.9-1.258,12.523-.563C934.866,669.72,935.077,671.291,935.077,671.291Z" transform="translate(-538.391 -393.244)" opacity="0.1"/>
    <path id="Path_18646" data-name="Path 18646" d="M934.286,727.828h-.167c-1.281.049-8.558,0-8.558,0a3.969,3.969,0,0,1-.3-.352,6,6,0,0,1-.946-5.808c1.32-3.613,1.452-10.213,1.452-10.213a4.726,4.726,0,0,0,.075-2.64,4.765,4.765,0,0,1-.15-2.42,6.284,6.284,0,0,0-.44-1.686,5.027,5.027,0,0,1,.075-2.495,18.688,18.688,0,0,0-.735-4.62c-.66-1.905-5.5-24.565-4.325-27.28,0,0,10.265-1.76,14.155-.44l-.515,17.6s-1.835,5.28-.295,6.675.075,5.72.075,5.72-.22.805,1.1,3.52,0,3.96,0,3.96v5.205a11.132,11.132,0,0,0,.145,6.38C936.1,721.8,934.8,727.736,934.286,727.828Z" transform="translate(-537.234 -394.342)" fill="#3f3d56"/>
    <ellipse id="Ellipse_411" data-name="Ellipse 411" cx="10.34" cy="10.34" rx="10.34" ry="10.34" transform="translate(372.358 127.717)" opacity="0.1"/>
    <ellipse id="Ellipse_412" data-name="Ellipse 412" cx="10.34" cy="10.34" rx="10.34" ry="10.34" transform="translate(372.358 127.277)" fill="#fbbebe"/>
    <path id="Path_18647" data-name="Path 18647" d="M873.24,594.74l14.52-7.7s0,1.443-.026,3.665c-2.121,1.267-5.32,3.172-8.4,4.972-1.672.981-3.3,1.932-4.7,2.728a6.208,6.208,0,0,1-1.016.44C873.425,596.914,873.24,594.74,873.24,594.74Z" transform="translate(-511.002 -348.229)" opacity="0.1"/>
    <path id="Path_18648" data-name="Path 18648" d="M935.072,584.144s0,6.384-.18,12.945h-.053a24.335,24.335,0,0,1-3.251-.1c-1.9-.2-3.415-.7-3.961-1.7-1.1-1.936-4.2-4.4-6.811-6.235-.136-3.758-.247-7.155-.247-7.155Z" transform="translate(-537.506 -345.352)" opacity="0.1"/>
    <path id="Path_18649" data-name="Path 18649" d="M885.988,414.539a41.9,41.9,0,0,0-.212,8.637c6.671,5.5,5.426,17.085,5.426,17.085s5.135,23.47,4.035,25.6,2.491,15.18,2.491,15.18a64.038,64.038,0,0,1-9.271,1.065,24.417,24.417,0,0,1-3.252-.1c-1.9-.2-3.414-.7-3.96-1.7-2.05-3.59-10.925-8.945-10.925-8.945s-5.623,3.37-10.859,6.437c-1.672.981-3.3,1.932-4.7,2.728a8.735,8.735,0,0,1-3.674,1.008c-6.226.462-14.52-3.437-13.2-4.818,1.615-1.69,9.61-31.315,9.61-31.315s4.03-18.335,7.55-20.9a3.806,3.806,0,0,0,1.32-1.844c1.205-3.348-.81-8.716-.81-8.716s-11.365-14.005-10.855-14.815.515-5.13.515-5.13,1.395-6.82,2.2-10.12,6.6-4.11,8.285-3.815,5.5,1.32,7.106,0,4.33.515,4.33.515l6.68,1.839,6.006-3.52s6.019.308,6.534,1.113,8.435,2.35,8.435,2.35c4.03,2.71,3.885,15.62,3.885,15.62s-9.68,8.431-11.66,12.76A14.546,14.546,0,0,0,885.988,414.539Z" transform="translate(-491.123 -231.666)" fill="#575a89"/>
    <path id="Path_18650" data-name="Path 18650" d="M959.474,418.2l2.2,1.76,2.275,20.46,2.271,20.535s.88,2.055,1.615,1.835.66,12.171.66,12.171-8.421-5.179-11.44,1.7l-2.35-16.584s-3.01-16.94-2.935-18.26-1.54-15.62-1.54-15.62Z" transform="translate(-554.116 -253.68)" fill="#575a89"/>
    <path id="Path_18651" data-name="Path 18651" d="M853.519,420.37l-1.615,1.98s.15,8.505-1.1,10.56,3.45,14.08,5.21,13.345,5.72-19.505,5.72-19.725S853.519,420.37,853.519,420.37Z" transform="translate(-498.321 -254.896)" fill="#575a89"/>
    <path id="Path_18652" data-name="Path 18652" d="M850.816,447.87s-5.135,5.205-4.77,7.7,5.28,10.331,12.32,6.121C858.366,461.691,864.9,449.41,850.816,447.87Z" transform="translate(-495.763 -270.295)" fill="#575a89"/>
    <path id="Path_18653" data-name="Path 18653" d="M893.417,800.774c-1.281.048-8.558,0-8.558,0a3.942,3.942,0,0,1-.3-.352C886.421,799.788,890.443,798.838,893.417,800.774Z" transform="translate(-517.341 -467.274)" opacity="0.1"/>
    <path id="Path_18654" data-name="Path 18654" d="M940.727,800.774c-1.281.048-8.558,0-8.558,0a3.961,3.961,0,0,1-.3-.352C933.722,799.788,937.744,798.838,940.727,800.774Z" transform="translate(-543.834 -467.274)" opacity="0.1"/>
    <path id="Path_18655" data-name="Path 18655" d="M876.927,509.11c-1.123,10.762-.753,32.12-.519,41.607-1.672.981-3.3,1.932-4.7,2.728a8.722,8.722,0,0,1-3.674,1.008C867.563,551.584,874.022,522.116,876.927,509.11Z" transform="translate(-508.071 -304.59)" opacity="0.1"/>
    <path id="Path_18656" data-name="Path 18656" d="M889.653,495.23c-.031.154-.563,2.495-1.373,6.107C888.6,498.253,889.037,496.04,889.653,495.23Z" transform="translate(-519.424 -296.816)" opacity="0.1"/>
    <path id="Path_18657" data-name="Path 18657" d="M916.438,492.59s6.234,39.161-12.228,44C904.206,536.573,916.983,534.633,916.438,492.59Z" transform="translate(-528.345 -295.337)" opacity="0.1"/>
    <path id="Path_18658" data-name="Path 18658" d="M942.522,545.185a24.386,24.386,0,0,1-3.252-.1l-4.98-53.544C937.467,493.617,941.268,531.616,942.522,545.185Z" transform="translate(-545.19 -294.749)" opacity="0.1"/>
    <path id="Path_18659" data-name="Path 18659" d="M899.289,334.972a2.726,2.726,0,0,1,.981.1,4.282,4.282,0,0,1,1.241.933,4.422,4.422,0,0,0,4.2.814,5.537,5.537,0,0,1,1.58-.44,2.516,2.516,0,0,1,2,1.32c.435.7.66,1.54,1.034,2.292a2.883,2.883,0,0,0,1.8,1.65,3.142,3.142,0,0,1,1.144.264,1.625,1.625,0,0,1,.493.682c.686,1.483,1.232,3.234,2.7,3.96a4.036,4.036,0,0,0,1.72.374,3.6,3.6,0,0,0,1.76-.317,3.371,3.371,0,0,0,1.294-1.289,8.041,8.041,0,0,0,.805-5.144,14.154,14.154,0,0,0-2.3-6.186,12.914,12.914,0,0,0-11.814-5.452,16.441,16.441,0,0,0-2.354.44,12.861,12.861,0,0,0-7.243,4.492,15.259,15.259,0,0,1-1.351,1.663C897.74,335.056,898.515,334.99,899.289,334.972Z" transform="translate(-524.29 -203.435)" opacity="0.1"/>
    <path id="Path_18660" data-name="Path 18660" d="M899.289,333.972a2.727,2.727,0,0,1,.981.1,4.284,4.284,0,0,1,1.241.933,4.422,4.422,0,0,0,4.2.814,5.543,5.543,0,0,1,1.58-.44,2.516,2.516,0,0,1,2,1.32c.435.7.66,1.54,1.034,2.293a2.883,2.883,0,0,0,1.8,1.65,3.143,3.143,0,0,1,1.144.264,1.625,1.625,0,0,1,.493.682c.686,1.483,1.232,3.234,2.7,3.96a4.032,4.032,0,0,0,1.72.374,3.593,3.593,0,0,0,1.76-.317,3.372,3.372,0,0,0,1.294-1.289,8.041,8.041,0,0,0,.805-5.143,14.154,14.154,0,0,0-2.3-6.187,12.914,12.914,0,0,0-11.814-5.452,16.467,16.467,0,0,0-2.354.44,12.862,12.862,0,0,0-7.243,4.492,15.242,15.242,0,0,1-1.351,1.663C897.74,334.056,898.515,333.99,899.289,333.972Z" transform="translate(-524.29 -202.874)" fill="#3f3d56"/>
    <path id="Path_18661" data-name="Path 18661" d="M874.452,398.2s.515,4.11-1.245,5.135S874.452,398.2,874.452,398.2Z" transform="translate(-510.674 -242.48)" opacity="0.1"/>
    <path id="Path_18662" data-name="Path 18662" d="M961.57,464.538s4.181-6.16,4.77-4.4S961.57,464.538,961.57,464.538Z" transform="translate(-560.466 -276.987)" opacity="0.1"/>
    <path id="Path_18663" data-name="Path 18663" d="M962.24,470.7s4.123-5.06,4.519-3.08S962.24,470.7,962.24,470.7Z" transform="translate(-560.842 -281.094)" opacity="0.1"/>
    <path id="Path_18664" data-name="Path 18664" d="M903.092,459.3a6.693,6.693,0,0,1-4.145-1.364h-.361a6.512,6.512,0,0,1-4.528,1.7,6.423,6.423,0,0,1-4.695-1.883h-.48a6.912,6.912,0,0,1-8.923-.163l-1.721-.031s2.016,5.368.81,8.716l29.406.524a41.852,41.852,0,0,1,.211-8.637v-.04l-1.615-.031A6.765,6.765,0,0,1,903.092,459.3Z" transform="translate(-513.802 -275.722)" opacity="0.1"/>
    <path id="Path_18665" data-name="Path 18665" d="M903.092,461.3a6.693,6.693,0,0,1-4.145-1.364h-.361a6.513,6.513,0,0,1-4.528,1.7,6.424,6.424,0,0,1-4.695-1.883h-.48a6.912,6.912,0,0,1-8.923-.163l-1.721-.031s2.016,5.368.81,8.716l29.406.524a41.851,41.851,0,0,1,.211-8.637v-.04l-1.615-.031A6.764,6.764,0,0,1,903.092,461.3Z" transform="translate(-513.802 -276.842)" opacity="0.1"/>
    <path id="Path_18666" data-name="Path 18666" d="M903.092,460.3a6.694,6.694,0,0,1-4.145-1.364h-.361a6.513,6.513,0,0,1-4.528,1.7,6.424,6.424,0,0,1-4.695-1.883h-.48a6.912,6.912,0,0,1-8.923-.163l-1.721-.031s2.016,5.368.81,8.717l29.406.524a41.853,41.853,0,0,1,.211-8.637v-.04l-1.615-.031A6.764,6.764,0,0,1,903.092,460.3Z" transform="translate(-513.802 -276.282)" fill="#3f3d56"/>
    <path id="Path_18667" data-name="Path 18667" d="M931.75,395.83s6.191.4,6.23,1.276S931.75,395.83,931.75,395.83Z" transform="translate(-543.767 -241.152)" opacity="0.1"/>
    <path id="Path_18668" data-name="Path 18668" d="M889.64,387.3s-6.191.4-6.231,1.276S889.64,387.3,889.64,387.3Z" transform="translate(-516.697 -236.376)" opacity="0.1"/>
    <path id="Path_18669" data-name="Path 18669" d="M941.792,428.039c-.062-.044-.123-.079-.185-.119,1.584,1.426,1.32,4.541-.625,7.111s-4.9,3.639-6.692,2.486c.057.048.105.1.167.15,1.76,1.346,4.84.29,6.873-2.367S943.561,429.39,941.792,428.039Z" transform="translate(-545.19 -259.123)" opacity="0.1"/>
    <path id="Path_18670" data-name="Path 18670" d="M872.217,434.258c-1.566-2.825-1.364-5.945.409-7.128-.066.031-.136.057-.2.092-1.945,1.082-2.2,4.325-.59,7.247s4.514,4.4,6.459,3.335a1.717,1.717,0,0,0,.185-.123C876.538,438.561,873.783,437.083,872.217,434.258Z" transform="translate(-509.623 -258.682)" opacity="0.1"/>
    <path id="Path_18671" data-name="Path 18671" d="M876.245,387.84h0l-.568.88-1.447-.77.761-1.17A3.19,3.19,0,0,1,876.245,387.84Z" transform="translate(-511.556 -236.085)" opacity="0.1"/>
    <path id="Path_18672" data-name="Path 18672" d="M856.086,438s1.289-6.063-.44-7.991-1.175-12.03,1.465-11.81,6.6,8.21,5.94,9.9-3.155,10.34-3.155,10.34Z" transform="translate(-500.593 -253.676)" fill="#fbbebe"/>
    <path id="Path_18673" data-name="Path 18673" d="M921.2,350.593a3.367,3.367,0,0,1-1.293,1.289,3.6,3.6,0,0,1-1.76.317,4.035,4.035,0,0,1-1.72-.374c-1.465-.73-2.011-2.482-2.7-3.96a1.611,1.611,0,0,0-.449-.7,3.136,3.136,0,0,0-1.13-.277,2.906,2.906,0,0,1-1.8-1.65c-.379-.748-.6-1.575-1.034-2.292a2.423,2.423,0,0,0-2-1.32,5.407,5.407,0,0,0-1.58.462,4.436,4.436,0,0,1-4.2-.818,4.277,4.277,0,0,0-1.241-.933,2.724,2.724,0,0,0-.981-.1c-.506,0-1.007.048-1.513.088a11.119,11.119,0,0,1-.805.942c.77-.066,1.544-.132,2.319-.15a2.726,2.726,0,0,1,.981.1,4.278,4.278,0,0,1,1.241.933,4.436,4.436,0,0,0,4.2.818,5.407,5.407,0,0,1,1.579-.462,2.516,2.516,0,0,1,2,1.32c.435.7.66,1.54,1.034,2.292a2.881,2.881,0,0,0,1.8,1.65,3.143,3.143,0,0,1,1.131.277,1.619,1.619,0,0,1,.493.682c.687,1.483,1.232,3.234,2.7,3.96a4.033,4.033,0,0,0,1.72.374,3.6,3.6,0,0,0,1.76-.317,3.373,3.373,0,0,0,1.294-1.289,7.3,7.3,0,0,0,.88-4.075A6.726,6.726,0,0,1,921.2,350.593Z" transform="translate(-524.308 -210.017)" opacity="0.1"/>
    <ellipse id="Ellipse_413" data-name="Ellipse 413" cx="3.96" cy="2.684" rx="3.96" ry="2.684" transform="translate(353.482 183.761)" fill="#575a89"/>
    <ellipse id="Ellipse_414" data-name="Ellipse 414" cx="135.742" cy="135.742" rx="135.742" ry="135.742" transform="translate(92.621 64.366)" fill="#007aff"/>
    <path id="Path_18674" data-name="Path 18674" d="M549.557,579.877c0,21.428-33.687,1.83-69.8,1.83s-72.645,18.788-72.645-2.64c0-12.219,11.643-29.212,28.345-41.554h0c12.584-9.3,28.037-15.964,43.56-15.964,15.964,0,31.6,7.212,44.075,17.112C538.834,551.145,549.557,567.918,549.557,579.877Z" transform="translate(-249.972 -311.555)" fill="#444053"/>
    <path id="Path_18675" data-name="Path 18675" d="M559.161,538.642c-19.2-2.891-53.918-6.416-87.632-1.148,12.584-9.3,28.037-15.963,43.561-15.963C531.049,521.53,546.687,528.742,559.161,538.642Z" transform="translate(-286.046 -311.545)" fill="#f6f8fb"/>
    <path id="Path_18676" data-name="Path 18676" d="M355.493,281.31s-40.89,26.141-40.555,67.031S355.493,281.31,355.493,281.31Z" transform="translate(-198.354 -177.022)" opacity="0.05"/>
    <path id="Path_18677" data-name="Path 18677" d="M835.313,113.459s-37.048-2.231-32.679,23.73c0,0-.88,4.585,3.291,6.671,0,0,.066-1.923,3.8-1.272a17.158,17.158,0,0,0,4.026.194,8.362,8.362,0,0,0,4.92-2.033h0s10.415-4.3,14.467-21.323c0,0,3-3.714,2.878-4.664l-6.253,2.666s2.134,4.51.44,8.259c0,0-.2-8.092-1.4-7.92-.242.04-3.247,1.562-3.247,1.562s3.674,7.858.88,13.565c0,0,1.052-9.68-2.051-13l-4.4,2.57s4.294,8.114,1.382,14.736c0,0,.748-10.155-2.306-14.111l-3.991,3.111s4.035,8,1.575,13.491c0,0-.321-11.823-2.438-12.716,0,0-3.489,3.08-4.022,4.343,0,0,2.763,5.8,1.052,8.866,0,0-1.052-7.876-1.914-7.92,0,0-3.476,5.218-3.841,8.8a19.023,19.023,0,0,1,3-9.3,10.439,10.439,0,0,0-5.32,2.759s.541-3.692,6.16-4.013c0,0,2.873-3.96,3.643-4.2,0,0-5.61-.471-9.011,1.038,0,0,2.992-3.48,10.037-1.9l3.96-3.212s-7.383-1.012-10.516.106c0,0,3.6-3.08,11.577-.836l4.29-2.565s-6.3-1.355-10.05-.88c0,0,3.96-2.134,11.3.18l3.08-1.377s-4.616-.906-5.967-1.047-1.421-.519-1.421-.519a16,16,0,0,1,8.681,1.008S835.423,113.868,835.313,113.459Z" transform="translate(-471.262 -82.999)" fill="#007aff"/>
    <path id="Path_18678" data-name="Path 18678" d="M772,87.262s-16.72-1.012-14.766,10.719a2.861,2.861,0,0,0,1.487,3.014s.026-.88,1.716-.572a7.949,7.949,0,0,0,1.818.088,3.822,3.822,0,0,0,2.226-.92h0s4.7-1.945,6.534-9.636c0,0,1.355-1.676,1.32-2.108l-2.825,1.206a5.053,5.053,0,0,1,.207,3.731s-.092-3.656-.634-3.568c-.11,0-1.469.7-1.469.7s1.663,3.551.409,6.129c0,0,.475-4.374-.924-5.874l-1.989,1.162s1.94,3.67.625,6.662c0,0,.334-4.589-1.043-6.376l-1.8,1.4s1.822,3.612.713,6.094c0,0-.145-5.342-1.1-5.746a11.033,11.033,0,0,0-1.817,1.962s1.25,2.64.475,4.008c0,0-.475-3.56-.88-3.573a11.8,11.8,0,0,0-1.734,3.96,8.569,8.569,0,0,1,1.351-4.2,4.712,4.712,0,0,0-2.4,1.245s.242-1.668,2.79-1.813a10.977,10.977,0,0,1,1.646-1.9,10.317,10.317,0,0,0-4.07.471s1.351-1.575,4.536-.88l1.76-1.448s-3.335-.44-4.752.044c0,0,1.628-1.39,5.232-.374l1.936-1.162a17.606,17.606,0,0,0-4.541-.392s1.791-.964,5.109.084l1.386-.625s-2.086-.409-2.693-.471-.647-.233-.647-.233a7.211,7.211,0,0,1,3.916.44A17.71,17.71,0,0,0,772,87.262Z" transform="translate(-445.952 -68.344)" fill="#007aff"/>
    <ellipse id="Ellipse_415" data-name="Ellipse 415" cx="11.849" cy="2.002" rx="11.849" ry="2.002" transform="translate(460.32 317.202)" fill="#6c63ff" opacity="0.1"/>
    <ellipse id="Ellipse_416" data-name="Ellipse 416" cx="11.849" cy="2.002" rx="11.849" ry="2.002" transform="translate(8.734 350.506)" fill="#6c63ff" opacity="0.1"/>
    <ellipse id="Ellipse_417" data-name="Ellipse 417" cx="11.849" cy="2.002" rx="11.849" ry="2.002" transform="translate(77.52 353.018)" fill="#6c63ff" opacity="0.1"/>
    <ellipse id="Ellipse_418" data-name="Ellipse 418" cx="17.693" cy="2.992" rx="17.693" ry="2.992" transform="translate(428.543 337.667)" fill="#007aff"/>
    <path id="Path_18679" data-name="Path 18679" d="M1059.937,797.021a5.168,5.168,0,0,0,1.69-2.548,2.271,2.271,0,0,0-1.179-2.592c-1.083-.414-2.24.339-3.115,1.1s-1.883,1.619-3.032,1.461a4.608,4.608,0,0,0,1.426-4.317,1.814,1.814,0,0,0-.4-.88c-.6-.642-1.689-.37-2.411.136-2.288,1.61-2.926,4.717-2.939,7.516a14.129,14.129,0,0,1-.039-3.08,3.182,3.182,0,0,0-1.162-2.741,3.519,3.519,0,0,0-1.76-.414,3.66,3.66,0,0,0-2.877.814,2.83,2.83,0,0,0,.114,3.52,11.424,11.424,0,0,0,2.974,2.385,6.6,6.6,0,0,1,2.13,2.028,2.15,2.15,0,0,1,.159.365h6.446A17.957,17.957,0,0,0,1059.937,797.021Z" transform="translate(-606.389 -461.251)" fill="#6c63ff"/>
    <path id="Path_18680" data-name="Path 18680" d="M100.855,723.55s2.416,3.159-1.118,7.92-6.446,8.8-5.28,11.774c0,0,5.328-8.862,9.68-8.989S105.625,728.879,100.855,723.55Z" transform="translate(-74.742 -424.674)" fill="#6c63ff"/>
    <path id="Path_18681" data-name="Path 18681" d="M101.036,723.55a3.958,3.958,0,0,1,.493.99c4.233,4.972,6.486,9.614,2.42,9.728-3.793.11-8.36,6.886-9.429,8.6a4.048,4.048,0,0,0,.132.391s5.328-8.861,9.68-8.989S105.806,728.879,101.036,723.55Z" transform="translate(-74.923 -424.674)" opacity="0.1"/>
    <path id="Path_18682" data-name="Path 18682" d="M118.829,731.783c0,1.113-.128,2.015-.282,2.015s-.277-.88-.277-2.015.154-.59.312-.59S118.829,730.67,118.829,731.783Z" transform="translate(-88.222 -428.881)" fill="#ffd037"/>
    <path id="Path_18683" data-name="Path 18683" d="M120.574,734.752c-.977.532-1.826.853-1.9.717s.66-.673,1.637-1.206.59-.145.664,0S121.569,734.22,120.574,734.752Z" transform="translate(-88.446 -430.52)" fill="#ffd037"/>
    <path id="Path_18688" data-name="Path 18688" d="M71.85,762.744s6.758-.207,8.8-1.659,10.4-3.181,10.9-.88,10.155,11.572,2.526,11.634-17.728-1.193-19.761-2.429S71.85,762.744,71.85,762.744Z" transform="translate(-62.228 -444.574)" fill="#a8a8a8"/>
    <path id="Path_18689" data-name="Path 18689" d="M94.207,775.7c-7.63.062-17.728-1.192-19.761-2.429-1.549-.941-2.165-4.325-2.372-5.887H71.85s.44,5.452,2.46,6.688,12.131,2.49,19.761,2.429c2.2,0,2.961-.805,2.922-1.963C96.684,775.243,95.848,775.683,94.207,775.7Z" transform="translate(-62.228 -449.218)" opacity="0.2"/>
    <path id="Path_18690" data-name="Path 18690" d="M418.9,447.841c2.583-.145,14.74-1.06,22.462-5.465a8.751,8.751,0,0,1,4.079-1.2c2.455-.07,5.28.955,3.472,6.693-2.93,9.385-19.945,19.945-30.505,19.36-10.155-.563-22.2-4.655-30.158-19.044a8.8,8.8,0,0,1-1.087-4.528c.092-2.9,1.148-6.543,6.6-2.486,7.366,5.478,21.34,6.517,24.143,6.671A9.29,9.29,0,0,0,418.9,447.841Z" transform="translate(-238.8 -265.532)" fill="#444053"/>
    <path id="Path_18691" data-name="Path 18691" d="M640.9,447.841c2.583-.145,14.74-1.06,22.462-5.465a8.752,8.752,0,0,1,4.079-1.2c2.455-.07,5.28.955,3.472,6.693-2.931,9.385-19.945,19.945-30.506,19.36-10.155-.563-22.2-4.655-30.158-19.044a8.8,8.8,0,0,1-1.087-4.528c.093-2.9,1.149-6.543,6.6-2.486,7.366,5.478,21.341,6.517,24.143,6.671A9.288,9.288,0,0,0,640.9,447.841Z" transform="translate(-363.118 -265.532)" fill="#444053"/>
  </g>
</svg>
