<svg xmlns="http://www.w3.org/2000/svg" width="156" height="156" viewBox="0 0 156 156">
  <defs>
    <style>
      .cls-1 {
        fill: #3066b1;
      }

      .cls-2 {
        fill: #fff;
      }
    </style>
  </defs>
  <g id="Group_11597" data-name="Group 11597" transform="translate(-12212.865 -5130.865)">
    <rect id="Rectangle_14" data-name="Rectangle 14" class="cls-1" width="156" height="156" rx="32" transform="translate(12212.865 5130.865)"/>
    <g id="Group_3595" data-name="Group 3595" transform="translate(12244.359 5159.345)">
      <path id="Path_14537" data-name="Path 14537" class="cls-2" d="M-312.837,281.623h-11.438c-.026-.4-.071-.759-.071-1.119,0-12.559-.152-25.121.04-37.678.174-11.4,5.238-20.283,14.786-26.539a30.093,30.093,0,0,1,11.849-4.469,30.375,30.375,0,0,1,12.309.388,31.355,31.355,0,0,1,20.951,16.375,30.771,30.771,0,0,1,3.5,14.246c0,.4,0,.8,0,1.119,2.13.276,4.129.456,6.1.806a29.984,29.984,0,0,1,10.311,3.982,31.354,31.354,0,0,1,9.464,8.807,32.058,32.058,0,0,1,5.343,12.845,30.908,30.908,0,0,1-.144,11.92,31.058,31.058,0,0,1-5.638,12.515,31.431,31.431,0,0,1-12.5,10.045,31.371,31.371,0,0,1-12.986,2.745q-31.167-.009-62.334,0h-1.073V295.987h1.466q30.654,0,61.308.016a20.91,20.91,0,0,0,9.574-2.034,20.33,20.33,0,0,0,9.268-9.3,19.616,19.616,0,0,0,1.8-11.761,19.431,19.431,0,0,0-6.621-12.167,18.055,18.055,0,0,0-8.817-4.495,35.459,35.459,0,0,0-5.156-.561c-3.215-.088-6.435-.025-9.652-.025h-1.246v-1.308q0-5.339,0-10.677a20.193,20.193,0,0,0-7.9-16.569,19.542,19.542,0,0,0-6.723-3.4,19.548,19.548,0,0,0-9.43-.426,19.56,19.56,0,0,0-11.48,6.769,18.2,18.2,0,0,0-4.095,7.828,30.605,30.605,0,0,0-.734,6.181c-.067,11.977-.033,23.955-.032,35.933Z" transform="translate(324.404 -211.371)"/>
      <path id="Path_14538" data-name="Path 14538" class="cls-2" d="M-234.937,322.052h1.273q12.627,0,25.254,0a5.843,5.843,0,0,1,5.954,7.283,6.016,6.016,0,0,1-4.59,4.211,15.121,15.121,0,0,1-1.636.119q-18.222.009-36.444,0h-1.214c-.029-.456-.072-.816-.072-1.176,0-12.35.028-24.7-.022-37.051a5.879,5.879,0,0,1,6.371-6.063,5.713,5.713,0,0,1,5,4.712c.067.679.117,1.363.117,2.045q.012,12.162,0,24.324Z" transform="translate(272.413 -263.369)"/>
    </g>
  </g>
</svg>
