<svg id="undraw_check_boxes_m3d0" xmlns="http://www.w3.org/2000/svg" width="509.698" height="443.695" viewBox="0 0 509.698 443.695">
  <ellipse id="Ellipse_437" data-name="Ellipse 437" cx="140.484" cy="7.059" rx="140.484" ry="7.059" transform="translate(88.951 429.578)" fill="#e6e6e6"/>
  <ellipse id="Ellipse_438" data-name="Ellipse 438" cx="69.715" cy="69.715" rx="69.715" ry="69.715" transform="translate(0 0)" fill="#e6e6e6"/>
  <ellipse id="Ellipse_439" data-name="Ellipse 439" cx="58.097" cy="58.097" rx="58.097" ry="58.097" transform="translate(11.62 11.62)" fill="#007aff"/>
  <ellipse id="Ellipse_440" data-name="Ellipse 440" cx="69.715" cy="69.715" rx="69.715" ry="69.715" transform="translate(185.134 0)" fill="#e6e6e6"/>
  <ellipse id="Ellipse_441" data-name="Ellipse 441" cx="58.097" cy="58.097" rx="58.097" ry="58.097" transform="translate(196.752 11.62)" fill="#fff"/>
  <ellipse id="Ellipse_442" data-name="Ellipse 442" cx="69.715" cy="69.715" rx="69.715" ry="69.715" transform="translate(370.268 0)" fill="#e6e6e6"/>
  <ellipse id="Ellipse_443" data-name="Ellipse 443" cx="58.097" cy="58.097" rx="58.097" ry="58.097" transform="translate(381.886 11.62)" fill="#fff"/>
  <path id="Path_19083" data-name="Path 19083" d="M84.068,112.7,67.149,90.941,77,83.285l8.014,10.3,27.057-28.577,9.052,8.566Z" transform="translate(-19.741 -19.117)" fill="#fff"/>
  <path id="Path_19084" data-name="Path 19084" d="M511.256,232.484c-4.579-11.057-5.322-21.5,1.133-30.764h0a23.279,23.279,0,0,1,24.842-22.369l4.208.285a23.187,23.187,0,0,1,19.973,14.391c7.847,19.461,8.1,45.327,6.136,73.052H509.982C513.4,254.112,515.156,241.943,511.256,232.484Z" transform="translate(-318.006 -148.552)" fill="#2f2e41"/>
  <path id="Path_19085" data-name="Path 19085" d="M398.275,290.62l-15.205-6.832a11.59,11.59,0,0,1-5.041-16.777h0a11.59,11.59,0,0,1,18.777-1.116l7.027,8.628L436.6,303.576l21.776-14.531,9.868,16.732-35.334,21.328Z" transform="translate(-279.351 -172.759)" fill="#9f616a"/>
  <path id="Path_19086" data-name="Path 19086" d="M499.306,312.893,487.3,289.918l46.757-20.827.4,4.395a23.3,23.3,0,0,1-9.611,21.065Z" transform="translate(-312.011 -174.955)" fill="#575a89"/>
  <path id="Path_19087" data-name="Path 19087" d="M569.132,260.071l-47.687,39.465L518.7,295.7l13.156-23.57,6.029-2.741c1.443-6.121-2.242-14.327-7.125-23.022l23.022-3.289C554.888,250.545,559.956,256.235,569.132,260.071Z" transform="translate(-321.247 -167.308)" fill="#9f616a"/>
  <path id="Path_19088" data-name="Path 19088" d="M402.984,489.211l-7.947,11.779-63.31-35.9,8.781-43.3Z" transform="translate(-97.542 -124.029)" fill="#2f2e41"/>
  <path id="Path_19089" data-name="Path 19089" d="M541.385,629.54,528.5,623.786l-3.29-150.736L512.88,391.1l47.972-9.044,9.866,21.377C594.946,436.69,559.61,538.583,541.385,629.54Z" transform="translate(-319.535 -208.173)" fill="#2f2e41"/>
  <path id="Path_19090" data-name="Path 19090" d="M535.415,727.011l2.643,5.752a7.641,7.641,0,0,1-5.864,10.755l-34.942,4.992a7.181,7.181,0,0,1-7.924-5.14h0a7.181,7.181,0,0,1,3.3-8.183l29.355-14.694Z" transform="translate(-312.533 -307.691)" fill="#2f2e41"/>
  <path id="Path_19091" data-name="Path 19091" d="M664.848,649.681l6.313-.463a7.641,7.641,0,0,1,8.025,9.256l-7.549,34.48a7.181,7.181,0,0,1-7.583,5.624h0a7.18,7.18,0,0,1-6.51-5.952l-3.5-32.642Z" transform="translate(-361.042 -286.724)" fill="#2f2e41"/>
  <ellipse id="Ellipse_444" data-name="Ellipse 444" cx="21.926" cy="21.926" rx="21.926" ry="21.926" transform="translate(195.814 42.883)" fill="#9f616a"/>
  <path id="Path_19092" data-name="Path 19092" d="M558.241,350.418l-47.687,9.866-1.1-31.792c-6.9-7.311,9.209-36.589,14.8-50.428l7.125-2.193L519.322,297.8l42.207-34.533,8.222,2.193,2.193,40.013Z" transform="translate(-318.03 -173.242)" fill="#575a89"/>
  <path id="Path_19093" data-name="Path 19093" d="M571,387.191l-10.342,13.079a11.591,11.591,0,0,1-17.5.788h0a11.59,11.59,0,0,1,3.508-18.48l10.083-4.711L592.92,353.2l-8.781-24.667,18.632-5.48,12.059,39.465Z" transform="translate(-327.502 -190.822)" fill="#9f616a"/>
  <path id="Path_19094" data-name="Path 19094" d="M569.975,265.241h-39.72c1.5-7.508,5.493-14.321,16.437-19.2,7.979-15.25,11.389-29.083,0-38.335-13.008-3-18.047-8.438-16.437-15.921l23.286-3.838C572.686,205.009,572.9,234.122,569.975,265.241Z" transform="translate(-324.555 -151.101)" fill="#2f2e41"/>
  <path id="Path_19095" data-name="Path 19095" d="M621.022,308.44l-25.215,6.029-8.78-50.428,4.36.681a23.3,23.3,0,0,1,18.077,14.466Z" transform="translate(-341.343 -173.472)" fill="#575a89"/>
</svg>
