<svg xmlns="http://www.w3.org/2000/svg" width="493.229" height="336.581" viewBox="0 0 493.229 336.581">
  <g id="Group_16565" data-name="Group 16565" transform="translate(-1312.885 -13641.42)">
    <g id="Group_16563" data-name="Group 16563">
      <path id="Path_110934" data-name="Path 110934" d="M216.227,783.922c0,8.77-41.128,15.883-91.863,15.883S32.5,792.692,32.5,783.922c0-2.194,2.567-4.28,7.212-6.177,13.522-5.533,44.657-9.465,81.252-9.693q1.693-.013,3.4-.013C175.1,768.04,216.227,775.153,216.227,783.922Z" transform="translate(1283.39 13178.195)" fill="#3f3d56"/>
      <path id="Path_110935" data-name="Path 110935" d="M130.552,768.07A52.154,52.154,0,0,1,49.3,777.763C62.822,772.229,93.957,768.3,130.552,768.07Z" transform="translate(1273.802 13178.178)" opacity="0.1"/>
      <ellipse id="Ellipse_905" data-name="Ellipse 905" cx="48.078" cy="51.512" rx="48.078" ry="51.512" transform="translate(1312.885 13859.522)" fill="#3f3d56"/>
      <path id="Path_110936" data-name="Path 110936" d="M274.927,141.3c6.817,26.261,28.808,43.235,49.168,37.95" transform="translate(1145.029 13535.896)" fill="#3f3d56"/>
      <path id="Path_110937" data-name="Path 110937" d="M386.985,151.639c-6.893-26.556,5.914-52.818,28.634-58.715" transform="translate(1082.139 13563.505)" fill="#007aff"/>
      <path id="Path_110938" data-name="Path 110938" d="M307.456,138.773c6.475,24.945,22.221,42.4,35.2,39.034" transform="translate(1126.464 13537.337)" fill="#007aff"/>
      <path id="Path_110939" data-name="Path 110939" d="M385.982,131.684c-8.808-33.933,5.315-66.907,31.576-73.724" transform="translate(1083.142 13583.46)" fill="#3f3d56"/>
      <path id="Path_110940" data-name="Path 110940" d="M371.616,226.663s5.182-1.517,6.465-3.047,7.4-4.545,8.254-2.849,10.172,6.9,4.286,8.483-13.942,2.638-15.762,2.089S371.616,226.663,371.616,226.663Z" transform="translate(1089.846 13490.827)" fill="#a8a8a8"/>
      <path id="Path_110941" data-name="Path 110941" d="M390.564,237.035c-5.885,1.578-13.942,2.638-15.762,2.089-1.386-.418-2.542-2.91-3.014-4.075l-.173.052s1.424,4.127,3.244,4.676,9.876-.511,15.762-2.089c1.7-.456,2.13-1.214,1.865-2.1C392.39,236.189,391.829,236.7,390.564,237.035Z" transform="translate(1089.846 13482.39)" opacity="0.2"/>
      <rect id="Rectangle_20199" data-name="Rectangle 20199" width="345.99" height="200.468" transform="translate(1460.124 13695.542)" fill="#f2f2f2"/>
      <rect id="Rectangle_20200" data-name="Rectangle 20200" width="189.737" height="99.376" transform="translate(1468.28 13756.391)" fill="#007aff" opacity="0.3"/>
      <rect id="Rectangle_20201" data-name="Rectangle 20201" width="76.101" height="4.21" transform="translate(1672.612 13752.059)" fill="#3f3d56"/>
      <rect id="Rectangle_20202" data-name="Rectangle 20202" width="110.751" height="4.21" transform="translate(1672.612 13759.83)" fill="#3f3d56"/>
      <rect id="Rectangle_20203" data-name="Rectangle 20203" width="76.101" height="4.21" transform="translate(1672.612 13778.612)" fill="#3f3d56"/>
      <rect id="Rectangle_20204" data-name="Rectangle 20204" width="76.101" height="4.21" transform="translate(1672.612 13809.701)" fill="#3f3d56"/>
      <rect id="Rectangle_20205" data-name="Rectangle 20205" width="110.751" height="4.21" transform="translate(1672.612 13786.385)" fill="#3f3d56"/>
      <rect id="Rectangle_20206" data-name="Rectangle 20206" width="110.751" height="4.21" transform="translate(1672.612 13794.157)" fill="#3f3d56"/>
      <rect id="Rectangle_20207" data-name="Rectangle 20207" width="110.751" height="4.21" transform="translate(1672.612 13801.929)" fill="#3f3d56"/>
      <rect id="Rectangle_20208" data-name="Rectangle 20208" width="39.832" height="11.01" transform="translate(1672.612 13828.483)" fill="#007aff"/>
      <path id="Path_110942" data-name="Path 110942" d="M339.988,445.748s7.15-20.259,12.314-13.9-7.945,17.081-7.945,17.081Z" transform="translate(1107.897 13370.776)" fill="#a0616a"/>
      <path id="Path_110943" data-name="Path 110943" d="M242.317,419.6l4.3,1.594s2.054,9.131,1.26,10.72-1.192.4,0,3.575,4.767,11.52,5.164,12.712,23.04-7.548,23.04-11.917c0,0,4.767,5.561,7.15,6.753,0,0-26.218,19.067-29.793,21.451s-5.561,1.192-8.739-1.589-16.684-25.82-16.684-25.82Z" transform="translate(1171.803 13377.058)" fill="#575a89"/>
      <path id="Path_110944" data-name="Path 110944" d="M282.346,744.725s-.4,4.37-1.192,4.767-6.753,10.328,0,12.314,10.725,1.192,12.314,1.986,29.4,2.383,29.793-1.986-13.506-5.164-13.506-5.164-12.712-8.342-14.7-12.712S282.346,744.725,282.346,744.725Z" transform="translate(1143.294 13192.956)" fill="#2f2e41"/>
      <path id="Path_110945" data-name="Path 110945" d="M90.3,766.623s-9.534,16.287-7.15,18.273,25.6,9.224,29,9.534c4.37.4,7.548-3.178,3.972-5.164S105,778.938,105,776.157v-7.15Z" transform="translate(1254.702 13179.003)" fill="#2f2e41"/>
      <path id="Path_110946" data-name="Path 110946" d="M75.551,518.621s-8.342,10.328,4.767,27.012l21.848,27.807s-13.506,21.451-13.9,32.573-3.178,8.739-3.972,13.506-4.37,2.383-1.589,5.958,13.109,6.753,16.287,3.972a9.848,9.848,0,0,0,3.178-7.945c0-1.589,5.561-10.725,5.959-13.506s15.1-25.423,15.1-25.423,4.767-13.506-.794-21.054-9.236-18.252-9.236-18.252,16.387,19.841,27.906,24.608c0,0,4.37.794,3.575,2.781s0,3.178,1.192,5.164,9.534,25.026,12.314,30.985,1.589,9.534,4.767,11.52,17.478.4,17.478-1.589-1.986-7.15-3.178-9.931-10.725-34.957-9.931-40.518-.4-13.109-6.356-16.287-36.149-29-37.738-29S75.551,518.621,75.551,518.621Z" transform="translate(1260.312 13320.546)" fill="#2f2e41"/>
      <circle id="Ellipse_906" data-name="Ellipse 906" cx="16.684" cy="16.684" r="16.684" transform="translate(1399.025 13743.433)" fill="#a0616a"/>
      <path id="Path_110947" data-name="Path 110947" d="M216.778,338.171s-5.164,9.136-11.52,10.328,16.684,19.465,16.684,19.465,5.561-17.478,10.328-18.273S216.778,338.171,216.778,338.171Z" transform="translate(1185.425 13423.534)" fill="#a0616a"/>
      <path id="Path_110948" data-name="Path 110948" d="M159.962,386.359c0,5.164-15.492,19.862-15.492,19.862l-14.7,12.314s-.4,4.37-1.986,4.767-3.575.4-1.986,2.781,5.561,7.548,1.986,8.342a29.194,29.194,0,0,1-3.253.31c-.953.056-2.074.107-3.333.155-2.94.1-6.618.171-10.6.143q-1.7-.006-3.456-.04c-15.02-.3-32.419-2.026-31-7.718,2.383-9.534.794-12.712,5.959-17.876s13.506-23.04,13.506-23.04,16.684-28.2,30.587-28.2l2.888-.759a6.613,6.613,0,0,1,7.218,2.773c2.789,4.246,7.186,10.626,9.756,12.684,3.972,3.178,4.592.9,4.592.9S159.962,381.2,159.962,386.359Z" transform="translate(1258.527 13412.687)" fill="#575a89"/>
      <path id="Path_110949" data-name="Path 110949" d="M180.172,565.815s11.52,17.876,4.37,21.054-11.123-18.67-11.123-18.67Z" transform="translate(1202.963 13293.61)" fill="#a0616a"/>
      <path id="Path_110950" data-name="Path 110950" d="M226.035,302.75c.64-.081.843-.889.951-1.525.577-3.408,3.117-6.639,6.529-7.189a9.244,9.244,0,0,1,3.89.314,14.759,14.759,0,0,1,4.991,2.457,8.232,8.232,0,0,0,2.494,1.566c.626.184,3.284,1.366,3.905,1.566,1.366.44,2.5,1.869,3.9,1.586,1.345-.271,1.856-1.9,2.073-3.251.493-3.088-1.275-7.695-3.032-10.281a10.9,10.9,0,0,0-5.846-3.827,42,42,0,0,0-8.108-1.611c-3.711-.438-7.555-.671-11.111.476s-6.795,3.953-7.459,7.63c-.138.766-.164,1.551-.334,2.31-.413,1.853-1.64,3.411-2.355,5.17a9.956,9.956,0,0,0,.3,8.071c.991,1.992,2.713,3.906,2.341,6.1l3.065-2.417a2.226,2.226,0,0,0,1.023-2.606l-.446-3.838a3.377,3.377,0,0,1,.2-2.075C224.375,299,224.968,302.884,226.035,302.75Z" transform="translate(1178.766 13455.482)" fill="#2f2e41"/>
      <path id="Path_110951" data-name="Path 110951" d="M152.537,427.5l3.742,15.56c-3.774.135-8.767.207-14.058.1-1.335-4-2.61-8.179-3.587-12.088-3.575-14.3,2.383-36.149,5.561-46.477s11.123-13.109,11.123-13.109a36.226,36.226,0,0,1,9.136,4.767C169.618,379.827,152.537,427.5,152.537,427.5Z" transform="translate(1223.448 13404.521)" opacity="0.1"/>
      <path id="Path_110952" data-name="Path 110952" d="M159.94,437.295l3.9,16.2c-.953.056-2.074.107-3.333.155-2.94.1-6.618.171-10.6.143-1.434-4.254-2.82-8.743-3.865-12.922-3.575-14.3,2.383-36.149,5.561-46.477s10.13.993,10.13.993-2.781-6.753,2.383-3.178S159.94,437.295,159.94,437.295Z" transform="translate(1219.223 13393.928)" opacity="0.1"/>
      <path id="Path_110953" data-name="Path 110953" d="M159.019,369.634s-7.945,2.781-11.123,13.109-9.136,32.176-5.561,46.477S153.458,461.4,153.458,461.4s7.548-5.561,10.328-4.37l-7.548-31.382s17.081-47.669,11.917-51.244A36.226,36.226,0,0,0,159.019,369.634Z" transform="translate(1221.335 13405.577)" fill="#575a89"/>
      <rect id="Rectangle_20209" data-name="Rectangle 20209" width="189.737" height="99.376" transform="translate(1460.124 13746.088)" fill="#3f3d56"/>
      <g id="Group_16562" data-name="Group 16562" transform="translate(394 249.449)">
        <ellipse id="Ellipse_907" data-name="Ellipse 907" cx="28.723" cy="28.775" rx="28.723" ry="28.775" transform="translate(1132.27 13516.733)" fill="#fff"/>
        <path id="Path_110954" data-name="Path 110954" d="M572.274,363.423A34.327,34.327,0,1,0,606.6,397.751,34.327,34.327,0,0,0,572.274,363.423Zm-7.047,52.629L547.634,398.46l4.935-4.935L565.243,406.2,592,379.448l4.935,4.935-31.7,31.67Z" transform="translate(588.719 13148.576)" fill="#007aff"/>
      </g>
    </g>
  </g>
</svg>
