<svg xmlns="http://www.w3.org/2000/svg" width="484.971" height="289.923" viewBox="0 0 484.971 289.923">
  <g id="undraw_Login_re_4vu2" transform="translate(0 0)">
    <path id="Path_16316" data-name="Path 16316" d="M823.829,630.5c-6.209-5.247-9.98-13.534-8.991-21.6s7.115-15.486,15.061-17.2,17,3.029,19.418,10.792c1.328-14.965,2.859-30.557,10.815-43.3,7.2-11.54,19.682-19.8,33.206-21.274s27.762,4.1,36.2,14.776,10.5,26.192,4.592,38.446c-4.351,9.028-12.368,15.746-20.768,21.212A134.037,134.037,0,0,1,821.685,632.4Z" transform="translate(-452.524 -343.829)" fill="#f2f2f2"/>
    <path id="Path_16317" data-name="Path 16317" d="M945.056,545.766a221.168,221.168,0,0,0-64.985,87.872c-.62,1.519,1.847,2.18,2.46.678a218.706,218.706,0,0,1,64.329-86.747c1.273-1.037-.541-2.832-1.8-1.8Z" transform="translate(-481.42 -347.273)" fill="#fff"/>
    <path id="Path_16318" data-name="Path 16318" d="M321.12,600.415c8.528-7.206,13.708-18.59,12.35-29.672s-9.772-21.27-20.686-23.623-23.355,4.161-26.67,14.822c-1.824-20.555-3.927-41.971-14.855-59.475-9.9-15.85-27.034-27.191-45.608-29.22s-38.131,5.634-49.715,20.295-14.421,35.974-6.307,52.806c5.977,12.4,16.988,21.627,28.525,29.134a184.1,184.1,0,0,0,125.912,27.545" transform="translate(-165 -315.174)" fill="#f2f2f2"/>
    <path id="Path_16319" data-name="Path 16319" d="M215.127,484.038A301.216,301.216,0,0,1,257.1,525.721a305.521,305.521,0,0,1,33.1,48.994,304.271,304.271,0,0,1,14.176,30.016c.851,2.086-2.536,2.994-3.378.931a298.987,298.987,0,0,0-27.319-51.69,300.86,300.86,0,0,0-36.64-45.263,300.159,300.159,0,0,0-24.4-22.194c-1.749-1.424.743-3.89,2.477-2.477Z" transform="translate(-185.825 -319.904)" fill="#fff"/>
    <path id="Path_16320" data-name="Path 16320" d="M627.965,479.241H424.5V270.481a80.641,80.641,0,0,1,80.55-80.55h42.366a80.641,80.641,0,0,1,80.55,80.55Z" transform="translate(-279.845 -189.931)" fill="#f2f2f2"/>
    <path id="Path_16321" data-name="Path 16321" d="M585.6,479.243H424.5V270.483a79.926,79.926,0,0,1,15.383-47.351c.37-.5.739-1,1.12-1.495A80.53,80.53,0,0,1,458.146,205c.368-.268.737-.53,1.112-.793a80.361,80.361,0,0,1,17.544-9.175c.368-.14.743-.28,1.119-.414a80.281,80.281,0,0,1,17.341-4.089c.367-.05.743-.089,1.12-.128a81.549,81.549,0,0,1,17.339,0c.375.039.752.078,1.123.129a80.265,80.265,0,0,1,17.336,4.089c.375.134.75.274,1.12.414a80.158,80.158,0,0,1,17.34,9.039c.374.257.749.52,1.118.783A81.378,81.378,0,0,1,562,213.527a80.409,80.409,0,0,1,7.093,8.111c.379.491.749.989,1.118,1.492A79.926,79.926,0,0,1,585.6,270.483Z" transform="translate(-279.845 -189.932)" fill="#ccc"/>
    <circle id="Ellipse_23" data-name="Ellipse 23" cx="8.919" cy="8.919" r="8.919" transform="translate(283.736 178.102)" fill="#2166b1"/>
    <path id="Path_16322" data-name="Path 16322" d="M586.592,486.855h-6.834l-3.252-26.36h10.087Z" transform="translate(-255.14 -203.797)" fill="#ffb8b8"/>
    <path id="Path_16323" data-name="Path 16323" d="M566.994,504.28h13.18v8.3H558.7A8.3,8.3,0,0,1,566.994,504.28Z" transform="translate(-247.257 -223.175)" fill="#2f2e41"/>
    <path id="Path_16324" data-name="Path 16324" d="M647.592,486.855h-6.834l-3.252-26.36h10.087Z" transform="translate(-282.136 -203.797)" fill="#ffb8b8"/>
    <path id="Path_16325" data-name="Path 16325" d="M627.994,504.28h13.18v8.3H619.695a8.3,8.3,0,0,1,8.3-8.3Z" transform="translate(-274.253 -223.175)" fill="#2f2e41"/>
    <path id="Path_16326" data-name="Path 16326" d="M697.278,470.753a5.988,5.988,0,0,1,2.514-8.832l23.232-64.031,11.431,6.239-26.526,61.191a6.021,6.021,0,0,1-10.652,5.434Z" transform="translate(-400.108 -281.965)" fill="#ffb8b8"/>
    <path id="Path_16327" data-name="Path 16327" d="M807.342,489.232a5.988,5.988,0,0,1-1.613-9.04l-7.2-67.734,13.009.594,2.991,66.625a6.021,6.021,0,0,1-7.191,9.554Z" transform="translate(-445.378 -288.413)" fill="#ffb8b8"/>
    <circle id="Ellipse_24" data-name="Ellipse 24" cx="13.691" cy="13.691" r="13.691" transform="translate(327.52 76.682)" fill="#ffb8b8"/>
    <path id="Path_16328" data-name="Path 16328" d="M781.41,461.974H740.133l.05-.321c.074-.48,7.356-48.184,1.986-63.791a6.585,6.585,0,0,1,3.383-8.129h0c7.677-3.615,22.413-8.067,34.851,2.737a15.739,15.739,0,0,1,5.273,13.042Z" transform="translate(-419.532 -276.559)" fill="#2166b1"/>
    <path id="Path_16329" data-name="Path 16329" d="M739.6,424.152l-18.583-3.77,8.711-20.642a7.8,7.8,0,0,1,15.11,3.9Z" transform="translate(-411.072 -280.194)" fill="#2166b1"/>
    <path id="Path_16330" data-name="Path 16330" d="M796.042,432.3l-1.117-25.609c-.847-4.814,1.909-9.365,6.147-10.109s8.379,2.6,9.23,7.447l4.2,23.93Z" transform="translate(-443.713 -281.341)" fill="#2166b1"/>
    <path id="Path_16331" data-name="Path 16331" d="M778.271,517.049c6.642,25.295,7.366,57.455,5.574,92.535l-8.919-1.115L758.76,541.576l-8.919,68.008-10.034-.557c-3-36.807-5.916-68.406-1.115-89.19Z" transform="translate(-417.767 -334.701)" fill="#2f2e41"/>
    <path id="Path_16332" data-name="Path 16332" d="M773.077,346.755a4.422,4.422,0,0,1-7.63-2.457,4.485,4.485,0,0,1,.006-.867c.172-1.646,1.123-3.141.9-4.88a2.558,2.558,0,0,0-.468-1.2c-2.035-2.725-6.813,1.219-8.734-1.248-1.178-1.513.207-3.895-.7-5.586-1.193-2.232-4.727-1.131-6.942-2.353-2.465-1.36-2.318-5.143-.7-7.443a11.708,11.708,0,0,1,8.876-4.519,23.809,23.809,0,0,1,10.029,1.957c3.635,1.417,7.24,3.374,9.477,6.571,2.72,3.887,2.982,9.113,1.622,13.658C777.987,341.156,775.163,344.533,773.077,346.755Z" transform="translate(-422.845 -245.801)" fill="#2f2e41"/>
    <path id="Path_16333" data-name="Path 16333" d="M677.712,708.52H266.159a.664.664,0,1,1,0-1.328H677.712a.664.664,0,0,1,0,1.327Z" transform="translate(-209.475 -418.851)" fill="#3f3d56"/>
    <path id="Path_16334" data-name="Path 16334" d="M573.59,466.335H501.123a3.6,3.6,0,0,1-3.623-3.576V301.007a3.6,3.6,0,0,1,3.623-3.576H573.59a3.6,3.6,0,0,1,3.623,3.576V462.758A3.6,3.6,0,0,1,573.59,466.335Z" transform="translate(-312.152 -237.506)" fill="#fff"/>
    <rect id="Rectangle_17913" data-name="Rectangle 17913" width="79.714" height="1.115" transform="translate(185.348 112.263)" fill="#ccc"/>
    <rect id="Rectangle_17914" data-name="Rectangle 17914" width="79.714" height="1.115" transform="translate(185.627 175.872)" fill="#ccc"/>
    <rect id="Rectangle_17915" data-name="Rectangle 17915" width="1.115" height="169.461" transform="translate(210.433 59.925)" fill="#ccc"/>
    <rect id="Rectangle_17916" data-name="Rectangle 17916" width="1.115" height="169.461" transform="translate(238.305 59.925)" fill="#ccc"/>
  </g>
</svg>
