<svg xmlns="http://www.w3.org/2000/svg" width="506.435" height="298.4" viewBox="0 0 506.435 298.4">
  <g id="undraw_Create_re_57a3" transform="translate(0 0)">
    <path id="Path_16335" data-name="Path 16335" d="M428.788,686.1c-.031-.135-2.987-13.615,3.05-24.81s18.924-16.133,19.053-16.182l.589-.221.139.614c.031.135,2.987,13.615-3.05,24.81s-18.924,16.133-19.053,16.182l-.589.221Zm21.885-39.715c-2.581,1.11-12.769,5.97-17.868,15.426s-3.561,20.64-3.07,23.405c2.58-1.108,12.764-5.96,17.868-15.426s3.561-20.638,3.07-23.405Z" transform="translate(-269.232 -388.691)" fill="#f1f1f1"/>
    <path id="Path_16336" data-name="Path 16336" d="M444.687,680.291c-10.849,6.527-15.027,19.492-15.027,19.492s13.411,2.382,24.26-4.145,15.027-19.492,15.027-19.492S455.536,673.764,444.687,680.291Z" transform="translate(-269.964 -402.596)" fill="#f1f1f1"/>
    <path id="Path_16337" data-name="Path 16337" d="M403.382,521.009h30.65V505.493h-30.65Z" transform="translate(-258.113 -325.826)" fill="#2166b1"/>
    <path id="Path_16338" data-name="Path 16338" d="M402.754,496.911a4.357,4.357,0,0,0-4.563-4.881l-4.312-8.975-6.093,1.29,6.267,12.589a4.381,4.381,0,0,0,8.7-.023Z" transform="translate(-251.079 -315.707)" fill="#ffb7b7"/>
    <path id="Path_16339" data-name="Path 16339" d="M105.767,503.79l5.071,2.6,12.424-18.326-7.485-3.831Z" transform="translate(-47.699 -218.377)" fill="#ffb7b7"/>
    <path id="Path_16340" data-name="Path 16340" d="M240.976,693.879l9.988,5.111h0a7.15,7.15,0,0,1,3.107,9.622l-.106.207-16.353-8.369Z" transform="translate(-183.354 -410.784)" fill="#2f2e41"/>
    <path id="Path_16341" data-name="Path 16341" d="M212.453,514.741h5.7l2.711-21.974h-8.408Z" transform="translate(-95.812 -222.228)" fill="#ffb7b7"/>
    <path id="Path_16342" data-name="Path 16342" d="M348.591,707.645h11.22a7.15,7.15,0,0,1,7.15,7.149v.233h-18.37Z" transform="translate(-233.403 -416.992)" fill="#2f2e41"/>
    <path id="Path_16343" data-name="Path 16343" d="M299.071,384.077s-3.815-2.923-3.815,4.217l-.6,23.593,6.726,22.288,3.915-7.228-1.606-15.661Z" transform="translate(-209.079 -270.803)" fill="#2f2e41"/>
    <path id="Path_16344" data-name="Path 16344" d="M319.737,495.382s4.424,21.544-1.18,39.225l-3.1,67.98-11.355-.885-3.982-50.432L296.29,526.2l-7.963,22.856-26.248,48.368-12.092-9.438s13.4-36.562,23.3-44.239l4.965-56.547Z" transform="translate(-188.935 -317.577)" fill="#2f2e41"/>
    <circle id="Ellipse_25" data-name="Ellipse 25" cx="12.947" cy="12.947" r="12.947" transform="translate(104.397 58.577)" fill="#ffb8b8"/>
    <path id="Path_16345" data-name="Path 16345" d="M340.255,296.038c1.552.2,2.723-1.386,3.266-2.854s.957-3.177,2.306-3.97c1.843-1.083,4.2.22,6.31-.138,2.381-.4,3.929-2.927,4.05-5.338s-.838-4.731-1.78-6.955l-.329,2.763a5.48,5.48,0,0,0-2.395-4.79l.424,4.055a4.3,4.3,0,0,0-4.951-3.561l.067,2.416a39.906,39.906,0,0,0-8.281-.405,13.393,13.393,0,0,0-7.625,2.938c-3.127,2.717-4.269,7.191-3.885,11.315s2.086,8,3.86,11.742c.446.942,1.064,2,2.1,2.124a2.115,2.115,0,0,0,2.07-1.56,5.656,5.656,0,0,0-.025-2.778,11.813,11.813,0,0,1-.345-4.2,3.427,3.427,0,0,1,2.652-2.94c1.4-.171,2.841,1.434,2.166,2.677Z" transform="translate(-223.828 -221.769)" fill="#2f2e41"/>
    <path id="Path_16346" data-name="Path 16346" d="M204.207,320.993,160.991,318.2l3.252-13.476,39.5,8.829Z" transform="translate(-72.604 -137.427)" fill="#cbcbcb"/>
    <path id="Path_16347" data-name="Path 16347" d="M311.145,337.586l2.711-3.763A109.137,109.137,0,0,1,325,338.891l.573,3.526,14.084,86.628-25.6-1.1-6.972-.148-2.281-5.114-2.813,5.006-6.808-.145-6.927-4.016,6.827-20.882,2.209-19.075L293.877,365.6s-4.3-16.5,12.248-25.4Z" transform="translate(-206.193 -248.406)" fill="#2f2e41"/>
    <path id="Path_16348" data-name="Path 16348" d="M255.787,318.539l.929,3.253,6.505-4.237-2.455-2.81Z" transform="translate(-115.355 -141.944)" fill="#cbcbcb"/>
    <path id="Path_16349" data-name="Path 16349" d="M338.767,355.387s10.085-12.875,16.18,1.475l1.922,15.037s7.384,18.691,7.606,26.254c0,0,5.006,9.87,4.96,15.054l7.405,16.766-7.6,4.715-21.021-32.231Z" transform="translate(-228.973 -255.737)" fill="#2f2e41"/>
    <path id="Path_16350" data-name="Path 16350" d="M348.511,720.855H139.334a.549.549,0,1,1,0-1.1H348.511a.549.549,0,1,1,0,1.1Z" transform="translate(-138.785 -422.455)" fill="#cbcbcb"/>
    <path id="Path_16351" data-name="Path 16351" d="M597.358,309.907H849.941V182.038H597.358Z" transform="translate(-345.592 -179.954)" fill="#fff"/>
    <path id="Path_16352" data-name="Path 16352" d="M850.316,310.279H593.563V178.243h256.75ZM597.73,306.112H846.146V182.41H597.73Z" transform="translate(-343.881 -178.243)" fill="#e5e5e5"/>
    <rect id="Rectangle_17920" data-name="Rectangle 17920" width="47.588" height="81.297" transform="translate(406.199 25.371)" fill="#e5e5e5"/>
    <rect id="Rectangle_17921" data-name="Rectangle 17921" width="95.987" height="22.378" transform="translate(302.328 25.369)" fill="#2166b1"/>
    <rect id="Rectangle_17922" data-name="Rectangle 17922" width="95.987" height="24.077" transform="translate(302.328 53.979)" fill="#e5e5e5"/>
    <rect id="Rectangle_17923" data-name="Rectangle 17923" width="95.987" height="22.378" transform="translate(302.328 84.288)" fill="#e5e5e5"/>
  </g>
</svg>
