<svg xmlns="http://www.w3.org/2000/svg" xmlns:xlink="http://www.w3.org/1999/xlink" width="354.227" height="268.245" viewBox="0 0 354.227 268.245">
  <defs>
    <linearGradient id="linear-gradient" x1="0.5" y1="1" x2="0.5" gradientUnits="objectBoundingBox">
      <stop offset="0" stop-color="gray" stop-opacity="0.251"/>
      <stop offset="0.54" stop-color="gray" stop-opacity="0.122"/>
      <stop offset="1" stop-color="gray" stop-opacity="0.102"/>
    </linearGradient>
  </defs>
  <g id="Group_10820" data-name="Group 10820" transform="translate(-464.082 -563)">
    <text id="Cars" transform="translate(668 828.245)" fill="#fff" font-size="13" font-family="HelveticaNeue-BoldItalic, Helvetica Neue" font-weight="700" font-style="italic" letter-spacing="-0.03em"><tspan x="-13.865" y="0">Cars</tspan></text>
    <text id="Cars-2" data-name="Cars" transform="translate(668 828.245)" fill="#fff" font-size="13" font-family="HelveticaNeue-BoldItalic, Helvetica Neue" font-weight="700" font-style="italic" letter-spacing="-0.03em"><tspan x="-13.865" y="0">Cars</tspan></text>
    <g id="Group_10812" data-name="Group 10812" transform="translate(734.3 717.124)" opacity="0.1">
      <path id="Path_16353" data-name="Path 16353" d="M901.774,619.118s-25.288-3.284-6.428,37.644c0,0,17.187-7.365,17.871-23.977a13.218,13.218,0,0,0-11.084-13.616Z" transform="translate(-888.357 -587.534)" fill="#6c63ff"/>
      <path id="Path_16354" data-name="Path 16354" d="M916.84,619.06s5.724,22.821-6.781,37.709" transform="translate(-903.053 -587.537)" fill="none" stroke="#535461" stroke-miterlimit="10" stroke-width="1"/>
      <path id="Path_16355" data-name="Path 16355" d="M909,621.953s9.105-22.44,26.108-30.764a36.7,36.7,0,0,0,16.664-16.176,61.71,61.71,0,0,0,4.175-10.484" transform="translate(-902.335 -550.614)" fill="none" stroke="#535461" stroke-miterlimit="10" stroke-width="2"/>
      <path id="Path_16356" data-name="Path 16356" d="M1064.535,530.04c-1.773,2.228-10.945,5.489-10.945,5.489s1.1-9.686,2.877-11.9a5.166,5.166,0,1,1,8.072,6.419Z" transform="translate(-1000.241 -521.428)" fill="#6c63ff"/>
      <path id="Path_16357" data-name="Path 16357" d="M1052.226,581.444c-2.7.907-12.166-1.35-12.166-1.35s6.183-7.516,8.882-8.424a5.166,5.166,0,1,1,3.284,9.773Z" transform="translate(-991.079 -555.187)" fill="#6c63ff"/>
      <path id="Path_16358" data-name="Path 16358" d="M1004.282,646.046c-2.786-.578-9.822-7.307-9.822-7.307s9.131-3.368,11.92-2.79a5.166,5.166,0,0,1-2.1,10.093Z" transform="translate(-960.202 -598.929)" fill="#6c63ff"/>
      <path id="Path_16359" data-name="Path 16359" d="M950.986,685.623c-2.844-.1-10.916-5.541-10.916-5.541s8.433-4.869,11.278-4.766a5.166,5.166,0,0,1-.362,10.3Z" transform="translate(-923.373 -625.629)" fill="#6c63ff"/>
      <path id="Path_16360" data-name="Path 16360" d="M1012.558,566.083c.365,2.825,6.529,10.355,6.529,10.355s4.058-8.847,3.7-11.672a5.166,5.166,0,1,0-10.225,1.317Z" transform="translate(-972.391 -547.494)" fill="#6c63ff"/>
      <path id="Path_16361" data-name="Path 16361" d="M952.392,610.453c1.191,2.583,9.328,7.927,9.328,7.927s1.227-9.657.036-12.24a5.166,5.166,0,1,0-9.363,4.317Z" transform="translate(-931.295 -576.547)" fill="#6c63ff"/>
      <path id="Path_16362" data-name="Path 16362" d="M902.041,666.052c.736,2.751,7.856,9.389,7.856,9.389s2.841-9.308,2.1-12.059a5.166,5.166,0,1,0-9.957,2.67Z" transform="translate(-897.436 -614.731)" fill="#6c63ff"/>
      <path id="Path_16363" data-name="Path 16363" d="M1064.535,530.04c-1.773,2.228-10.945,5.489-10.945,5.489s1.1-9.686,2.877-11.9a5.166,5.166,0,1,1,8.072,6.419Z" transform="translate(-1000.241 -521.428)" opacity="0.25"/>
      <path id="Path_16364" data-name="Path 16364" d="M1052.226,581.444c-2.7.907-12.166-1.35-12.166-1.35s6.183-7.516,8.882-8.424a5.166,5.166,0,1,1,3.284,9.773Z" transform="translate(-991.079 -555.187)" opacity="0.25"/>
      <path id="Path_16365" data-name="Path 16365" d="M1004.282,646.046c-2.786-.578-9.822-7.307-9.822-7.307s9.131-3.368,11.92-2.79a5.166,5.166,0,0,1-2.1,10.093Z" transform="translate(-960.202 -598.929)" opacity="0.25"/>
      <path id="Path_16366" data-name="Path 16366" d="M950.986,685.623c-2.844-.1-10.916-5.541-10.916-5.541s8.433-4.869,11.278-4.766a5.166,5.166,0,0,1-.362,10.3Z" transform="translate(-923.373 -625.629)" opacity="0.25"/>
      <path id="Path_16367" data-name="Path 16367" d="M1012.558,566.083c.365,2.825,6.529,10.355,6.529,10.355s4.058-8.847,3.7-11.672a5.166,5.166,0,1,0-10.225,1.317Z" transform="translate(-972.391 -547.494)" opacity="0.25"/>
      <path id="Path_16368" data-name="Path 16368" d="M952.392,610.453c1.191,2.583,9.328,7.927,9.328,7.927s1.227-9.657.036-12.24a5.166,5.166,0,1,0-9.363,4.317Z" transform="translate(-931.295 -576.547)" opacity="0.25"/>
      <path id="Path_16369" data-name="Path 16369" d="M902.041,666.052c.736,2.751,7.856,9.389,7.856,9.389s2.841-9.308,2.1-12.059a5.166,5.166,0,1,0-9.957,2.67Z" transform="translate(-897.436 -614.731)" opacity="0.25"/>
      <path id="Path_16370" data-name="Path 16370" d="M946.56,653.566s9.105-22.44,26.108-30.763a36.7,36.7,0,0,0,16.654-16.179A61.711,61.711,0,0,0,993.5,596.14" transform="translate(-927.768 -572.018)" fill="none" stroke="#535461" stroke-miterlimit="10" stroke-width="2"/>
      <path id="Path_16371" data-name="Path 16371" d="M1102.046,562.671c-1.773,2.228-10.946,5.489-10.946,5.489s1.1-9.686,2.877-11.9a5.166,5.166,0,0,1,8.072,6.419Z" transform="translate(-1025.64 -543.857)" fill="#6c63ff"/>
      <path id="Path_16372" data-name="Path 16372" d="M1089.756,613.489c-2.7.907-12.166-1.35-12.166-1.35s6.183-7.516,8.882-8.424a5.166,5.166,0,0,1,3.284,9.773Z" transform="translate(-1016.492 -577.029)" fill="#6c63ff"/>
      <path id="Path_16373" data-name="Path 16373" d="M1041.812,677.686c-2.786-.578-9.822-7.307-9.822-7.307s9.131-3.368,11.921-2.79a5.166,5.166,0,0,1-2.1,10.093Z" transform="translate(-985.615 -620.353)" fill="#6c63ff"/>
      <path id="Path_16374" data-name="Path 16374" d="M988.506,717.22c-2.845-.1-10.916-5.541-10.916-5.541s8.434-4.862,11.278-4.762a5.166,5.166,0,0,1-.362,10.3Z" transform="translate(-948.779 -647.026)" fill="#6c63ff"/>
      <path id="Path_16375" data-name="Path 16375" d="M1050.078,597.723c.365,2.825,6.529,10.355,6.529,10.355s4.058-8.847,3.7-11.672a5.166,5.166,0,1,0-10.226,1.317Z" transform="translate(-997.797 -568.919)" fill="#6c63ff"/>
      <path id="Path_16376" data-name="Path 16376" d="M990.5,643.278c1.191,2.583,9.328,7.927,9.328,7.927s1.227-9.657.036-12.24a5.166,5.166,0,0,0-9.363,4.317Z" transform="translate(-957.289 -599.182)" fill="#6c63ff"/>
      <path id="Path_16377" data-name="Path 16377" d="M939.942,699.058c.736,2.751,7.856,9.389,7.856,9.389s2.841-9.308,2.1-12.059a5.166,5.166,0,0,0-9.958,2.67Z" transform="translate(-923.219 -637.527)" fill="#6c63ff"/>
    </g>
    <path id="Path_16378" data-name="Path 16378" d="M63.3,474.07c5.605,23.957,17.471,44.666,36.223,54.7,38.971,20.861,126.861,10.1,192.456-2.26a150.2,150.2,0,0,0,85.41-48.819Z" transform="translate(404.61 227.763)" fill="#6c63ff" opacity="0.1"/>
    <path id="Path_16379" data-name="Path 16379" d="M426.275,70.146H390.284a3.111,3.111,0,1,1,0-6.222h6.222a3.111,3.111,0,0,1,0-6.222h-4.443a3.111,3.111,0,1,1,0-6.222h18.785A49.707,49.707,0,0,0,396.2,47.441c-51.221-6.58-69.508-2.228-75.959,2.26a71.731,71.731,0,0,1-26.327,11.54C262.3,67.753,203.2,75.6,149.632,58.723c-26.624-8.395-46.413,5.786-58.272,29.472H432.522a55.59,55.59,0,0,0-4.226-18.8A3.093,3.093,0,0,1,426.275,70.146Z" transform="translate(385.609 518.92)" fill="#6c63ff" opacity="0.1"/>
    <path id="Path_16380" data-name="Path 16380" d="M52.217,319.2a158.55,158.55,0,0,0,1.4,41.8l315.991,11.556a148.522,148.522,0,0,0,21.956-33.482ZM177.2,349.017h-6.222a3.111,3.111,0,1,1,0,6.222H134.983a3.111,3.111,0,0,1,0-6.222H141.2a3.111,3.111,0,1,1,0-6.222h-4.443a3.111,3.111,0,1,1,0-6.222h35.991a3.111,3.111,0,0,1,0,6.222H177.2a3.111,3.111,0,0,1,0,6.222Z" transform="translate(412.639 332.629)" fill="#6c63ff" opacity="0.1"/>
    <path id="Path_16381" data-name="Path 16381" d="M407.241,181.38,62.253,189.775A137.837,137.837,0,0,0,54,225.4H401.2a147.377,147.377,0,0,0,5.014-22.708A107.592,107.592,0,0,0,407.241,181.38Zm-283.2,27.5h-6.222a3.111,3.111,0,1,1,0,6.222H81.825a3.111,3.111,0,0,1,0-6.222h6.222a3.111,3.111,0,1,1,0-6.222H83.6a3.111,3.111,0,0,1,0-6.222H119.6a3.111,3.111,0,1,1,0,6.222h4.443a3.111,3.111,0,1,1,0,6.222Z" transform="translate(410.907 425.951)" fill="#6c63ff" opacity="0.1"/>
    <path id="Path_16382" data-name="Path 16382" d="M452.506,322.184s-14.387-78.911-41.822-91.716C387.437,219.61,362.3,212.291,355.15,210.3a30.869,30.869,0,0,0-3.684-4.808c-9.77-10.2-15.64-10.009-16.589-9.883a49.678,49.678,0,0,1-.969-6.135c-.029-.323-.058-.623-.084-.943l.084-.042q-.087-.915-.155-1.889a48.625,48.625,0,0,0,10.91-7.946c.042.139.078.278.123.42q10.561-8.927,20.687-18.339c1.937-1.811,3.971-3.778,4.63-6.332a9.291,9.291,0,0,0,.242-2.686c.087-1.937-.371-3.916-.449-5.88a6.727,6.727,0,0,1,.077-.93c.452-3.213,2.686-5.85,4.52-8.546a40.3,40.3,0,0,0,6.855-23.073,39.068,39.068,0,0,0-1.614-11.623c-1.43-4.785-4.407-9.812-9.363-10.858-1.918-.4-3.91-.152-5.867-.278-8.1-.517-14.164-7.1-20.625-11.93A54.44,54.44,0,0,0,316.893,68.13a21.622,21.622,0,0,0-9.105.623c-6.519,2.17-10.477,8.869-16.757,11.623-4.643,2.047-10.009,1.714-14.852,3.251-7.21,2.292-13.328,9.686-13.49,17.283v.985c-.081,3.839,1.291,7.749,1.4,11.678q0,.533.016,1.069a35.145,35.145,0,0,1-2.089,12.486c-.833,2.147-1.9,4.633-1.731,6.78a4.538,4.538,0,0,0,1.072,3.552l1.559-1.375a47.157,47.157,0,0,0,16.224,44.828q.09,1.45.174,3.106c.245,4.785.439,10.787.384,17.329l-15.227,14L225.329,233.1s-35.8,7.562-28.09,57.856l3.681,31.229H233.6l-.074.165h48.512l.029-.165H397.492l-.023.165h4.52v-.165ZM335.164,196.415a33.551,33.551,0,0,1,2.325,6.393,26.189,26.189,0,0,1-2.509-6.742l.048.087Zm-55.476,6.457q0,.923-.032,1.863l-.077.11a15.826,15.826,0,0,1,.11-1.989Z" transform="translate(314.653 502.77)" fill="url(#linear-gradient)"/>
    <path id="Path_16383" data-name="Path 16383" d="M506.479,385.364l-6.458,61.669-34.548,10.978s-44.88-8.395-33.256-32.61c8.269-17.225,8.04-48.008,7.219-64.346-.323-6.632-.762-10.884-.762-10.884S497.439,298.834,492.6,345a109.265,109.265,0,0,0-.471,21.394C494.3,389.142,506.479,385.364,506.479,385.364Z" transform="translate(156.108 328.199)" fill="#fdc2cc"/>
    <path id="Path_16384" data-name="Path 16384" d="M506.479,385.364l-6.458,61.669-34.548,10.978s-44.88-8.395-33.256-32.61c8.269-17.225,8.04-48.008,7.219-64.346-.323-6.632-.762-10.884-.762-10.884S497.439,298.834,492.6,345a109.265,109.265,0,0,0-.471,21.394C494.3,389.142,506.479,385.364,506.479,385.364Z" transform="translate(156.108 328.199)" opacity="0.03"/>
    <path id="Path_16385" data-name="Path 16385" d="M510.17,342A109.257,109.257,0,0,0,509.7,363.4a46.839,46.839,0,0,1-52.687-5.344c-.323-6.632-.762-10.884-.762-10.884S515.013,295.834,510.17,342Z" transform="translate(138.533 330.23)" opacity="0.1"/>
    <circle id="Ellipse_26" data-name="Ellipse 26" cx="46.817" cy="46.817" r="46.817" transform="translate(578.963 603.789)" fill="#fdc2cc"/>
    <circle id="Ellipse_27" data-name="Ellipse 27" cx="46.817" cy="46.817" r="46.817" transform="translate(578.963 603.789)" opacity="0.03"/>
    <path id="Path_16386" data-name="Path 16386" d="M457.409,594.754h-242.8l-3.552-30.673c-7.426-49.4,27.121-56.826,27.121-56.826l37.776-17.435,15.014-14.045c-4.843,18.4,31.8,56.665,31.8,56.665h0a8.7,8.7,0,0,0,.668-.694c.988-1.078,3.348-3.778,8.876-10.474,1.976-2.4,4.362-5.308,7.236-8.84,13.819-16.983,6.729-37.05,4.611-41.2l-.132-.258c-.081-.149-.142-.268-.191-.352a.524.524,0,0,0-.048-.087.517.517,0,0,1-.036-.065l17.758,13.884s.681.181,1.937.536c6.91,1.937,31.183,9.141,53.6,19.805C443.526,517.264,457.409,594.754,457.409,594.754Z" transform="translate(305.269 230.2)" fill="#2166b1"/>
    <path id="Path_16387" data-name="Path 16387" d="M599.735,520.718c-2.906-2.906-22.6-6.457-22.6-6.457.646,7.749-23.247,19.7-23.247,19.7l1.776,60.7H544.207L542.27,540.09l5.489-7.749h0l.668-.694a106.554,106.554,0,0,0,8.876-10.474c1.976-2.4,4.362-5.308,7.236-8.84,13.819-16.983,6.729-37.05,4.611-41.2l-.132-.258c-.077-.152-.139-.268-.191-.352a.515.515,0,0,0-.048-.087.507.507,0,0,1-.035-.065h0s5.812-1.291,16.144,9.686a30.27,30.27,0,0,1,3.552,4.733C596.833,498.262,602.3,523.278,599.735,520.718Z" transform="translate(80.287 230.299)" fill="#6c63ff"/>
    <path id="Path_16388" data-name="Path 16388" d="M599.735,520.718c-2.906-2.906-22.6-6.457-22.6-6.457.646,7.749-23.247,19.7-23.247,19.7l1.776,60.7H544.207L542.27,540.09l5.489-7.749h0l.668-.694a106.554,106.554,0,0,0,8.876-10.474c1.976-2.4,4.362-5.308,7.236-8.84,13.819-16.983,6.729-37.05,4.611-41.2l-.132-.258c-.077-.152-.139-.268-.191-.352a.515.515,0,0,0-.048-.087.507.507,0,0,1-.035-.065h0s5.812-1.291,16.144,9.686a30.27,30.27,0,0,1,3.552,4.733C596.833,498.262,602.3,523.278,599.735,520.718Z" transform="translate(80.287 230.299)" fill="#155ba8"/>
    <path id="Path_16389" data-name="Path 16389" d="M313.25,703.4s15.175,31,15.982,49.238" transform="translate(235.362 72.478)" opacity="0.1"/>
    <path id="Path_16390" data-name="Path 16390" d="M764.659,714.31,760.3,745.79h4.359Z" transform="translate(-50.734 79.329)" opacity="0.1"/>
    <path id="Path_16391" data-name="Path 16391" d="M323.75,567,347.8,512.27s6.78-12.915,8.395-25.83,10.332-33.256,10.332-33.256,21.633-27.444,31.642-23.57-8.718,18.4-8.718,18.4,27.444,10.655,8.718,42.3-19.05,25.83-19.05,25.83L369.921,567Z" transform="translate(228.253 258.119)" opacity="0.1"/>
    <path id="Path_16392" data-name="Path 16392" d="M321.75,566.983,345.8,512.256s6.78-12.915,8.395-25.83c1.027-8.211,4.924-19.424,7.626-26.5a40.638,40.638,0,0,1,7.659-12.592c6.993-7.827,19.7-20.448,26.689-17.736,10.009,3.874-8.718,18.4-8.718,18.4s27.444,10.655,8.718,42.3-19.05,25.83-19.05,25.83l-9.2,50.853Z" transform="translate(229.606 258.133)" fill="#fdc2cc"/>
    <circle id="Ellipse_28" data-name="Ellipse 28" cx="0.969" cy="0.969" r="0.969" transform="translate(639.179 623.323)" fill="#fff" opacity="0.15"/>
    <circle id="Ellipse_29" data-name="Ellipse 29" cx="0.969" cy="0.969" r="0.969" transform="translate(634.658 625.26)" fill="#fff" opacity="0.15"/>
    <path id="Path_16393" data-name="Path 16393" d="M417.023,100.334c4.672-1.511,9.857-1.185,14.339-3.193,6.06-2.719,9.88-9.3,16.17-11.43a20.763,20.763,0,0,1,8.785-.61A52.005,52.005,0,0,1,482.36,95.39c6.235,4.743,12.085,11.21,19.9,11.717a38.835,38.835,0,0,1,5.66.271c4.791,1.027,7.662,5.963,9.04,10.655a40.121,40.121,0,0,1-5.056,33.127c-1.769,2.648-3.926,5.24-4.362,8.395-.426,3.093.891,6.3.123,9.328-.646,2.509-2.583,4.44-4.469,6.219q-9.767,9.237-19.963,18c-3.532-11.223,1.65-23.308.843-35.045-.323-4.572-1.937-9.564-5.97-11.72-3.774-2.015-8.6-.969-12.418-2.906-4.262-2.147-6.012-7.232-9.234-10.752-5.489-6.005-15.017-6.78-22.692-4.068s-13.948,8.291-20.018,13.732l-11.033,9.9c-2.154-2.428-.52-6.154.646-9.189a37.349,37.349,0,0,0,2-14.284c-.094-3.874-1.43-7.7-1.353-11.472C404.163,109.855,410.066,102.584,417.023,100.334Z" transform="translate(175.497 491.273)" opacity="0.1"/>
    <path id="Path_16394" data-name="Path 16394" d="M417.023,97.334c4.672-1.511,9.857-1.185,14.339-3.193,6.06-2.719,9.88-9.3,16.17-11.43a20.763,20.763,0,0,1,8.785-.61A52.005,52.005,0,0,1,482.36,92.39c6.235,4.743,12.085,11.21,19.9,11.717a38.833,38.833,0,0,1,5.66.271c4.791,1.027,7.662,5.963,9.04,10.655a40.12,40.12,0,0,1-5.056,33.127c-1.769,2.648-3.926,5.24-4.362,8.395-.426,3.093.891,6.3.123,9.328-.646,2.509-2.583,4.44-4.469,6.219q-9.767,9.237-19.963,18c-3.532-11.223,1.65-23.308.843-35.045-.323-4.572-1.937-9.564-5.97-11.72-3.774-2.015-8.6-.969-12.418-2.906-4.262-2.147-6.012-7.232-9.234-10.752-5.489-6.005-15.017-6.78-22.692-4.068s-13.948,8.291-20.018,13.732l-11.033,9.9c-2.154-2.428-.52-6.154.646-9.189a37.349,37.349,0,0,0,2-14.284c-.094-3.874-1.43-7.7-1.353-11.472C404.163,106.855,410.066,99.584,417.023,97.334Z" transform="translate(175.497 493.304)" fill="#865a61"/>
  </g>
</svg>
