<svg xmlns="http://www.w3.org/2000/svg" width="148.361" height="142.397" viewBox="0 0 148.361 142.397">
  <defs>
    <style>
      .cls-1 {
        fill: #3f3d56;
      }

      .cls-2 {
        fill: #fff;
      }

      .cls-3 {
        fill: #4579f7;
      }

      .cls-4 {
        fill: #e6e6e6;
      }

      .cls-5 {
        fill: #f2f2f2;
      }

      .cls-6 {
        fill: #6c63ff;
      }

      .cls-7 {
        fill: #9f616a;
      }

      .cls-8 {
        fill: #2f2e41;
      }

      .cls-9 {
        fill: #a0616a;
      }

      .cls-10 {
        fill: #e5e5e5;
      }

      .cls-11 {
        opacity: 0.1;
        isolation: isolate;
      }
    </style>
  </defs>
  <g id="undraw_access_denied_re_awnf" transform="translate(0 0)">
    <path id="Path_968" data-name="Path 968" class="cls-1" d="M570.043,127.464h-.779V106.086a12.373,12.373,0,0,0-12.373-12.373H511.6a12.373,12.373,0,0,0-12.373,12.373v117.28A12.373,12.373,0,0,0,511.6,235.739H556.89a12.373,12.373,0,0,0,12.373-12.373V142.681h.779Z" transform="translate(-445.183 -93.713)"/>
    <path id="Path_969" data-name="Path 969" class="cls-2" d="M576.781,113.913V232.85a9.384,9.384,0,0,1-9.379,9.383H521.178a9.386,9.386,0,0,1-9.387-9.384V113.913a9.385,9.385,0,0,1,9.386-9.382h5.607a4.462,4.462,0,0,0,4.128,6.143h26.352a4.462,4.462,0,0,0,4.128-6.143H567.4a9.384,9.384,0,0,1,9.382,9.379Z" transform="translate(-455.238 -102.369)"/>
    <circle id="Ellipse_18" data-name="Ellipse 18" class="cls-3" cx="19.297" cy="19.297" r="19.297" transform="translate(69.742 20.696)"/>
    <path id="Path_39" data-name="Path 39" class="cls-4" d="M612.163,447.423H571.09a.761.761,0,0,1-.761-.761V436.474a.762.762,0,0,1,.761-.761h41.073a.762.762,0,0,1,.761.761v10.189a.762.762,0,0,1-.761.761ZM571.09,436.018a.457.457,0,0,0-.456.456v10.189a.457.457,0,0,0,.456.456h41.073a.457.457,0,0,0,.456-.456V436.474a.457.457,0,0,0-.456-.456Z" transform="translate(-502.078 -367.37)"/>
    <path id="Path_40" data-name="Path 40" class="cls-4" d="M635.567,454.074a.532.532,0,0,0,0,1.065h25.1a.533.533,0,0,0,.041-1.064H635.567Z" transform="translate(-553.853 -382.062)"/>
    <path id="Path_41" data-name="Path 41" class="cls-4" d="M635.567,470.058a.532.532,0,0,0,0,1.065h25.1a.533.533,0,0,0,.041-1.064H635.567Z" transform="translate(-553.853 -394.852)"/>
    <path id="Path_42" data-name="Path 42" class="cls-4" d="M612.163,532.4H571.09a.761.761,0,0,1-.761-.761V521.454a.762.762,0,0,1,.761-.761h41.073a.762.762,0,0,1,.761.761v10.189A.762.762,0,0,1,612.163,532.4ZM571.09,521a.457.457,0,0,0-.456.456v10.189a.457.457,0,0,0,.456.456h41.073a.457.457,0,0,0,.456-.456V521.454a.457.457,0,0,0-.456-.456Z" transform="translate(-502.078 -435.368)"/>
    <path id="Path_43" data-name="Path 43" class="cls-4" d="M635.567,539.33a.532.532,0,0,0,0,1.065h25.1a.533.533,0,1,0,.017-1.065H635.567Z" transform="translate(-553.853 -450.281)"/>
    <path id="Path_44" data-name="Path 44" class="cls-4" d="M635.567,555.318a.532.532,0,0,0,0,1.065h25.1a.532.532,0,1,0,.017-1.065H635.567Z" transform="translate(-553.853 -463.074)"/>
    <path id="Path_39-2" data-name="Path 39-2" class="cls-4" d="M612.163,617.661H571.09a.761.761,0,0,1-.761-.761V606.712a.762.762,0,0,1,.761-.761h41.073a.762.762,0,0,1,.761.761V616.9a.761.761,0,0,1-.761.76ZM571.09,606.256a.457.457,0,0,0-.456.456V616.9a.457.457,0,0,0,.456.456h41.073a.457.457,0,0,0,.456-.456V606.712a.457.457,0,0,0-.456-.456Z" transform="translate(-502.078 -503.588)"/>
    <path id="Path_40-2" data-name="Path 40-2" class="cls-4" d="M635.567,624.591a.532.532,0,0,0,0,1.065h25.1a.533.533,0,0,0,.041-1.064H635.567Z" transform="translate(-553.853 -518.503)"/>
    <path id="Path_41-2" data-name="Path 41-2" class="cls-4" d="M635.567,640.578a.532.532,0,0,0,0,1.065h25.1a.533.533,0,0,0,.041-1.064H635.567Z" transform="translate(-553.853 -531.296)"/>
    <path id="Path_970" data-name="Path 970" class="cls-4" d="M376.765,804.614H229.179c-.214,0-.387-.094-.387-.209s.173-.209.387-.209H376.765c.214,0,.387.094.387.209S376.979,804.614,376.765,804.614Z" transform="translate(-228.791 -662.217)"/>
    <g id="Group_58" data-name="Group 58" transform="translate(130.952 123.994)">
      <path id="Path_438" data-name="Path 438" class="cls-4" d="M910.7,724.451a3.892,3.892,0,0,1-3.758-.662c-1.316-1.1-1.729-2.925-2.065-4.61l-.993-4.985,2.079,1.432a15.147,15.147,0,0,1,4.06,3.584,5.142,5.142,0,0,1,.655,5.141" transform="translate(-899.929 -714.193)"/>
      <path id="Path_439" data-name="Path 439" class="cls-5" d="M921.552,747.859a25.022,25.022,0,0,0,.347-5.765,9.067,9.067,0,0,0-1.748-4.754,7.907,7.907,0,0,0-2.029-1.839c-.2-.128-.39.193-.188.321a7.519,7.519,0,0,1,2.974,3.588,12.045,12.045,0,0,1,.639,5.191c-.068,1.058-.21,2.109-.354,3.158a.193.193,0,0,0,.13.229.187.187,0,0,0,.229-.13Z" transform="translate(-911.102 -731.22)"/>
      <path id="Path_442" data-name="Path 442" class="cls-4" d="M892.659,769.73a2.865,2.865,0,0,1-2.5,1.288,5.688,5.688,0,0,1-3.265-1.779l-2.8-2.477,1.856-.089a11.154,11.154,0,0,1,3.977.288,3.784,3.784,0,0,1,2.677,2.718" transform="translate(-884.092 -756.15)"/>
      <path id="Path_443" data-name="Path 443" class="cls-5" d="M909.146,779.905c-1.259-2.229-2.721-4.707-5.333-5.5a5.951,5.951,0,0,0-2.243-.232c-.238.02-.179.388.06.367a5.529,5.529,0,0,1,3.579.947,9.3,9.3,0,0,1,2.46,2.655c.407.619.772,1.267,1.137,1.913C908.923,780.263,909.264,780.114,909.146,779.905Z" transform="translate(-897.956 -762.17)"/>
    </g>
    <g id="Group_59" data-name="Group 59" transform="translate(70.941 70.941)">
      <circle id="Ellipse_5" data-name="Ellipse 5" class="cls-6" cx="3.195" cy="3.195" r="3.195"/>
      <path id="Path_40-3" data-name="Path 40-3" class="cls-4" d="M591.858,461.712a2.164,2.164,0,0,0,0,1.065H595c.037,0,.067-.23.068-.524a1.188,1.188,0,0,0-.066-.541h-3.143Z" transform="translate(-590.193 -459.115)"/>
    </g>
    <g id="Group_60" data-name="Group 60" transform="translate(70.941 87.986)">
      <circle id="Ellipse_5-2" data-name="Ellipse 5-2" class="cls-6" cx="3.195" cy="3.195" r="3.195"/>
      <path id="Path_40-4" data-name="Path 40-4" class="cls-4" d="M591.858,547.005a2.164,2.164,0,0,0,0,1.065H595c.037,0,.067-.23.068-.524a1.188,1.188,0,0,0-.066-.541h-3.143Z" transform="translate(-590.193 -544.408)"/>
    </g>
    <g id="Group_61" data-name="Group 61" transform="translate(70.941 105.023)">
      <circle id="Ellipse_5-3" data-name="Ellipse 5-3" class="cls-6" cx="3.195" cy="3.195" r="3.195"/>
      <path id="Path_40-5" data-name="Path 40-5" class="cls-4" d="M591.858,632.263a2.164,2.164,0,0,0,0,1.065H595c.037,0,.067-.23.068-.523a1.187,1.187,0,0,0-.066-.541h-3.143Z" transform="translate(-590.193 -629.666)"/>
    </g>
    <rect id="Rectangle_18624" data-name="Rectangle 18624" class="cls-2" width="1.599" height="13.389" transform="translate(83.741 35.824) rotate(-45)"/>
    <rect id="Rectangle_18625" data-name="Rectangle 18625" class="cls-2" width="1.599" height="13.389" transform="translate(93.208 34.694) rotate(45)"/>
    <path id="Path_19980" data-name="Path 19980" class="cls-7" d="M308.211,514.762a2.01,2.01,0,0,0,1.077-2.887L314,506.507,310.321,506l-3.908,5.176a2.02,2.02,0,0,0,1.8,3.587Z" transform="translate(-290.175 -423.61)"/>
    <path id="Path_19981" data-name="Path 19981" class="cls-7" d="M99.272,643.489H95.988L94.425,630.82h4.847Z" transform="translate(-75.556 -504.76)"/>
    <path id="Path_19982" data-name="Path 19982" class="cls-8" d="M309.257,786.817h-10.59v-.134a4.122,4.122,0,0,1,4.122-4.122h6.469Z" transform="translate(-284.704 -644.905)"/>
    <path id="Path_19983" data-name="Path 19983" class="cls-7" d="M171.136,632.017,168,632.99l-5.249-11.635,4.629-1.437Z" transform="translate(-130.228 -496.037)"/>
    <path id="Path_19984" data-name="Path 19984" class="cls-8" d="M400.829,771.872l-10.114,3.14-.04-.128a4.122,4.122,0,0,1,2.714-5.159h0l6.177-1.918Z" transform="translate(-358.176 -633.099)"/>
    <path id="Path_973" data-name="Path 973" class="cls-4" d="M315.408,495.656l-4.864,5.571,3.808.343Z" transform="translate(-294.206 -415.334)"/>
    <path id="Path_975" data-name="Path 975" class="cls-8" d="M317.627,529.336s-1.69.845-1.9,4.646.634,13.729.634,13.729a24.791,24.791,0,0,0,0,8.448c.845,4.013-.845,18.585.211,18.585s6.547.634,6.758,0,.422-10.137.422-10.137,1.69-4.858,0-7.814c0,0,5.9,10.3,9.715,18.163.835,1.721,7.181-.211,6.125-2.112s-3.59-10.56-3.59-10.56-1.9-6.336-5.28-9.081l1.69-13.517s3.59-9.082,1.479-10.349S317.627,529.336,317.627,529.336Z" transform="translate(-298.326 -441.833)"/>
    <circle id="Ellipse_182" data-name="Ellipse 182" class="cls-9" cx="5.491" cy="5.491" r="5.491" transform="translate(20.145 42.095)"/>
    <path id="Path_976" data-name="Path 976" class="cls-10" d="M332.48,361.434l-6.826,4.013a8.975,8.975,0,0,0-3.59,4.013,12.2,12.2,0,0,0,0,7.392c.845,1.69-.354,5.914-.354,5.914l-1.056,9.715s-3.8,3.59-.845,4.013,8.237-.211,11.4,0,6.758.634,5.7-1.479-2.323-3.59-1.056-7.814c.992-3.305.949-15.664.883-20.883a4.2,4.2,0,0,0-2.04-3.55Z" transform="translate(-300.72 -307.934)"/>
    <path id="Path_980" data-name="Path 980" class="cls-11" d="M346.188,394.726l.633,12.883-6.14,12.434-1.041-.4,6.336-11.616Z" transform="translate(-317.489 -334.574)"/>
    <path id="Path_982" data-name="Path 982" class="cls-11" d="M378.53,467.011v-1.479l-7.18,11.827Z" transform="translate(-342.862 -391.23)"/>
    <path id="Path_983" data-name="Path 983" class="cls-8" d="M330.534,293.476l-.907-.363a6.194,6.194,0,0,1,4.539-1.908l-.743-.818a3.158,3.158,0,0,1,3.466,1.181,16.137,16.137,0,0,1,2.5,3.51h.972l-.406.893,1.42.893-1.458-.16a4.944,4.944,0,0,1-.138,2.314l.04.706a21.759,21.759,0,0,1-1.69-2.979v.909s-.908-.818-.908-1.363l-.5.636-.248-1-3.053,1,.495-.818-1.9.273.743-1s-2.146,1.181-2.228,2.181a5.359,5.359,0,0,1-1.155,2.271l-.5-.909S328.142,294.839,330.534,293.476Z" transform="translate(-308.795 -250.976)"/>
    <path id="Path_19985" data-name="Path 19985" class="cls-7" d="M343.209,516.2a2.01,2.01,0,0,0,.547-3.032l3.681-6.119-3.708.153-2.928,5.787a2.02,2.02,0,0,0,2.407,3.211Z" transform="translate(-317.917 -424.447)"/>
    <path id="Path_981" data-name="Path 981" class="cls-10" d="M354,373.907l1.584-.317s4.752,3.485,3.273,10.454-8.025,17.529-8.025,17.529-1.479,1.9-1.9,2.323-1.267,0-.845.634-.634,1.056-.634,1.056-4.646,0-4.224-1.69,7.6-13.729,7.6-13.729l-1.056-11.193S348.934,373.485,354,373.907Z" transform="translate(-320.341 -317.661)"/>
  </g>
</svg>
